RobotoExtremo-opsz8-wght400-wdth100-slnt-10.ufo
<glyph name="exclam" format="2">
  <advance width="616"/>
  <unicode hex="0021"/>
  <outline>
    <contour>
      <point x="89" y="106" type="qcurve" smooth="yes"/>
      <point x="93" y="158"/>
      <point x="167" y="233"/>
      <point x="228" y="233" type="qcurve" smooth="yes"/>
      <point x="289" y="233"/>
      <point x="348" y="157"/>
      <point x="343" y="105" type="qcurve" smooth="yes"/>
      <point x="338" y="52"/>
      <point x="265" y="-22"/>
      <point x="204" y="-22" type="qcurve" smooth="yes"/>
      <point x="143" y="-22"/>
      <point x="84" y="53"/>
    </contour>
    <contour>
      <point x="194.52" y="420.8" type="line"/>
      <point x="363.32" y="1456.0" type="line"/>
      <point x="565.6" y="1456.0" type="line"/>
      <point x="365.40000000000003" y="420.8" type="line"/>
    </contour>
  </outline>
</glyph>
<glyph name="quotedbl" format="2">
  <advance width="754"/>
  <unicode hex="0022"/>
  <outline>
    <contour>
      <point x="182.72" y="936.72" type="line"/>
      <point x="230.0" y="1311.84" type="line"/>
      <point x="254.0" y="1456.0" type="line"/>
      <point x="436.64" y="1456.0" type="line"/>
      <point x="412.64" y="1311.84" type="line"/>
      <point x="334.92" y="936.72" type="line"/>
    </contour>
    <contour>
      <point x="559.36" y="936.72" type="line"/>
      <point x="606.64" y="1311.84" type="line"/>
      <point x="630.64" y="1456.0" type="line"/>
      <point x="814.28" y="1456.0" type="line"/>
      <point x="790.28" y="1311.84" type="line"/>
      <point x="712.5600000000001" y="936.72" type="line"/>
    </contour>
  </outline>
</glyph>
<glyph name="numbersign" format="2">
  <advance width="1541"/>
  <unicode hex="0023"/>
  <outline>
    <contour>
      <point x="197" y="-20.0" type="line"/>
      <point x="732" y="1476.0" type="line"/>
      <point x="882" y="1476.0" type="line"/>
      <point x="346" y="-20.0" type="line"/>
    </contour>
    <contour>
      <point x="722" y="-20.0" type="line"/>
      <point x="1257" y="1476.0" type="line"/>
      <point x="1407" y="1476.0" type="line"/>
      <point x="870" y="-20.0" type="line"/>
    </contour>
    <contour>
      <point x="17.80000000000001" y="396.08" type="line"/>
      <point x="42.80000000000001" y="547.52" type="line"/>
      <point x="1414.0" y="547.52" type="line"/>
      <point x="1390.0" y="396.08" type="line"/>
    </contour>
    <contour>
      <point x="189.84" y="908.48" type="line"/>
      <point x="213.84" y="1059.92" type="line"/>
      <point x="1585.04" y="1059.92" type="line"/>
      <point x="1561.04" y="908.48" type="line"/>
    </contour>
  </outline>
</glyph>
<glyph name="dollar" format="2">
  <advance width="1171"/>
  <unicode hex="0024"/>
  <outline>
    <contour>
      <point x="36.52000000000001" y="416.76" type="qcurve" smooth="yes"/>
      <point x="37.52000000000001" y="428.76" type="line"/>
      <point x="228.84000000000003" y="428.76" type="line"/>
      <point x="226.84000000000003" y="416.76" type="line" smooth="yes"/>
      <point x="205.84000000000003" y="294.7212307692308"/>
      <point x="361.72" y="170.24"/>
      <point x="521.48" y="170.24" type="qcurve" smooth="yes"/>
      <point x="678.28" y="170.24"/>
      <point x="870.0" y="297.0"/>
      <point x="888.0" y="385.0" type="qcurve" smooth="yes"/>
      <point x="904.0" y="489.0"/>
      <point x="781.0" y="594.0"/>
      <point x="549.0" y="661.0" type="qcurve" smooth="yes"/>
      <point x="321.0" y="727.0"/>
      <point x="165.0" y="903.0"/>
      <point x="192.0" y="1069.0" type="qcurve" smooth="yes"/>
      <point x="220.0" y="1232.0"/>
      <point x="511.0873076923077" y="1456.0"/>
      <point x="743.0" y="1456.0" type="qcurve" smooth="yes"/>
      <point x="972.5468769716089" y="1456.0"/>
      <point x="1203.84" y="1213.92"/>
      <point x="1175.84" y="1045.24" type="qcurve" smooth="yes"/>
      <point x="1173.84" y="1033.24" type="line"/>
      <point x="982.36" y="1033.24" type="line"/>
      <point x="984.36" y="1045.24" type="line" smooth="yes"/>
      <point x="1003.36" y="1151.7733333333333"/>
      <point x="869.6" y="1285.76"/>
      <point x="717.0" y="1285.76" type="qcurve" smooth="yes"/>
      <point x="563.3199999999999" y="1285.76"/>
      <point x="399.0" y="1172.0"/>
      <point x="381.0" y="1084.0" type="qcurve" smooth="yes"/>
      <point x="367.0" y="997.0"/>
      <point x="488.0" y="890.0"/>
      <point x="714.0" y="828.0" type="qcurve" smooth="yes"/>
      <point x="936.0" y="768.0"/>
      <point x="1106.0" y="576.0"/>
      <point x="1078.0" y="401.0" type="qcurve" smooth="yes"/>
      <point x="1049.0" y="228.0"/>
      <point x="734.190627871363" y="0.0"/>
      <point x="495.48" y="0.0" type="qcurve" smooth="yes"/>
      <point x="255.6152496217852" y="0.0"/>
      <point x="4.52000000000001" y="227.04"/>
    </contour>
    <contour>
      <point x="388.44000000000005" y="-150.0" type="line"/>
      <point x="552.44" y="728.0" type="line"/>
      <point x="697.04" y="728.0" type="line"/>
      <point x="578.04" y="100.0" type="line"/>
      <point x="586.84" y="90.0" type="line"/>
      <point x="543.84" y="-150.0" type="line"/>
    </contour>
    <contour>
      <point x="561.0" y="728.0" type="line"/>
      <point x="672.0" y="1356.0" type="line"/>
      <point x="662.84" y="1366.0" type="line"/>
      <point x="696.84" y="1606.0" type="line"/>
      <point x="852.24" y="1606.0" type="line"/>
      <point x="706.24" y="728.0" type="line"/>
    </contour>
  </outline>
</glyph>
<glyph name="ampersand" format="2">
  <advance width="1317"/>
  <unicode hex="0026"/>
  <outline>
    <contour>
      <point x="45.0" y="380.0" type="qcurve" smooth="yes"/>
      <point x="73.0" y="541.0"/>
      <point x="328.0" y="762.24"/>
      <point x="509.68" y="858.88" type="qcurve" smooth="yes"/>
      <point x="698.68" y="960.64" type="line" smooth="yes"/>
      <point x="789.32" y="1009.0"/>
      <point x="869.4" y="1103.96"/>
      <point x="880.4" y="1162.8" type="qcurve" smooth="yes"/>
      <point x="892.4" y="1231.36"/>
      <point x="814.2" y="1321.04"/>
      <point x="726.92" y="1321.04" type="qcurve" smooth="yes"/>
      <point x="638.6800000000001" y="1321.04"/>
      <point x="515.88" y="1221.36"/>
      <point x="503.88" y="1152.8" type="qcurve" smooth="yes"/>
      <point x="490.88" y="1084.28"/>
      <point x="552.28" y="956.96"/>
      <point x="630.28" y="840.8" type="qcurve" smooth="yes"/>
      <point x="1193.36" y="0.0" type="line"/>
      <point x="960.76" y="0.0" type="line"/>
      <point x="468.32" y="733.12" type="line" smooth="yes"/>
      <point x="380.0" y="864.28"/>
      <point x="296.76" y="1052.8"/>
      <point x="313.76" y="1152.8" type="qcurve" smooth="yes"/>
      <point x="338.76" y="1296.92"/>
      <point x="591.4" y="1486.0"/>
      <point x="753.92" y="1486.0" type="qcurve" smooth="yes"/>
      <point x="914.8" y="1486.0"/>
      <point x="1086.28" y="1307.72"/>
      <point x="1063.28" y="1172.96" type="qcurve" smooth="yes"/>
      <point x="1042.28" y="1052.2"/>
      <point x="895.4" y="891.64"/>
      <point x="786.2" y="832.48" type="qcurve" smooth="yes"/>
      <point x="594.8" y="728.8" type="line" smooth="yes"/>
      <point x="430.02404125761495" y="640.2560275050766"/>
      <point x="256.08000000000004" y="485.48"/>
      <point x="237.08000000000004" y="382.4" type="qcurve" smooth="yes"/>
      <point x="218.08000000000004" y="276.6"/>
      <point x="353.56" y="144.96"/>
      <point x="486.6" y="144.96" type="qcurve" smooth="yes"/>
      <point x="671.96" y="144.96"/>
      <point x="991.28" y="426.0"/>
      <point x="1036.28" y="674.0" type="qcurve"/>
      <point x="1216.72" y="674.0" type="line"/>
      <point x="1164.72" y="380.0"/>
      <point x="729.0" y="-20.0"/>
      <point x="460.0" y="-20.0" type="qcurve" smooth="yes"/>
      <point x="233.0" y="-20.0"/>
      <point x="14.0" y="205.0"/>
    </contour>
  </outline>
</glyph>
<glyph name="quotesingle" format="2">
  <advance width="398"/>
  <unicode hex="0027"/>
  <outline>
    <contour>
      <point x="193.2" y="936.72" type="line"/>
      <point x="230.0" y="1311.84" type="line"/>
      <point x="254.0" y="1456.0" type="line"/>
      <point x="457.6" y="1456.0" type="line"/>
      <point x="433.6" y="1311.84" type="line"/>
      <point x="345.40000000000003" y="936.72" type="line"/>
    </contour>
  </outline>
</glyph>
<glyph name="parenleft" format="2">
  <advance width="691"/>
  <unicode hex="0028"/>
  <outline>
    <contour>
      <point x="500.20000000000005" y="-436.0" type="line"/>
      <point x="303.6" y="-341.44"/>
      <point x="42" y="123"/>
      <point x="111.0" y="515.0" type="qcurve" smooth="yes"/>
      <point x="122" y="577" type="line" smooth="yes"/>
      <point x="182" y="917"/>
      <point x="607.6" y="1381.44"/>
      <point x="837.2" y="1476.0" type="qcurve"/>
      <point x="806.2" y="1301.6" type="line"/>
      <point x="661.5550048703524" y="1228.5884419441966"/>
      <point x="372.6" y="870.4"/>
      <point x="314.6" y="532.0" type="qcurve" smooth="yes"/>
      <point x="310.6" y="508.0" type="line" smooth="yes"/>
      <point x="254.60000000000002" y="169.60000000000002"/>
      <point x="414.5550048703524" y="-188.5884419441965"/>
      <point x="532.2" y="-261.59999999999997" type="qcurve"/>
    </contour>
  </outline>
</glyph>
<glyph name="parenright" format="2">
  <advance width="691"/>
  <unicode hex="0029"/>
  <outline>
    <contour>
      <point x="-163.6" y="-436.0" type="qcurve"/>
      <point x="-131.6" y="-261.59999999999997" type="line"/>
      <point x="12.039999999999992" y="-188.64"/>
      <point x="304.0" y="169.60000000000002"/>
      <point x="359.0" y="508.0" type="qcurve" smooth="yes"/>
      <point x="363.0" y="532.0" type="line" smooth="yes"/>
      <point x="421.0" y="870.4"/>
      <point x="259.03999999999996" y="1228.6399999999999"/>
      <point x="141.4" y="1301.6" type="qcurve"/>
      <point x="173.4" y="1476.0" type="line"/>
      <point x="370.0" y="1381.44"/>
      <point x="637" y="917"/>
      <point x="562.6" y="525.0" type="qcurve" smooth="yes"/>
      <point x="555" y="485.0" type="line" smooth="yes"/>
      <point x="487" y="128"/>
      <point x="67.0" y="-341.44"/>
    </contour>
  </outline>
</glyph>
<glyph name="asterisk" format="2">
  <advance width="1080"/>
  <unicode hex="002A"/>
  <outline>
    <contour>
      <point x="143.0" y="1035.12" type="line"/>
      <point x="235.68" y="1232.56" type="line"/>
      <point x="561" y="1073" type="line"/>
      <point x="594" y="1476.0" type="line"/>
      <point x="790" y="1476.0" type="line"/>
      <point x="683" y="1073" type="line"/>
      <point x="1080.6399999999999" y="1232.56" type="line"/>
      <point x="1110.32" y="1035.12" type="line"/>
      <point x="711.24" y="945.2" type="line"/>
      <point x="917.84" y="641.76" type="line"/>
      <point x="739" y="519" type="line"/>
      <point x="599" y="868" type="line"/>
      <point x="337" y="519" type="line"/>
      <point x="198.48" y="641.76" type="line"/>
      <point x="510.08" y="945.2" type="line"/>
    </contour>
  </outline>
</glyph>
<glyph name="plus" format="2">
  <advance width="1139"/>
  <unicode hex="002B"/>
  <outline>
    <contour>
      <point x="70.56" y="585.04" type="line"/>
      <point x="99.56" y="762.96" type="line"/>
      <point x="1105.44" y="762.96" type="line"/>
      <point x="1076.44" y="585.04" type="line"/>
    </contour>
    <contour>
      <point x="408.6" y="142.24" type="line"/>
      <point x="580.6" y="1205.76" type="line"/>
      <point x="767.4" y="1205.76" type="line"/>
      <point x="596.4" y="142.24" type="line"/>
    </contour>
  </outline>
</glyph>
<glyph name="comma" format="2">
  <advance width="573"/>
  <unicode hex="002C"/>
  <outline>
    <contour>
      <point x="-34.0" y="-221.84" type="line"/>
      <point x="25.19999999999999" y="-156.16"/>
      <point x="100.0" y="-17.599999999999998"/>
      <point x="116.0" y="75.04" type="qcurve" smooth="yes"/>
      <point x="142.0" y="235.84" type="line"/>
      <point x="327.08" y="235.84" type="line"/>
      <point x="301.08" y="75.04" type="line" smooth="yes"/>
      <point x="281.08" y="-39.76"/>
      <point x="152.72000000000003" y="-231.68"/>
      <point x="60.920000000000016" y="-301.68" type="qcurve"/>
    </contour>
  </outline>
</glyph>
<glyph name="hyphen" format="2">
  <advance width="652"/>
  <unicode hex="002D"/>
  <outline>
    <contour>
      <point x="34.0" y="538.72" type="line"/>
      <point x="64.0" y="721.28" type="line"/>
      <point x="640.96" y="721.28" type="line"/>
      <point x="609.96" y="538.72" type="line"/>
    </contour>
  </outline>
</glyph>
<glyph name="period" format="2">
  <advance width="578"/>
  <unicode hex="002E"/>
  <outline>
    <contour>
      <point x="73.0" y="112.0" type="qcurve" smooth="yes"/>
      <point x="83.0" y="167.72"/>
      <point x="163.76" y="246.0"/>
      <point x="229.28000000000003" y="246.0" type="qcurve" smooth="yes"/>
      <point x="293.8" y="246.0"/>
      <point x="349.56" y="167.72"/>
      <point x="340.56" y="112.0" type="qcurve" smooth="yes"/>
      <point x="330.56" y="56.28"/>
      <point x="249.8" y="-22.0"/>
      <point x="184.28000000000003" y="-22.0" type="qcurve" smooth="yes"/>
      <point x="119.75999999999999" y="-22.0"/>
      <point x="64.0" y="56.28"/>
    </contour>
  </outline>
</glyph>
<glyph name="slash" format="2">
  <advance width="605"/>
  <unicode hex="002F"/>
  <outline>
    <contour>
      <point x="-219.0" y="-125.0" type="line"/>
      <point x="679.24" y="1456.0" type="line"/>
      <point x="859.2" y="1456.0" type="line"/>
      <point x="-39.19999999999999" y="-125.0" type="line"/>
    </contour>
  </outline>
</glyph>
<glyph name="zero" format="2">
  <advance width="1159"/>
  <unicode hex="0030"/>
  <outline>
    <contour>
      <point x="74.71999999999998" y="492.0" type="qcurve" smooth="yes"/>
      <point x="168.71999999999997" y="964.0" type="line" smooth="yes"/>
      <point x="207.71999999999997" y="1199.12"/>
      <point x="512.6800000000001" y="1486.0"/>
      <point x="741.72" y="1486.0" type="qcurve" smooth="yes"/>
      <point x="967.68" y="1486.0"/>
      <point x="1179.72" y="1199.12"/>
      <point x="1140.72" y="964.0" type="qcurve" smooth="yes"/>
      <point x="1046.72" y="492.0" type="line" smooth="yes"/>
      <point x="1007.72" y="256.24"/>
      <point x="700.68" y="-30.0"/>
      <point x="473.72" y="-30.0" type="qcurve" smooth="yes"/>
      <point x="245.68" y="-30.0"/>
      <point x="35.719999999999985" y="256.24"/>
    </contour>
    <contour>
      <point x="273.84" y="482.0" type="line" smooth="yes"/>
      <point x="249.83999999999997" y="332.84000000000003"/>
      <point x="356.12" y="142.64000000000001"/>
      <point x="501.72" y="142.64000000000001" type="qcurve" smooth="yes"/>
      <point x="647.3199999999999" y="142.64000000000001"/>
      <point x="818.6" y="332.84000000000003"/>
      <point x="843.6" y="482.0" type="qcurve" smooth="yes"/>
      <point x="941.6" y="974.0" type="line" smooth="yes"/>
      <point x="966.6" y="1122.48"/>
      <point x="859.3199999999999" y="1313.36"/>
      <point x="713.72" y="1313.36" type="qcurve" smooth="yes"/>
      <point x="568.12" y="1313.36"/>
      <point x="396.84" y="1122.48"/>
      <point x="371.84" y="974.0" type="qcurve" smooth="yes"/>
    </contour>
  </outline>
</glyph>
<glyph name="one" format="2">
  <advance width="1158"/>
  <unicode hex="0031"/>
  <outline>
    <contour>
      <point x="438.0799999999999" y="0.0" type="line"/>
      <point x="657.0799999999999" y="1233.76" type="line"/>
      <point x="250.68" y="1078.0" type="line"/>
      <point x="283.68" y="1276.0" type="line"/>
      <point x="853.64" y="1476.0" type="line"/>
      <point x="897.52" y="1476.0" type="line"/>
      <point x="637.52" y="0.0" type="line"/>
    </contour>
  </outline>
</glyph>
<glyph name="two" format="2">
  <advance width="1158"/>
  <unicode hex="0032"/>
  <outline>
    <contour>
      <point x="-5.000000000000014" y="0.0" type="line"/>
      <point x="18.999999999999986" y="156.8" type="line"/>
      <point x="660.92" y="707.52" type="line" smooth="yes"/>
      <point x="781.3199999999999" y="810.08"/>
      <point x="924.8" y="977.08"/>
      <point x="941.8" y="1072.96" type="qcurve" smooth="yes"/>
      <point x="959.8" y="1169.96"/>
      <point x="845.1999999999999" y="1313.36"/>
      <point x="721.04" y="1313.36" type="qcurve" smooth="yes"/>
      <point x="593.3199999999999" y="1313.36"/>
      <point x="396.84" y="1158.24"/>
      <point x="372.84" y="1025.2" type="qcurve" smooth="yes"/>
      <point x="370.84" y="1015.2" type="line"/>
      <point x="173.39999999999998" y="1015.2" type="line"/>
      <point x="174.39999999999998" y="1025.2" type="line" smooth="yes"/>
      <point x="210.39999999999998" y="1225.12"/>
      <point x="537.28" y="1486.0"/>
      <point x="748.04" y="1486.0" type="qcurve" smooth="yes"/>
      <point x="956.4399999999999" y="1486.0"/>
      <point x="1170.4" y="1245.2"/>
      <point x="1141.4" y="1082.96" type="qcurve" smooth="yes"/>
      <point x="1116.4" y="939.84"/>
      <point x="914.48" y="711.24"/>
      <point x="774.36" y="593.2" type="qcurve" smooth="yes"/>
      <point x="278.04" y="173.28000000000003" type="line"/>
      <point x="1017.4000000000001" y="173.28000000000003" type="line"/>
      <point x="988.4000000000001" y="0.0" type="line"/>
    </contour>
  </outline>
</glyph>
<glyph name="three" format="2">
  <advance width="1158"/>
  <unicode hex="0033"/>
  <outline>
    <contour>
      <point x="31.079999999999984" y="384.8" type="qcurve" smooth="yes"/>
      <point x="32.079999999999984" y="394.8" type="line"/>
      <point x="227.0" y="394.8" type="line"/>
      <point x="225.0" y="384.8" type="line" smooth="yes"/>
      <point x="204.0" y="268.9684210526316"/>
      <point x="346.4" y="141.44"/>
      <point x="483.03999999999996" y="141.44" type="qcurve" smooth="yes"/>
      <point x="619.84" y="141.44"/>
      <point x="806.4" y="269.34736842105264"/>
      <point x="831.4" y="404.8" type="qcurve" smooth="yes"/>
      <point x="856.4" y="538.6863157894737"/>
      <point x="697.04" y="674.56"/>
      <point x="542.6" y="674.56" type="qcurve" smooth="yes"/>
      <point x="418.03999999999996" y="674.56" type="line"/>
      <point x="445.03999999999996" y="842.48" type="line"/>
      <point x="559.12" y="842.48" type="line" smooth="yes"/>
      <point x="702.4" y="842.48"/>
      <point x="881.3199999999999" y="971.1666666666666"/>
      <point x="902.3199999999999" y="1086.4" type="qcurve" smooth="yes"/>
      <point x="923.3199999999999" y="1201.488219178082"/>
      <point x="809.04" y="1314.56"/>
      <point x="694.04" y="1314.56" type="qcurve" smooth="yes"/>
      <point x="580.52" y="1314.56"/>
      <point x="411.6" y="1201.021686746988"/>
      <point x="392.6" y="1095.2" type="qcurve" smooth="yes"/>
      <point x="390.6" y="1085.2" type="line"/>
      <point x="196.68" y="1085.2" type="line"/>
      <point x="197.68" y="1095.2" type="line" smooth="yes"/>
      <point x="226.68" y="1257.24"/>
      <point x="524.4816438356164" y="1486.0"/>
      <point x="722.04" y="1486.0" type="qcurve" smooth="yes"/>
      <point x="920.6311111111111" y="1486.0"/>
      <point x="1133.76" y="1268.68"/>
      <point x="1103.76" y="1097.6" type="qcurve" smooth="yes"/>
      <point x="1086.76" y="998.32"/>
      <point x="941.5381014129407" y="816.8378349413179"/>
      <point x="814.56" y="766.0" type="qcurve"/>
      <point x="813.56" y="762.0" type="line"/>
      <point x="936.5046523734703" y="729.6275688933489"/>
      <point x="1057.68" y="541.3660997067449"/>
      <point x="1032.68" y="403.28000000000003" type="qcurve" smooth="yes"/>
      <point x="997.6800000000001" y="201.25587583148558"/>
      <point x="673.2819834710743" y="-30.0"/>
      <point x="455.03999999999996" y="-30.0" type="qcurve" smooth="yes"/>
      <point x="237.6045188284519" y="-30.0"/>
      <point x="-0.9200000000000159" y="202.64000000000001"/>
    </contour>
  </outline>
</glyph>
<glyph name="four" format="2">
  <advance width="1159"/>
  <unicode hex="0034"/>
  <outline>
    <contour>
      <point x="632.0" y="0.0" type="line"/>
      <point x="702.0" y="398.0" type="line"/>
      <point x="712.0" y="450.0" type="line"/>
      <point x="835.0" y="1163.0" type="line"/>
      <point x="823.0" y="1163.0" type="line"/>
      <point x="254.0" y="510.0" type="line"/>
      <point x="765.0" y="510.0" type="line"/>
      <point x="843.0" y="510.0" type="line"/>
      <point x="1116.0" y="510.0" type="line"/>
      <point x="1088.0" y="339.0" type="line"/>
      <point x="-1.0" y="339.0" type="line"/>
      <point x="21.0" y="484.0" type="line"/>
      <point x="892.0" y="1456.0" type="line"/>
      <point x="1079.0" y="1456.0" type="line"/>
      <point x="822.0" y="0.0" type="line"/>
    </contour>
  </outline>
</glyph>
<glyph name="five" format="2">
  <advance width="1158"/>
  <unicode hex="0035"/>
  <outline>
    <contour>
      <point x="46.91999999999999" y="369.8" type="qcurve" smooth="yes"/>
      <point x="48.91999999999999" y="379.8" type="line"/>
      <point x="241.83999999999997" y="379.8" type="line"/>
      <point x="239.83999999999997" y="369.8" type="line" smooth="yes"/>
      <point x="219.83999999999997" y="263.7222857142857"/>
      <point x="359.24" y="141.44"/>
      <point x="493.72" y="141.44" type="qcurve" smooth="yes"/>
      <point x="629.36" y="141.44"/>
      <point x="832.24" y="311.38100890207716"/>
      <point x="860.24" y="465.0" type="qcurve" smooth="yes"/>
      <point x="888.24" y="618.5024390243902"/>
      <point x="746.36" y="779.68"/>
      <point x="611.72" y="779.68" type="qcurve" smooth="yes"/>
      <point x="519.72" y="779.68"/>
      <point x="368.09562208012113" y="714.0533602420506"/>
      <point x="296.76" y="654.3199999999999" type="qcurve"/>
      <point x="163.11999999999998" y="726.4" type="line"/>
      <point x="363.12" y="1456.0" type="line"/>
      <point x="1155.0" y="1456.0" type="line"/>
      <point x="1125.0" y="1270.4" type="line"/>
      <point x="495.96" y="1270.4" type="line"/>
      <point x="381.6" y="870.72" type="line"/>
      <point x="438.3656455981916" y="902.6170810383725"/>
      <point x="589.12" y="952.0"/>
      <point x="674.8" y="952.0" type="qcurve" smooth="yes"/>
      <point x="870.3199999999999" y="952.0"/>
      <point x="1098.84" y="695.0"/>
      <point x="1057.84" y="465.0" type="qcurve" smooth="yes"/>
      <point x="1017.8399999999999" y="235.0"/>
      <point x="684.0765432098765" y="-30.0"/>
      <point x="466.72" y="-30.0" type="qcurve" smooth="yes"/>
      <point x="248.10893617021276" y="-30.0"/>
      <point x="16.919999999999987" y="197.76"/>
    </contour>
  </outline>
</glyph>
<glyph name="six" format="2">
  <advance width="1158"/>
  <unicode hex="0036"/>
  <outline>
    <contour>
      <point x="77.83999999999999" y="614.0" type="qcurve" smooth="yes"/>
      <point x="82.83999999999999" y="644.0" type="line" smooth="yes"/>
      <point x="149.83999999999997" y="1024.0"/>
      <point x="660.28" y="1486.0"/>
      <point x="1056.48" y="1486.0" type="qcurve" smooth="yes"/>
      <point x="1076.28" y="1486.0" type="line"/>
      <point x="1048.28" y="1313.36" type="line"/>
      <point x="1028.48" y="1313.36" type="line" smooth="yes"/>
      <point x="736.56" y="1313.36"/>
      <point x="342.44" y="996.3976261127597"/>
      <point x="280.44" y="654.0" type="qcurve" smooth="yes"/>
      <point x="271.44" y="604.0" type="line" smooth="yes"/>
      <point x="225.44" y="351.34117647058827"/>
      <point x="378.12" y="141.44"/>
      <point x="523.08" y="141.44" type="qcurve" smooth="yes"/>
      <point x="667.36" y="141.44"/>
      <point x="858.4399999999999" y="310.9867857142857"/>
      <point x="886.4399999999999" y="465.2" type="qcurve" smooth="yes"/>
      <point x="914.4399999999999" y="619.292972972973"/>
      <point x="786.36" y="786.96"/>
      <point x="641.08" y="786.96" type="qcurve" smooth="yes"/>
      <point x="506.92" y="786.96"/>
      <point x="269.44" y="619.292972972973"/>
      <point x="241.44" y="465.2" type="qcurve"/>
      <point x="168.32" y="465.2" type="line"/>
      <point x="207.32" y="685.7365853658537"/>
      <point x="503.15999999999997" y="958.4"/>
      <point x="710.28" y="958.4" type="qcurve" smooth="yes"/>
      <point x="917.72" y="958.4"/>
      <point x="1123.04" y="685.7365853658537"/>
      <point x="1084.04" y="465.2" type="qcurve" smooth="yes"/>
      <point x="1046.04" y="244.66558704453442"/>
      <point x="712.300826446281" y="-30.0"/>
      <point x="495.08000000000004" y="-30.0" type="qcurve" smooth="yes"/>
      <point x="276.95625" y="-30.0"/>
      <point x="17.83999999999999" y="274.0"/>
    </contour>
  </outline>
</glyph>
<glyph name="seven" format="2">
  <advance width="1158"/>
  <unicode hex="0037"/>
  <outline>
    <contour>
      <point x="193.15999999999997" y="0.0" type="line"/>
      <point x="986.12" y="1280.32" type="line"/>
      <point x="196.0" y="1280.32" type="line"/>
      <point x="224.0" y="1456.0" type="line"/>
      <point x="1223.8799999999999" y="1456.0" type="line"/>
      <point x="1205.8799999999999" y="1333.28" type="line"/>
      <point x="399.48" y="0.0" type="line"/>
    </contour>
  </outline>
</glyph>
<glyph name="eight" format="2">
  <advance width="1159"/>
  <unicode hex="0038"/>
  <outline>
    <contour>
      <point x="55.23999999999998" y="386.0" type="qcurve" smooth="yes"/>
      <point x="78.23999999999998" y="516.0"/>
      <point x="256.88" y="698.72"/>
      <point x="379.47999999999996" y="743.0" type="qcurve"/>
      <point x="379.47999999999996" y="747.0" type="line"/>
      <point x="300.4" y="789.52"/>
      <point x="204.48" y="967.0"/>
      <point x="225.48" y="1087.0" type="qcurve" smooth="yes"/>
      <point x="257.48" y="1267.0"/>
      <point x="555.36" y="1486.0"/>
      <point x="741.88" y="1486.0" type="qcurve" smooth="yes"/>
      <point x="927.4" y="1486.0"/>
      <point x="1149.28" y="1267.0"/>
      <point x="1116.28" y="1087.0" type="qcurve" smooth="yes"/>
      <point x="1095.28" y="967.0"/>
      <point x="938.52" y="789.52"/>
      <point x="843.28" y="747.0" type="qcurve"/>
      <point x="843.28" y="743.0" type="line"/>
      <point x="948.88" y="698.72"/>
      <point x="1062.68" y="516.0"/>
      <point x="1040.68" y="386.0" type="qcurve" smooth="yes"/>
      <point x="1005.6800000000001" y="188.0"/>
      <point x="680.4399999999999" y="-30.0"/>
      <point x="473.88" y="-30.0" type="qcurve" smooth="yes"/>
      <point x="267.32" y="-30.0"/>
      <point x="20.23999999999998" y="188.0"/>
    </contour>
    <contour>
      <point x="252.83999999999997" y="398.4" type="qcurve" smooth="yes"/>
      <point x="231.83999999999997" y="282.84000000000003"/>
      <point x="368.84" y="140.24"/>
      <point x="501.88" y="140.24" type="qcurve" smooth="yes"/>
      <point x="635.08" y="140.24"/>
      <point x="825.0799999999999" y="282.84000000000003"/>
      <point x="846.0799999999999" y="398.4" type="qcurve" smooth="yes"/>
      <point x="867.0799999999999" y="514.56"/>
      <point x="730.08" y="659.88"/>
      <point x="596.88" y="659.88" type="qcurve" smooth="yes"/>
      <point x="463.84" y="659.88"/>
      <point x="273.84" y="514.56"/>
    </contour>
    <contour>
      <point x="415.76" y="1074.6" type="qcurve" smooth="yes"/>
      <point x="395.76" y="968.32"/>
      <point x="511.64" y="830.12"/>
      <point x="624.88" y="830.12" type="qcurve" smooth="yes"/>
      <point x="738.28" y="830.12"/>
      <point x="904.0" y="968.32"/>
      <point x="923.0" y="1074.6" type="qcurve" smooth="yes"/>
      <point x="943.0" y="1180.28"/>
      <point x="826.28" y="1315.76"/>
      <point x="713.88" y="1315.76" type="qcurve" smooth="yes"/>
      <point x="600.64" y="1315.76"/>
      <point x="434.76" y="1180.28"/>
    </contour>
  </outline>
</glyph>
<glyph name="nine" format="2">
  <advance width="1158"/>
  <unicode hex="0039"/>
  <outline>
    <contour>
      <point x="133.39999999999998" y="1000.8" type="qcurve" smooth="yes"/>
      <point x="171.39999999999998" y="1217.3355371900827"/>
      <point x="502.979173553719" y="1486.0"/>
      <point x="720.36" y="1486.0" type="qcurve" smooth="yes"/>
      <point x="938.32375" y="1486.0"/>
      <point x="1197.6" y="1182.0"/>
      <point x="1137.6" y="842.0" type="qcurve" smooth="yes"/>
      <point x="1132.6" y="812.0" type="line" smooth="yes"/>
      <point x="1065.6" y="432.0"/>
      <point x="555.1768421052632" y="-30.0"/>
      <point x="158.95999999999998" y="-30.0" type="qcurve" smooth="yes"/>
      <point x="139.16" y="-30.0" type="line"/>
      <point x="167.16" y="142.64000000000001" type="line"/>
      <point x="186.95999999999998" y="142.64000000000001" type="line" smooth="yes"/>
      <point x="478.8418181818182" y="142.64000000000001"/>
      <point x="872.84" y="459.60237388724033"/>
      <point x="934.84" y="802.0" type="qcurve" smooth="yes"/>
      <point x="943.84" y="852.0" type="line" smooth="yes"/>
      <point x="989.84" y="1104.6588235294118"/>
      <point x="837.16" y="1314.56"/>
      <point x="692.36" y="1314.56" type="qcurve" smooth="yes"/>
      <point x="548.0799999999999" y="1314.56"/>
      <point x="357.84" y="1150.0119626168225"/>
      <point x="330.84" y="1000.8" type="qcurve" smooth="yes"/>
      <point x="302.84" y="851.7083018867925"/>
      <point x="433.08" y="689.04"/>
      <point x="578.36" y="689.04" type="qcurve" smooth="yes"/>
      <point x="712.36" y="689.04"/>
      <point x="948.84" y="851.7083018867925"/>
      <point x="975.84" y="1000.8" type="qcurve"/>
      <point x="1048.96" y="1000.8" type="line"/>
      <point x="1010.96" y="784.32"/>
      <point x="715.3090909090909" y="517.6"/>
      <point x="508.15999999999997" y="517.6" type="qcurve" smooth="yes"/>
      <point x="301.7966123778502" y="517.6"/>
      <point x="94.39999999999999" y="784.2622406639005"/>
    </contour>
  </outline>
</glyph>
<glyph name="colon" format="2">
  <advance width="596"/>
  <unicode hex="003A"/>
  <outline>
    <contour>
      <point x="88.0" y="105.64000000000001" type="qcurve" smooth="yes"/>
      <point x="96.0" y="158.24"/>
      <point x="174.6" y="233.28000000000003"/>
      <point x="235.95999999999998" y="233.28000000000003" type="qcurve" smooth="yes"/>
      <point x="297.32" y="233.28000000000003"/>
      <point x="350.92" y="158.24"/>
      <point x="341.92" y="105.64000000000001" type="qcurve" smooth="yes"/>
      <point x="333.92" y="53.040000000000006"/>
      <point x="255.32" y="-22.0"/>
      <point x="193.95999999999998" y="-22.0" type="qcurve" smooth="yes"/>
      <point x="132.6" y="-22.0"/>
      <point x="79.0" y="53.040000000000006"/>
    </contour>
    <contour>
      <point x="238.0" y="979.16" type="qcurve" smooth="yes"/>
      <point x="247.0" y="1031.76"/>
      <point x="324.6" y="1106.8"/>
      <point x="385.96" y="1106.8" type="qcurve" smooth="yes"/>
      <point x="448.32" y="1106.8"/>
      <point x="500.92" y="1031.76"/>
      <point x="492.92" y="979.16" type="qcurve" smooth="yes"/>
      <point x="483.92" y="926.56"/>
      <point x="406.32" y="851.52"/>
      <point x="343.96" y="851.52" type="qcurve" smooth="yes"/>
      <point x="282.6" y="851.52"/>
      <point x="229.0" y="926.56"/>
    </contour>
  </outline>
</glyph>
<glyph name="semicolon" format="2">
  <advance width="596"/>
  <unicode hex="003B"/>
  <outline>
    <contour>
      <point x="-21.36" y="-221.84" type="line"/>
      <point x="37.84" y="-156.16"/>
      <point x="112.64000000000001" y="-17.599999999999998"/>
      <point x="128.64000000000001" y="75.04" type="qcurve" smooth="yes"/>
      <point x="154.64000000000001" y="233.20000000000002" type="line"/>
      <point x="338.28000000000003" y="233.20000000000002" type="line"/>
      <point x="311.28000000000003" y="75.04" type="line" smooth="yes"/>
      <point x="292.28000000000003" y="-39.76"/>
      <point x="163.96000000000004" y="-232.16"/>
      <point x="73.56" y="-301.68" type="qcurve"/>
    </contour>
    <contour>
      <point x="238" y="980" type="qcurve" smooth="yes"/>
      <point x="241" y="1032"/>
      <point x="312" y="1107"/>
      <point x="373" y="1107" type="qcurve" smooth="yes"/>
      <point x="435" y="1107"/>
      <point x="495" y="1031"/>
      <point x="493" y="978" type="qcurve" smooth="yes"/>
      <point x="490" y="927"/>
      <point x="420" y="852"/>
      <point x="358" y="852" type="qcurve" smooth="yes"/>
      <point x="297" y="852"/>
      <point x="235" y="928"/>
    </contour>
  </outline>
</glyph>
<glyph name="less" format="2">
  <advance width="1172"/>
  <unicode hex="003C"/>
  <outline>
    <contour>
      <point x="936.8399999999999" y="211.0" type="line"/>
      <point x="171.8" y="594.4399999999999" type="line"/>
      <point x="196.8" y="753.5600000000001" type="line"/>
      <point x="1095.84" y="1137.0" type="line"/>
      <point x="1061.84" y="928.36" type="line"/>
      <point x="413.28000000000003" y="674.0" type="line"/>
      <point x="972.8399999999999" y="419.64" type="line"/>
    </contour>
  </outline>
</glyph>
<glyph name="equal" format="2">
  <advance width="1174"/>
  <unicode hex="003D"/>
  <outline>
    <contour>
      <point x="116.4" y="382.08" type="line"/>
      <point x="146.4" y="557.6" type="line"/>
      <point x="1021.1600000000001" y="557.6" type="line"/>
      <point x="991.1600000000001" y="382.08" type="line"/>
    </contour>
    <contour>
      <point x="186.4" y="790.4" type="line"/>
      <point x="216.4" y="965.92" type="line"/>
      <point x="1091.16" y="965.92" type="line"/>
      <point x="1061.16" y="790.4" type="line"/>
    </contour>
  </outline>
</glyph>
<glyph name="greater" format="2">
  <advance width="1173"/>
  <unicode hex="003E"/>
  <outline>
    <contour>
      <point x="112.80000000000001" y="211.0" type="line"/>
      <point x="148" y="425" type="line"/>
      <point x="797" y="679.0" type="line"/>
      <point x="237" y="933" type="line"/>
      <point x="271.8" y="1137.0" type="line"/>
      <point x="1036.84" y="753.5600000000001" type="line"/>
      <point x="1011.8399999999999" y="594.4399999999999" type="line"/>
    </contour>
  </outline>
</glyph>
<glyph name="question" format="2">
  <advance width="967"/>
  <unicode hex="003F"/>
  <outline>
    <contour>
      <point x="234.0" y="105.64000000000001" type="qcurve" smooth="yes"/>
      <point x="242.0" y="158.24"/>
      <point x="320.6" y="233.28000000000003"/>
      <point x="381.96000000000004" y="233.28000000000003" type="qcurve" smooth="yes"/>
      <point x="443.32000000000005" y="233.28000000000003"/>
      <point x="496.9200000000001" y="158.24"/>
      <point x="487.9200000000001" y="105.64000000000001" type="qcurve" smooth="yes"/>
      <point x="478.9200000000001" y="53.040000000000006"/>
      <point x="401.32000000000005" y="-22.0"/>
      <point x="339.96000000000004" y="-22.0" type="qcurve" smooth="yes"/>
      <point x="278.6" y="-22.0"/>
      <point x="225.0" y="53.040000000000006"/>
    </contour>
    <contour>
      <point x="135.64000000000001" y="1086.0" type="line"/>
      <point x="139.64000000000001" y="1108.4" type="line" smooth="yes"/>
      <point x="168.64000000000001" y="1274.16"/>
      <point x="432.96000000000004" y="1476.0"/>
      <point x="630.96" y="1476.0" type="qcurve" smooth="yes"/>
      <point x="829.2" y="1476.0"/>
      <point x="1016.96" y="1264.16"/>
      <point x="986.96" y="1094.0" type="qcurve" smooth="yes"/>
      <point x="962.96" y="961.4399999999999"/>
      <point x="780.1600000000001" y="756.8"/>
      <point x="692.6" y="693.28" type="qcurve" smooth="yes"/>
      <point x="588.6800000000001" y="616.08"/>
      <point x="519.4" y="494.24"/>
      <point x="506.4" y="424.8" type="qcurve" smooth="yes"/>
      <point x="504.4" y="414.8" type="line"/>
      <point x="310.48" y="414.8" type="line"/>
      <point x="312.48" y="424.8" type="line" smooth="yes"/>
      <point x="334.48" y="549.52"/>
      <point x="430.44" y="698.16"/>
      <point x="544.76" y="786.48" type="qcurve" smooth="yes"/>
      <point x="645.48" y="866.24"/>
      <point x="775.04" y="996.56"/>
      <point x="792.04" y="1094.0" type="qcurve" smooth="yes"/>
      <point x="810.04" y="1190.16"/>
      <point x="717.12" y="1302.24"/>
      <point x="602.96" y="1302.24" type="qcurve" smooth="yes"/>
      <point x="487.96000000000004" y="1302.24"/>
      <point x="349.64" y="1198.96"/>
      <point x="332.64" y="1108.4" type="qcurve" smooth="yes"/>
      <point x="329.64" y="1086.0" type="line"/>
    </contour>
  </outline>
</glyph>
<glyph name="at" format="2">
  <advance width="2165"/>
  <unicode hex="0040"/>
  <outline>
    <contour>
      <point x="599.32" y="400.0" type="qcurve" smooth="yes"/>
      <point x="648.32" y="680.0"/>
      <point x="1017.52" y="1052.0"/>
      <point x="1212.64" y="1052.0" type="qcurve" smooth="yes"/>
      <point x="1304.16" y="1052.0"/>
      <point x="1443.24" y="985.0"/>
      <point x="1487.16" y="946.0" type="qcurve"/>
      <point x="1586.64" y="946.0" type="line"/>
      <point x="1360.84" y="350.0" type="line" smooth="yes"/>
      <point x="1315.44" y="234.32"/>
      <point x="1383.24" y="143.68"/>
      <point x="1464.44" y="143.68" type="qcurve" smooth="yes"/>
      <point x="1609.2298734177216" y="143.68"/>
      <point x="1841.28" y="423.48"/>
      <point x="1881.28" y="650.0" type="qcurve" smooth="yes"/>
      <point x="1929.28" y="916.04"/>
      <point x="1612.8189944134078" y="1319.92"/>
      <point x="1262.64" y="1319.92" type="qcurve" smooth="yes"/>
      <point x="912.0840000000001" y="1319.92"/>
      <point x="348.32" y="815.8"/>
      <point x="284.32" y="460.0" type="qcurve" smooth="yes"/>
      <point x="221.32" y="104.80000000000001"/>
      <point x="565.6571428571428" y="-279.92"/>
      <point x="875.6400000000001" y="-279.92" type="qcurve" smooth="yes"/>
      <point x="1017.24" y="-279.92"/>
      <point x="1221.92" y="-225.92"/>
      <point x="1295.6399999999999" y="-189.92" type="qcurve"/>
      <point x="1267.6399999999999" y="-356.0" type="line"/>
      <point x="1189.76" y="-400.0"/>
      <point x="989.24" y="-446.0"/>
      <point x="847.6400000000001" y="-446.0" type="qcurve" smooth="yes"/>
      <point x="475.6" y="-446.0"/>
      <point x="18.0" y="40.0"/>
      <point x="92.0" y="460.0" type="qcurve" smooth="yes"/>
      <point x="166.0" y="880.0"/>
      <point x="877.0" y="1486.0"/>
      <point x="1289.64" y="1486.0" type="qcurve" smooth="yes"/>
      <point x="1703.32" y="1486.0"/>
      <point x="2130.08" y="1000.0"/>
      <point x="2069.08" y="650.0" type="qcurve" smooth="yes"/>
      <point x="2018.08" y="360.0"/>
      <point x="1665.76" y="0.0"/>
      <point x="1457.04" y="0.0" type="qcurve" smooth="yes"/>
      <point x="1341.7669733656176" y="0.0"/>
      <point x="1186.2301415862605" y="100.0957734619832"/>
      <point x="1159.76" y="180.0" type="qcurve"/>
      <point x="1094.22249803601" y="99.04967488517424"/>
      <point x="929.4991097922848" y="0.0"/>
      <point x="845.44" y="0.0" type="qcurve" smooth="yes"/>
      <point x="700.84" y="0.0"/>
      <point x="567.32" y="220.0"/>
    </contour>
    <contour>
      <point x="792.12" y="400.0" type="qcurve" smooth="yes"/>
      <point x="771.12" y="283.72"/>
      <point x="839.4318446601942" y="163.68"/>
      <point x="923.3599999999999" y="163.68" type="qcurve" smooth="yes"/>
      <point x="996.9961977186313" y="163.68"/>
      <point x="1135.1572530703222" y="266.58625179003747"/>
      <point x="1185.16" y="396.0" type="qcurve" smooth="yes"/>
      <point x="1368.76" y="860.4" type="line"/>
      <point x="1340.275417430328" y="881.0339908261432"/>
      <point x="1259.76" y="902.4"/>
      <point x="1217.16" y="902.4" type="qcurve" smooth="yes"/>
      <point x="1071.9507389162561" y="902.4"/>
      <point x="831.12" y="615.92"/>
    </contour>
  </outline>
</glyph>
<glyph name="A" format="2">
  <advance width="1310"/>
  <unicode hex="0041"/>
  <outline>
    <contour>
      <point x="-100.0" y="0.0" type="line"/>
      <point x="718" y="1465" type="line"/>
      <point x="909" y="1465" type="line"/>
      <point x="1210" y="0.0" type="line"/>
      <point x="1007.0" y="0.0" type="line"/>
      <point x="801" y="1085" type="line" smooth="yes"/>
      <point x="794" y="1122"/>
      <point x="782" y="1190"/>
      <point x="779" y="1226" type="qcurve"/>
      <point x="769" y="1226" type="line"/>
      <point x="755" y="1190"/>
      <point x="723" y="1122"/>
      <point x="703" y="1085" type="qcurve" smooth="yes"/>
      <point x="107" y="0.0" type="line"/>
    </contour>
    <contour>
      <point x="207.0" y="371.0" type="line"/>
      <point x="297.0" y="543.0" type="line"/>
      <point x="997" y="541" type="line"/>
      <point x="1032" y="369" type="line"/>
    </contour>
  </outline>
</glyph>
<glyph name="B" format="2">
  <advance width="1287"/>
  <unicode hex="0042"/>
  <outline>
    <contour>
      <point x="65.0" y="0.0" type="line"/>
      <point x="322.0" y="1456.0" type="line"/>
      <point x="819.16" y="1456.0" type="line" smooth="yes"/>
      <point x="1047.96" y="1456.0"/>
      <point x="1275.84" y="1270.0"/>
      <point x="1240.84" y="1070.0" type="qcurve" smooth="yes"/>
      <point x="1219.84" y="950.0"/>
      <point x="1070.04" y="800.0"/>
      <point x="973.36" y="768.0" type="qcurve"/>
      <point x="972.36" y="764.0" type="line"/>
      <point x="1077.84" y="732.0"/>
      <point x="1189.44" y="560.0"/>
      <point x="1164.44" y="420.0" type="qcurve" smooth="yes"/>
      <point x="1129.44" y="220.0"/>
      <point x="817.84" y="0.0"/>
      <point x="593.44" y="0.0" type="qcurve" smooth="yes"/>
    </contour>
    <contour>
      <point x="287.96000000000004" y="169.04000000000002" type="line"/>
      <point x="620.44" y="169.04000000000002" type="line" smooth="yes"/>
      <point x="776.36" y="169.04000000000002"/>
      <point x="946.64" y="306.48"/>
      <point x="967.64" y="422.88" type="qcurve" smooth="yes"/>
      <point x="988.64" y="539.28"/>
      <point x="868.3272928176796" y="674.96"/>
      <point x="713.44" y="674.96" type="qcurve" smooth="yes"/>
      <point x="379.96000000000004" y="674.96" type="line"/>
    </contour>
    <contour>
      <point x="407.96000000000004" y="841.04" type="line"/>
      <point x="710.16" y="841.04" type="line" smooth="yes"/>
      <point x="865.24" y="841.04"/>
      <point x="1024.04" y="960.48"/>
      <point x="1044.04" y="1066.64" type="qcurve" smooth="yes"/>
      <point x="1063.04" y="1172.8"/>
      <point x="947.244985835694" y="1286.96"/>
      <point x="791.16" y="1286.96" type="qcurve" smooth="yes"/>
      <point x="488.96000000000004" y="1286.96" type="line"/>
    </contour>
  </outline>
</glyph>
<glyph name="C" format="2">
  <advance width="1357"/>
  <unicode hex="0043"/>
  <outline>
    <contour>
      <point x="132.0" y="686.8" type="qcurve" smooth="yes"/>
      <point x="148.0" y="769.2" type="line" smooth="yes"/>
      <point x="207.0" y="1107.44"/>
      <point x="629.36" y="1486.0"/>
      <point x="897.44" y="1486.0" type="qcurve" smooth="yes"/>
      <point x="1167.1475812274368" y="1486.0"/>
      <point x="1401.0" y="1197.0"/>
      <point x="1385.12" y="994.0" type="qcurve" smooth="yes"/>
      <point x="1384.12" y="984.0" type="line"/>
      <point x="1184.68" y="984.0" type="line"/>
      <point x="1185.68" y="994.0" type="line" smooth="yes"/>
      <point x="1198.0" y="1111.0"/>
      <point x="1054.4545695364238" y="1308.08"/>
      <point x="869.44" y="1308.08" type="qcurve" smooth="yes"/>
      <point x="683.801403508772" y="1308.08"/>
      <point x="398.28000000000003" y="1020.9372262773722"/>
      <point x="349.28000000000003" y="769.2" type="qcurve" smooth="yes"/>
      <point x="333.28000000000003" y="686.8" type="line" smooth="yes"/>
      <point x="288.28000000000003" y="435.0604379562044"/>
      <point x="473.80140350877195" y="147.92000000000002"/>
      <point x="659.44" y="147.92000000000002" type="qcurve" smooth="yes"/>
      <point x="845.4545695364238" y="147.92000000000002"/>
      <point x="1053.8707059062112" y="344.86058859317046"/>
      <point x="1089.68" y="462.0" type="qcurve" smooth="yes"/>
      <point x="1092.68" y="472.0" type="line"/>
      <point x="1292.12" y="472.0" type="line"/>
      <point x="1289.12" y="462.0" type="line" smooth="yes"/>
      <point x="1234.96" y="259.32"/>
      <point x="899.1475812274368" y="-30.0"/>
      <point x="630.44" y="-30.0" type="qcurve" smooth="yes"/>
      <point x="362.36" y="-30.0"/>
      <point x="73.0" y="348.5348314606742"/>
    </contour>
  </outline>
</glyph>
<glyph name="D" format="2">
  <advance width="1398"/>
  <unicode hex="0044"/>
  <outline>
    <contour>
      <point x="65.0" y="0.0" type="line"/>
      <point x="322.0" y="1456.0" type="line"/>
      <point x="770.92" y="1456.0" type="line" smooth="yes"/>
      <point x="1058.8143338437978" y="1456.0"/>
      <point x="1378.28" y="1083.44"/>
      <point x="1323.28" y="769.2" type="qcurve" smooth="yes"/>
      <point x="1307.28" y="686.8" type="line" smooth="yes"/>
      <point x="1252.28" y="372.6283760683761"/>
      <point x="802.8143338437978" y="0.0"/>
      <point x="513.92" y="0.0" type="qcurve" smooth="yes"/>
    </contour>
    <contour>
      <point x="291.64" y="171.44" type="line"/>
      <point x="541.92" y="171.44" type="line" smooth="yes"/>
      <point x="756.9188850174216" y="171.44"/>
      <point x="1062.0" y="444.97"/>
      <point x="1105.0" y="686.8" type="qcurve" smooth="yes"/>
      <point x="1122.0" y="769.2" type="line" smooth="yes"/>
      <point x="1165.0" y="1011.08"/>
      <point x="958.9188850174216" y="1284.56"/>
      <point x="742.92" y="1284.56" type="qcurve" smooth="yes"/>
      <point x="492.64" y="1284.56" type="line"/>
    </contour>
  </outline>
</glyph>
<glyph name="E" format="2">
  <advance width="1185"/>
  <unicode hex="0045"/>
  <outline>
    <contour>
      <point x="65.0" y="0.0" type="line"/>
      <point x="322.0" y="1456.0" type="line"/>
      <point x="1265" y="1456.0" type="line"/>
      <point x="1237" y="1285" type="line"/>
      <point x="493" y="1285" type="line"/>
      <point x="410" y="837" type="line"/>
      <point x="1063" y="837" type="line"/>
      <point x="1035" y="665" type="line"/>
      <point x="383" y="665" type="line"/>
      <point x="295" y="171" type="line"/>
      <point x="1047" y="171" type="line"/>
      <point x="1019" y="0.0" type="line"/>
    </contour>
  </outline>
</glyph>
<glyph name="F" format="2">
  <advance width="1153"/>
  <unicode hex="0046"/>
  <outline>
    <contour>
      <point x="65.0" y="0.0" type="line"/>
      <point x="322.0" y="1456.0" type="line"/>
      <point x="1253.8" y="1456.0" type="line"/>
      <point x="1225.8" y="1284.56" type="line"/>
      <point x="492.64" y="1284.56" type="line"/>
      <point x="404.64" y="801.0" type="line"/>
      <point x="1037.8" y="801.0" type="line"/>
      <point x="1009.8" y="629.56" type="line"/>
      <point x="377.64" y="629.56" type="line"/>
      <point x="263.64" y="0.0" type="line"/>
    </contour>
  </outline>
</glyph>
<glyph name="G" format="2">
  <advance width="1389"/>
  <unicode hex="0047"/>
  <outline>
    <contour>
      <point x="132.0" y="686.8" type="qcurve" smooth="yes"/>
      <point x="148.0" y="769.2" type="line" smooth="yes"/>
      <point x="207.0" y="1107.44"/>
      <point x="629.36" y="1486.0"/>
      <point x="897.44" y="1486.0" type="qcurve" smooth="yes"/>
      <point x="1167.1136086175943" y="1486.0"/>
      <point x="1408.4" y="1217.96"/>
      <point x="1395.28" y="1036.4" type="qcurve" smooth="yes"/>
      <point x="1394.28" y="1026.4" type="line"/>
      <point x="1194.84" y="1026.4" type="line"/>
      <point x="1195.84" y="1036.4" type="line" smooth="yes"/>
      <point x="1202.596182075762" y="1133.0693686479835"/>
      <point x="1054.421181619256" y="1308.68"/>
      <point x="868.44" y="1308.68" type="qcurve" smooth="yes"/>
      <point x="683.801403508772" y="1308.68"/>
      <point x="394.28000000000003" y="1021.2175182481752"/>
      <point x="349.28000000000003" y="769.2" type="qcurve" smooth="yes"/>
      <point x="333.28000000000003" y="686.8" type="line" smooth="yes"/>
      <point x="288.28000000000003" y="434.7801459854015"/>
      <point x="473.4978584392014" y="147.32000000000002"/>
      <point x="689.72" y="147.32000000000002" type="qcurve" smooth="yes"/>
      <point x="803.5327400468384" y="147.32000000000002"/>
      <point x="976.97864190462" y="192.6414677247889"/>
      <point x="1060.16" y="243.32000000000002" type="qcurve"/>
      <point x="1120.16" y="564.0" type="line"/>
      <point x="746.92" y="564.0" type="line"/>
      <point x="773.92" y="735.44" type="line"/>
      <point x="1341.28" y="735.44" type="line"/>
      <point x="1241.28" y="167.20000000000002" type="line"/>
      <point x="1158.4962135292378" y="94.06292830120302"/>
      <point x="858.0763636363636" y="-30.0"/>
      <point x="660.72" y="-30.0" type="qcurve" smooth="yes"/>
      <point x="361.96" y="-30.0"/>
      <point x="73.0" y="348.5348314606742"/>
    </contour>
  </outline>
</glyph>
<glyph name="H" format="2">
  <advance width="1484"/>
  <unicode hex="0048"/>
  <outline>
    <contour>
      <point x="65.0" y="0.0" type="line"/>
      <point x="322.0" y="1456.0" type="line"/>
      <point x="520.64" y="1456.0" type="line"/>
      <point x="409.64" y="836.6" type="line"/>
      <point x="1166.44" y="836.6" type="line"/>
      <point x="1277.44" y="1456.0" type="line"/>
      <point x="1476.08" y="1456.0" type="line"/>
      <point x="1219.08" y="0.0" type="line"/>
      <point x="1020.44" y="0.0" type="line"/>
      <point x="1139.44" y="665.16" type="line"/>
      <point x="382.64" y="665.16" type="line"/>
      <point x="263.64" y="0.0" type="line"/>
    </contour>
  </outline>
</glyph>
<glyph name="I" format="2">
  <advance width="539"/>
  <unicode hex="0049"/>
  <outline>
    <contour>
      <point x="70.0" y="0.0" type="line"/>
      <point x="326.0" y="1456.0" type="line"/>
      <point x="525.64" y="1456.0" type="line"/>
      <point x="268.64" y="0.0" type="line"/>
    </contour>
  </outline>
</glyph>
<glyph name="J" format="2">
  <advance width="1129"/>
  <unicode hex="004A"/>
  <outline>
    <contour>
      <point x="-5.0" y="421.2" type="qcurve" smooth="yes"/>
      <point x="-3.0" y="431.2" type="line"/>
      <point x="195.64000000000001" y="431.2" type="line"/>
      <point x="193.64000000000001" y="421.2" type="line" smooth="yes"/>
      <point x="170.64000000000001" y="287.36"/>
      <point x="295.5036417910448" y="147.32000000000002"/>
      <point x="425.03999999999996" y="147.32000000000002" type="qcurve" smooth="yes"/>
      <point x="554.5763582089552" y="147.32000000000002"/>
      <point x="730.44" y="302.3512027491409"/>
      <point x="754.44" y="446.2" type="qcurve" smooth="yes"/>
      <point x="936.44" y="1456.0" type="line"/>
      <point x="1135.08" y="1456.0" type="line"/>
      <point x="954.08" y="446.2" type="line" smooth="yes"/>
      <point x="917.08" y="226.3876923076923"/>
      <point x="608.8" y="-30.0"/>
      <point x="396.03999999999996" y="-30.0" type="qcurve" smooth="yes"/>
      <point x="183.27999999999997" y="-30.0"/>
      <point x="-40.0" y="211.4"/>
    </contour>
  </outline>
</glyph>
<glyph name="K" format="2">
  <advance width="1295"/>
  <unicode hex="004B"/>
  <outline>
    <contour>
      <point x="65.0" y="0.0" type="line"/>
      <point x="322.0" y="1456.0" type="line"/>
      <point x="522.0" y="1456.0" type="line"/>
      <point x="396.0" y="727.0" type="line"/>
      <point x="1181.44" y="1456.0" type="line"/>
      <point x="1424.52" y="1456.0" type="line"/>
      <point x="351.64" y="480.08" type="line"/>
      <point x="263.64" y="0.0" type="line"/>
    </contour>
    <contour>
      <point x="965.8799999999999" y="0.0" type="line"/>
      <point x="531.08" y="751.52" type="line"/>
      <point x="685.48" y="897.44" type="line"/>
      <point x="1213.88" y="0.0" type="line"/>
    </contour>
  </outline>
</glyph>
<glyph name="L" format="2">
  <advance width="1099"/>
  <unicode hex="004C"/>
  <outline>
    <contour>
      <point x="65.0" y="0.0" type="line"/>
      <point x="322.0" y="1456.0" type="line"/>
      <point x="520.64" y="1456.0" type="line"/>
      <point x="291.64" y="171.44" type="line"/>
      <point x="1004.0" y="171.44" type="line"/>
      <point x="976.0" y="0.0" type="line"/>
    </contour>
  </outline>
</glyph>
<glyph name="M" format="2">
  <advance width="1813"/>
  <unicode hex="004D"/>
  <outline>
    <contour>
      <point x="65.0" y="0.0" type="line"/>
      <point x="322.0" y="1456.0" type="line"/>
      <point x="592.0" y="1456.0" type="line"/>
      <point x="818.0" y="404.0" type="line" smooth="yes"/>
      <point x="825.0" y="374.0"/>
      <point x="838.0" y="308.0"/>
      <point x="844.0" y="279.0" type="qcurve"/>
      <point x="853.0" y="279.0" type="line"/>
      <point x="868.0" y="308.0"/>
      <point x="904.0" y="374.0"/>
      <point x="920.0" y="404.0" type="qcurve" smooth="yes"/>
      <point x="1524.0" y="1456.0" type="line"/>
      <point x="1805.0" y="1456.0" type="line"/>
      <point x="1548.0" y="0.0" type="line"/>
      <point x="1355.0" y="0.0" type="line"/>
      <point x="1540.0" y="1062.0" type="line" smooth="yes"/>
      <point x="1545.0" y="1092.0"/>
      <point x="1562.0" y="1167.0"/>
      <point x="1571.0" y="1197.0" type="qcurve"/>
      <point x="1560.0" y="1197.0" type="line"/>
      <point x="1545.0" y="1167.0"/>
      <point x="1505.0" y="1092.0"/>
      <point x="1488.0" y="1062.0" type="qcurve" smooth="yes"/>
      <point x="889.0" y="0.0" type="line"/>
      <point x="716.0" y="0.0" type="line"/>
      <point x="477.0" y="1062.0" type="line" smooth="yes"/>
      <point x="471.0" y="1092.0"/>
      <point x="460.0" y="1167.0"/>
      <point x="460.0" y="1197.0" type="qcurve"/>
      <point x="449.0" y="1197.0" type="line"/>
      <point x="446.0" y="1167.0"/>
      <point x="439.0" y="1092.0"/>
      <point x="434.0" y="1062.0" type="qcurve" smooth="yes"/>
      <point x="248.0" y="0.0" type="line"/>
    </contour>
  </outline>
</glyph>
<glyph name="N" format="2">
  <advance width="1479"/>
  <unicode hex="004E"/>
  <outline>
    <contour>
      <point x="65.0" y="0.0" type="line"/>
      <point x="322.0" y="1456.0" type="line"/>
      <point x="531.0" y="1456.0" type="line"/>
      <point x="1027.0" y="434.0" type="line" smooth="yes"/>
      <point x="1041.0" y="404.0"/>
      <point x="1069.0" y="329.0"/>
      <point x="1077.0" y="304.0" type="qcurve"/>
      <point x="1086.0" y="304.0" type="line"/>
      <point x="1090.0" y="334.0"/>
      <point x="1099.0" y="439.0"/>
      <point x="1104.0" y="469.0" type="qcurve" smooth="yes"/>
      <point x="1281.0" y="1456.0" type="line"/>
      <point x="1470.72" y="1456.0" type="line"/>
      <point x="1213.72" y="0.0" type="line"/>
      <point x="1004.0" y="0.0" type="line"/>
      <point x="504.0" y="1029.0" type="line" smooth="yes"/>
      <point x="489.0" y="1059.0"/>
      <point x="465.0" y="1119.0"/>
      <point x="458.0" y="1144.0" type="qcurve"/>
      <point x="448.0" y="1144.0" type="line"/>
      <point x="445.0" y="1114.0"/>
      <point x="436.0" y="1039.0"/>
      <point x="431.0" y="1009.0" type="qcurve" smooth="yes"/>
      <point x="254.0" y="0.0" type="line"/>
    </contour>
  </outline>
</glyph>
<glyph name="O" format="2">
  <advance width="1492"/>
  <unicode hex="004F"/>
  <outline>
    <contour>
      <point x="132.0" y="686.8" type="qcurve" smooth="yes"/>
      <point x="148.0" y="769.2" type="line" smooth="yes"/>
      <point x="207.0" y="1107.44"/>
      <point x="629.2" y="1486.0"/>
      <point x="907.92" y="1486.0" type="qcurve" smooth="yes"/>
      <point x="1186.470243902439" y="1486.0"/>
      <point x="1475.84" y="1107.44"/>
      <point x="1416.84" y="769.2" type="qcurve" smooth="yes"/>
      <point x="1400.84" y="686.8" type="line" smooth="yes"/>
      <point x="1341.84" y="348.5348314606742"/>
      <point x="919.470243902439" y="-30.0"/>
      <point x="640.92" y="-30.0" type="qcurve" smooth="yes"/>
      <point x="362.2" y="-30.0"/>
      <point x="73.0" y="348.5348314606742"/>
    </contour>
    <contour>
      <point x="333.28000000000003" y="686.8" type="line" smooth="yes"/>
      <point x="288.28000000000003" y="435.0604379562044"/>
      <point x="473.6926235741445" y="147.92000000000002"/>
      <point x="669.92" y="147.92000000000002" type="qcurve" smooth="yes"/>
      <point x="864.9724714828898" y="147.92000000000002"/>
      <point x="1154.56" y="435.0604379562044"/>
      <point x="1199.56" y="686.8" type="qcurve" smooth="yes"/>
      <point x="1215.56" y="769.2" type="line" smooth="yes"/>
      <point x="1260.56" y="1020.9372262773722"/>
      <point x="1074.97247148289" y="1308.08"/>
      <point x="878.92" y="1308.08" type="qcurve" smooth="yes"/>
      <point x="683.6926235741445" y="1308.08"/>
      <point x="394.28000000000003" y="1020.9372262773722"/>
      <point x="349.28000000000003" y="769.2" type="qcurve" smooth="yes"/>
    </contour>
  </outline>
</glyph>
<glyph name="P" format="2">
  <advance width="1228"/>
  <unicode hex="0050"/>
  <outline>
    <contour>
      <point x="65.0" y="0.0" type="line"/>
      <point x="322.0" y="1456.0" type="line"/>
      <point x="821.0" y="1456.0" type="line" smooth="yes"/>
      <point x="1069.6944144144145" y="1456.0"/>
      <point x="1294.48" y="1211.76"/>
      <point x="1258.48" y="1008.76" type="qcurve" smooth="yes"/>
      <point x="1223.48" y="805.76"/>
      <point x="913.6944144144144" y="557.52"/>
      <point x="665.0" y="557.52" type="qcurve" smooth="yes"/>
      <point x="364.64" y="557.52" type="line"/>
      <point x="263.64" y="0.0" type="line"/>
    </contour>
    <contour>
      <point x="392.64" y="728.96" type="line"/>
      <point x="693.0" y="728.96" type="line" smooth="yes"/>
      <point x="868.9821989528796" y="728.96"/>
      <point x="1038.8400000000001" y="891.76"/>
      <point x="1059.8400000000001" y="1008.76" type="qcurve" smooth="yes"/>
      <point x="1080.8400000000001" y="1125.76"/>
      <point x="968.9821989528796" y="1284.56"/>
      <point x="793.0" y="1284.56" type="qcurve" smooth="yes"/>
      <point x="492.64" y="1284.56" type="line"/>
    </contour>
  </outline>
</glyph>
<glyph name="Q" format="2">
  <advance width="1493"/>
  <unicode hex="0051"/>
  <outline>
    <contour>
      <point x="132.0" y="686.8" type="qcurve" smooth="yes"/>
      <point x="148.0" y="769.2" type="line" smooth="yes"/>
      <point x="207.0" y="1107.44"/>
      <point x="629.2" y="1486.0"/>
      <point x="907.92" y="1486.0" type="qcurve" smooth="yes"/>
      <point x="1186.48" y="1486.0"/>
      <point x="1475.84" y="1107.44"/>
      <point x="1416.84" y="769.2" type="qcurve" smooth="yes"/>
      <point x="1400.84" y="686.8" type="line" smooth="yes"/>
      <point x="1341.84" y="348.56"/>
      <point x="919.48" y="-30.0"/>
      <point x="640.92" y="-30.0" type="qcurve" smooth="yes"/>
      <point x="362.2" y="-30.0"/>
      <point x="73.0" y="348.56"/>
    </contour>
    <contour>
      <point x="333.28000000000003" y="686.8" type="line" smooth="yes"/>
      <point x="288.28000000000003" y="435.04"/>
      <point x="473.72" y="147.92000000000002"/>
      <point x="669.92" y="147.92000000000002" type="qcurve" smooth="yes"/>
      <point x="864.96" y="147.92000000000002"/>
      <point x="1154.56" y="435.04"/>
      <point x="1199.56" y="686.8" type="qcurve" smooth="yes"/>
      <point x="1215.56" y="769.2" type="line" smooth="yes"/>
      <point x="1260.56" y="1020.96"/>
      <point x="1074.96" y="1308.08"/>
      <point x="878.92" y="1308.08" type="qcurve" smooth="yes"/>
      <point x="683.72" y="1308.08"/>
      <point x="394.28000000000003" y="1020.96"/>
      <point x="349.28000000000003" y="769.2" type="qcurve" smooth="yes"/>
    </contour>
    <contour>
      <point x="1080.8" y="-253.6" type="line"/>
      <point x="773.84" y="30.0" type="line"/>
      <point x="927.72" y="168.20000000000002" type="line"/>
      <point x="1241.0" y="-110.39999999999999" type="line"/>
    </contour>
  </outline>
</glyph>
<glyph name="R" format="2">
  <advance width="1276"/>
  <unicode hex="0052"/>
  <outline>
    <contour>
      <point x="65.0" y="0.0" type="line"/>
      <point x="322.0" y="1456.0" type="line"/>
      <point x="813.0" y="1456.0" type="line" smooth="yes"/>
      <point x="1055.0" y="1456.0"/>
      <point x="1278.0" y="1219.0"/>
      <point x="1243.0" y="1022.0" type="qcurve" smooth="yes"/>
      <point x="1209.0" y="824.0"/>
      <point x="903.0" y="581.0"/>
      <point x="661.0" y="581.0" type="qcurve" smooth="yes"/>
      <point x="369.0" y="581.0" type="line"/>
      <point x="264.0" y="0.0" type="line"/>
    </contour>
    <contour>
      <point x="396.0" y="751.0" type="line"/>
      <point x="689.0" y="751.0" type="line" smooth="yes"/>
      <point x="861.0" y="751.0"/>
      <point x="1024.0" y="909.0"/>
      <point x="1044.0" y="1022.0" type="qcurve" smooth="yes"/>
      <point x="1065.0" y="1134.0"/>
      <point x="958.0" y="1286.0"/>
      <point x="786.0" y="1286.0" type="qcurve" smooth="yes"/>
      <point x="493.0" y="1286.0" type="line"/>
    </contour>
    <contour>
      <point x="922.0" y="0.0" type="line"/>
      <point x="681.0" y="672.0" type="line"/>
      <point x="887.0" y="672.0" type="line"/>
      <point x="1136.0" y="0.0" type="line"/>
    </contour>
  </outline>
</glyph>
<glyph name="S" format="2">
  <advance width="1252"/>
  <unicode hex="0053"/>
  <outline>
    <contour>
      <point x="57.0" y="404.0" type="qcurve" smooth="yes"/>
      <point x="60.0" y="416.0" type="line"/>
      <point x="259.0" y="416.0" type="line"/>
      <point x="257.0" y="404.0" type="line" smooth="yes"/>
      <point x="233.0" y="276.0"/>
      <point x="394.0" y="147.0"/>
      <point x="559.0" y="147.0" type="qcurve" smooth="yes"/>
      <point x="724.0" y="147.0"/>
      <point x="917.0" y="252.0"/>
      <point x="937.0" y="358.0" type="qcurve" smooth="yes"/>
      <point x="954.0" y="454.0"/>
      <point x="826.0" y="604.0"/>
      <point x="588.0" y="668.0" type="qcurve" smooth="yes"/>
      <point x="350.0" y="733.0"/>
      <point x="189.0" y="933.0"/>
      <point x="219.0" y="1106.0" type="qcurve" smooth="yes"/>
      <point x="249.0" y="1279.0"/>
      <point x="549.0" y="1486.0"/>
      <point x="787.0" y="1486.0" type="qcurve" smooth="yes"/>
      <point x="1026.0" y="1486.0"/>
      <point x="1265.0" y="1237.0"/>
      <point x="1232.0" y="1058.0" type="qcurve" smooth="yes"/>
      <point x="1230.0" y="1046.0" type="line"/>
      <point x="1032.0" y="1046.0" type="line"/>
      <point x="1034.0" y="1058.0" type="line" smooth="yes"/>
      <point x="1054.0" y="1171.0"/>
      <point x="918.0" y="1309.0"/>
      <point x="758.0" y="1309.0" type="qcurve" smooth="yes"/>
      <point x="599.0" y="1309.0"/>
      <point x="435.0" y="1215.0"/>
      <point x="417.0" y="1125.0" type="qcurve" smooth="yes"/>
      <point x="400.0" y="1027.0"/>
      <point x="524.0" y="897.0"/>
      <point x="730.0" y="841.0" type="qcurve" smooth="yes"/>
      <point x="971.0" y="776.0"/>
      <point x="1166.0" y="544.0"/>
      <point x="1134.0" y="361.0" type="qcurve" smooth="yes"/>
      <point x="1102.0" y="178.0"/>
      <point x="778.0" y="-30.0"/>
      <point x="530.0" y="-30.0" type="qcurve" smooth="yes"/>
      <point x="282.0" y="-30.0"/>
      <point x="23.0" y="203.0"/>
    </contour>
  </outline>
</glyph>
<glyph name="T" format="2">
  <advance width="1206"/>
  <unicode hex="0054"/>
  <outline>
    <contour>
      <point x="152.0" y="1284.56" type="line"/>
      <point x="180.0" y="1456.0" type="line"/>
      <point x="1339.76" y="1456.0" type="line"/>
      <point x="1311.76" y="1284.56" type="line"/>
      <point x="831.2" y="1284.56" type="line"/>
      <point x="602.2" y="0.0" type="line"/>
      <point x="403.55999999999995" y="0.0" type="line"/>
      <point x="632.56" y="1284.56" type="line"/>
    </contour>
  </outline>
</glyph>
<glyph name="U" format="2">
  <advance width="1391"/>
  <unicode hex="0055"/>
  <outline>
    <contour>
      <point x="136.0" y="492" type="qcurve" smooth="yes"/>
      <point x="307.0" y="1456.0" type="line"/>
      <point x="505.64" y="1456.0" type="line"/>
      <point x="335" y="492" type="line" smooth="yes"/>
      <point x="304" y="318"/>
      <point x="464.2340811455847" y="147.92000000000002"/>
      <point x="618.76" y="147.92000000000002" type="qcurve" smooth="yes"/>
      <point x="774.1075894988066" y="147.92000000000002"/>
      <point x="993.8800000000001" y="317.872380952381"/>
      <point x="1023.8800000000001" y="491.92" type="qcurve" smooth="yes"/>
      <point x="1195" y="1456.0" type="line"/>
      <point x="1394" y="1456.0" type="line"/>
      <point x="1223.52" y="491.92" type="line" smooth="yes"/>
      <point x="1177" y="231"/>
      <point x="828" y="-30"/>
      <point x="589.76" y="-30.0" type="qcurve" smooth="yes"/>
      <point x="366" y="-30"/>
      <point x="92" y="242"/>
    </contour>
  </outline>
</glyph>
<glyph name="V" format="2">
  <advance width="1289"/>
  <unicode hex="0056"/>
  <outline>
    <contour>
      <point x="157.0" y="1456.0" type="line"/>
      <point x="369.64" y="1456.0" type="line"/>
      <point x="566.12" y="391.52000000000004" type="line" smooth="yes"/>
      <point x="573.88" y="355.8"/>
      <point x="586.84" y="286.12"/>
      <point x="590.6" y="250.4" type="qcurve"/>
      <point x="599.92" y="250.4" type="line"/>
      <point x="613.68" y="286.12"/>
      <point x="645.8" y="355.8"/>
      <point x="664.56" y="391.52000000000004" type="qcurve" smooth="yes"/>
      <point x="1245.72" y="1456.0" type="line"/>
      <point x="1446.28" y="1456.0" type="line"/>
      <point x="638.52" y="-8.799999999999999" type="line"/>
      <point x="447.76" y="-8.799999999999999" type="line"/>
    </contour>
  </outline>
</glyph>
<glyph name="W" format="2">
  <advance width="1858"/>
  <unicode hex="0057"/>
  <outline>
    <contour>
      <point x="313.03999999999996" y="-8.799999999999999" type="line"/>
      <point x="205.0" y="1456.0" type="line"/>
      <point x="396" y="1456.0" type="line"/>
      <point x="457.0" y="375.0" type="line" smooth="yes"/>
      <point x="459" y="341"/>
      <point x="461.0" y="290.0"/>
      <point x="461.0" y="257.0" type="qcurve"/>
      <point x="474.0" y="257.0" type="line"/>
      <point x="485.0" y="290.0"/>
      <point x="501" y="341"/>
      <point x="515.0" y="375.0" type="qcurve" smooth="yes"/>
      <point x="969.0" y="1456.0" type="line"/>
      <point x="1183.0" y="1456.0" type="line"/>
      <point x="1266.0" y="375.0" type="line" smooth="yes"/>
      <point x="1269" y="341"/>
      <point x="1271.0" y="290.0"/>
      <point x="1270.0" y="257.0" type="qcurve"/>
      <point x="1283.0" y="257.0" type="line"/>
      <point x="1295.0" y="291.0"/>
      <point x="1311" y="341"/>
      <point x="1325.0" y="375.0" type="qcurve" smooth="yes"/>
      <point x="1759.0" y="1456.0" type="line"/>
      <point x="1965.68" y="1456.0" type="line"/>
      <point x="1340.8" y="-8.799999999999999" type="line"/>
      <point x="1138.16" y="-8.799999999999999" type="line"/>
      <point x="1053.0" y="1066.0" type="line" smooth="yes"/>
      <point x="1050.0" y="1100.0"/>
      <point x="1048.0" y="1161.0"/>
      <point x="1048.0" y="1194.0" type="qcurve"/>
      <point x="1034.0" y="1194.0" type="line"/>
      <point x="1023.0" y="1161.0"/>
      <point x="1000.0" y="1102.0"/>
      <point x="985.0" y="1068.0" type="qcurve" smooth="yes"/>
      <point x="515.0" y="-7.0" type="line"/>
    </contour>
  </outline>
</glyph>
<glyph name="X" format="2">
  <advance width="1258"/>
  <unicode hex="0058"/>
  <outline>
    <contour>
      <point x="-76.0" y="0.0" type="line"/>
      <point x="602.68" y="806.0" type="line"/>
      <point x="624.48" y="806.0" type="line"/>
      <point x="1145.44" y="1456.0" type="line"/>
      <point x="1364.24" y="1456.0" type="line"/>
      <point x="714.84" y="670.0" type="line"/>
      <point x="692.04" y="670.0" type="line"/>
      <point x="142.8" y="0.0" type="line"/>
    </contour>
    <contour>
      <point x="206.28" y="1456.0" type="line"/>
      <point x="437.40000000000003" y="1456.0" type="line"/>
      <point x="728.36" y="806.0" type="line"/>
      <point x="738.84" y="806.0" type="line"/>
      <point x="1132.52" y="0.0" type="line"/>
      <point x="902.4000000000001" y="0.0" type="line"/>
      <point x="588.16" y="670.0" type="line"/>
      <point x="578.68" y="670.0" type="line"/>
    </contour>
  </outline>
</glyph>
<glyph name="Y" format="2">
  <advance width="1258"/>
  <unicode hex="0059"/>
  <outline>
    <contour>
      <point x="429.0" y="0.0" type="line"/>
      <point x="525.0" y="536.0" type="line"/>
      <point x="171.0" y="1456.0" type="line"/>
      <point x="386.0" y="1456.0" type="line"/>
      <point x="606.0" y="848.0" type="line" smooth="yes"/>
      <point x="617" y="818"/>
      <point x="638.0" y="758.0"/>
      <point x="645.0" y="729.0" type="qcurve"/>
      <point x="655.0" y="729.0" type="line"/>
      <point x="671.0" y="758.0"/>
      <point x="708" y="818"/>
      <point x="730.0" y="848.0" type="qcurve" smooth="yes"/>
      <point x="1172.0" y="1456.0" type="line"/>
      <point x="1399.0" y="1456.0" type="line"/>
      <point x="725.0" y="536.0" type="line"/>
      <point x="629.0" y="0.0" type="line"/>
    </contour>
  </outline>
</glyph>
<glyph name="Z" format="2">
  <advance width="1154"/>
  <unicode hex="005A"/>
  <outline>
    <contour>
      <point x="-66.0" y="0.0" type="line"/>
      <point x="-41.0" y="151.04000000000002" type="line"/>
      <point x="970.6" y="1284.56" type="line"/>
      <point x="175.48" y="1284.56" type="line"/>
      <point x="202.48" y="1456.0" type="line"/>
      <point x="1244.84" y="1456.0" type="line"/>
      <point x="1219.84" y="1304.96" type="line"/>
      <point x="208.24" y="171.44" type="line"/>
      <point x="1048.12" y="171.44" type="line"/>
      <point x="1020.1199999999999" y="0.0" type="line"/>
    </contour>
  </outline>
</glyph>
<glyph name="bracketleft" format="2">
  <advance width="641"/>
  <unicode hex="005B"/>
  <outline>
    <contour>
      <point x="-15.0" y="-310.0" type="line"/>
      <point x="296.0" y="1456.0" type="line"/>
      <point x="789.44" y="1456.0" type="line"/>
      <point x="761.44" y="1284.0" type="line"/>
      <point x="460.40000000000003" y="1284.0" type="line"/>
      <point x="205.40000000000003" y="-138.0" type="line"/>
      <point x="506.44000000000005" y="-138.0" type="line"/>
      <point x="478.44000000000005" y="-310.0" type="line"/>
    </contour>
  </outline>
</glyph>
<glyph name="backslash" format="2">
  <advance width="605"/>
  <unicode hex="005C"/>
  <outline>
    <contour>
      <point x="60.0" y="1456.0" type="line"/>
      <point x="238.96" y="1456.0" type="line"/>
      <point x="580.36" y="-125.0" type="line"/>
      <point x="401.24" y="-125.0" type="line"/>
    </contour>
  </outline>
</glyph>
<glyph name="bracketright" format="2">
  <advance width="641"/>
  <unicode hex="005D"/>
  <outline>
    <contour>
      <point x="347.4" y="-310.0" type="line"/>
      <point x="-146.04" y="-310.0" type="line"/>
      <point x="-118.03999999999999" y="-138.0" type="line"/>
      <point x="183.0" y="-138.0" type="line"/>
      <point x="438.0" y="1284.0" type="line"/>
      <point x="136.96" y="1284.0" type="line"/>
      <point x="164.96" y="1456.0" type="line"/>
      <point x="658.4" y="1456.0" type="line"/>
    </contour>
  </outline>
</glyph>
<glyph name="asciicircum" format="2">
  <advance width="1196"/>
  <unicode hex="005E"/>
  <outline>
    <contour>
      <point x="51.0" y="720.0" type="line"/>
      <point x="664.4" y="1456.0" type="line"/>
      <point x="845.4" y="1456.0" type="line"/>
      <point x="1198.8" y="720.0" type="line"/>
      <point x="988.8" y="720.0" type="line"/>
      <point x="725.4" y="1276.96" type="line"/>
      <point x="261.0" y="720.0" type="line"/>
    </contour>
  </outline>
</glyph>
<glyph name="underscore" format="2">
  <advance width="993"/>
  <unicode hex="005F"/>
  <outline>
    <contour>
      <point x="-173.0" y="-416.0" type="line"/>
      <point x="-143.0" y="-244.0" type="line"/>
      <point x="850.0" y="-244.0" type="line"/>
      <point x="820.0" y="-416.0" type="line"/>
    </contour>
  </outline>
</glyph>
<glyph name="grave" format="2">
  <advance width="1005"/>
  <unicode hex="0060"/>
  <outline>
    <contour>
      <point x="682.0" y="1201.0" type="line"/>
      <point x="432.0" y="1485.0" type="line"/>
      <point x="607.0" y="1622.0" type="line"/>
      <point x="805.0" y="1287.0" type="line"/>
    </contour>
  </outline>
</glyph>
<glyph name="a" format="2">
  <advance width="1153"/>
  <unicode hex="0061"/>
  <outline>
    <contour>
      <point x="43.0" y="329" type="qcurve" smooth="yes"/>
      <point x="72" y="495"/>
      <point x="370" y="671"/>
      <point x="576" y="671" type="qcurve" smooth="yes"/>
      <point x="832" y="671" type="line"/>
      <point x="845" y="757" type="line" smooth="yes"/>
      <point x="861" y="847"/>
      <point x="776" y="960"/>
      <point x="647" y="960" type="qcurve" smooth="yes"/>
      <point x="518" y="960"/>
      <point x="390" y="859"/>
      <point x="379" y="792" type="qcurve" smooth="yes"/>
      <point x="378" y="787" type="line"/>
      <point x="185" y="787" type="line"/>
      <point x="186" y="792" type="line" smooth="yes"/>
      <point x="208" y="923"/>
      <point x="478" y="1119"/>
      <point x="679" y="1119" type="qcurve" smooth="yes"/>
      <point x="879" y="1119"/>
      <point x="1069" y="937"/>
      <point x="1037" y="757" type="qcurve" smooth="yes"/>
      <point x="952" y="240.0" type="line" smooth="yes"/>
      <point x="941" y="175.0"/>
      <point x="941" y="60.0"/>
      <point x="952" y="16.0" type="qcurve"/>
      <point x="949" y="0.0" type="line"/>
      <point x="762" y="0.0" type="line"/>
      <point x="752" y="26"/>
      <point x="743" y="110"/>
      <point x="747" y="151" type="qcurve"/>
      <point x="696" y="84"/>
      <point x="501" y="-20"/>
      <point x="361" y="-20.0" type="qcurve" smooth="yes"/>
      <point x="214.0" y="-20"/>
      <point x="15.0" y="171"/>
    </contour>
    <contour>
      <point x="237" y="339" type="qcurve" smooth="yes"/>
      <point x="221.0" y="242"/>
      <point x="311.0" y="139.0"/>
      <point x="432" y="139" type="qcurve" smooth="yes"/>
      <point x="550" y="139"/>
      <point x="767" y="292"/>
      <point x="782" y="377" type="qcurve"/>
      <point x="809" y="528" type="line"/>
      <point x="573" y="528" type="line" smooth="yes"/>
      <point x="424" y="528"/>
      <point x="252" y="430"/>
    </contour>
  </outline>
</glyph>
<glyph name="b" format="2">
  <advance width="1214"/>
  <unicode hex="0062"/>
  <outline>
    <contour>
      <point x="44.0" y="0.0" type="line"/>
      <point x="314.0" y="1536.0" type="line"/>
      <point x="507.32" y="1536.0" type="line"/>
      <point x="400.32" y="960.32" type="line"/>
      <point x="461.1736247237443" y="1027.688143097972"/>
      <point x="640.8385815602837" y="1109.12"/>
      <point x="759.16" y="1109.12" type="qcurve" smooth="yes"/>
      <point x="969.08" y="1109.12"/>
      <point x="1168.04" y="798.5154179566564"/>
      <point x="1127.04" y="560.56" type="qcurve" smooth="yes"/>
      <point x="1121.04" y="528.56" type="line" smooth="yes"/>
      <point x="1081.04" y="290.5056603773585"/>
      <point x="776.08" y="-20.0"/>
      <point x="566.16" y="-20.0" type="qcurve" smooth="yes"/>
      <point x="447.8829906542056" y="-20.0"/>
      <point x="288.1959667921092" y="74.63997054042184"/>
      <point x="256.16" y="141.8" type="qcurve"/>
      <point x="250.96000000000004" y="141.8" type="line"/>
      <point x="219.48000000000002" y="0.0" type="line"/>
    </contour>
    <contour>
      <point x="291.32" y="330.96000000000004" type="line"/>
      <point x="312.2836430362707" y="258.83387307536293"/>
      <point x="442.00899728997285" y="146.16000000000003"/>
      <point x="548.72" y="146.16000000000003" type="qcurve" smooth="yes"/>
      <point x="708.9932994923857" y="146.16000000000003"/>
      <point x="896.24" y="366.70391534391536"/>
      <point x="924.24" y="528.56" type="qcurve" smooth="yes"/>
      <point x="930.24" y="560.56" type="line" smooth="yes"/>
      <point x="958.24" y="722.3876923076923"/>
      <point x="847.9932994923857" y="942.96"/>
      <point x="687.72" y="942.96" type="qcurve" smooth="yes"/>
      <point x="581.0089972899729" y="942.96"/>
      <point x="412.2691192769023" y="830.2617006020629"/>
      <point x="366.32" y="758.16" type="qcurve"/>
    </contour>
  </outline>
</glyph>
<glyph name="c" format="2">
  <advance width="1080"/>
  <unicode hex="0063"/>
  <outline>
    <contour>
      <point x="72.0" y="528.56" type="qcurve" smooth="yes"/>
      <point x="78.0" y="560.56" type="line" smooth="yes"/>
      <point x="120.0" y="806.7034146341464"/>
      <point x="445.68" y="1119.12"/>
      <point x="685.8" y="1119.12" type="qcurve" smooth="yes"/>
      <point x="907.28" y="1119.12"/>
      <point x="1098.24" y="885.3578294573643"/>
      <point x="1073.24" y="740.92" type="qcurve" smooth="yes"/>
      <point x="1072.24" y="735.92" type="line"/>
      <point x="885.4399999999999" y="735.92" type="line"/>
      <point x="886.4399999999999" y="740.92" type="line" smooth="yes"/>
      <point x="900.4399999999999" y="825.2678260869565"/>
      <point x="797.7823145400594" y="954.16"/>
      <point x="658.8" y="954.16" type="qcurve" smooth="yes"/>
      <point x="496.41151364764266" y="954.16"/>
      <point x="303.8" y="725.9884797905416"/>
      <point x="274.8" y="560.56" type="qcurve" smooth="yes"/>
      <point x="269.8" y="528.56" type="line" smooth="yes"/>
      <point x="240.8" y="363.2074226804124"/>
      <point x="354.41151364764266" y="134.96"/>
      <point x="515.8" y="134.96" type="qcurve" smooth="yes"/>
      <point x="654.7823145400594" y="134.96"/>
      <point x="804.4399999999999" y="263.8521739130435"/>
      <point x="819.4399999999999" y="348.2" type="qcurve" smooth="yes"/>
      <point x="820.4399999999999" y="353.2" type="line"/>
      <point x="1007.24" y="353.2" type="line"/>
      <point x="1006.24" y="348.2" type="line" smooth="yes"/>
      <point x="982.24" y="203.76217054263566"/>
      <point x="711.28" y="-30.0"/>
      <point x="489.79999999999995" y="-30.0" type="qcurve" smooth="yes"/>
      <point x="249.68" y="-30.0"/>
      <point x="30.0" y="282.37985185185187"/>
    </contour>
  </outline>
</glyph>
<glyph name="d" format="2">
  <advance width="1214"/>
  <unicode hex="0064"/>
  <outline>
    <contour>
      <point x="72.0" y="528.56" type="qcurve" smooth="yes"/>
      <point x="78.0" y="560.56" type="line" smooth="yes"/>
      <point x="119.0" y="798.5154179566564"/>
      <point x="422.96" y="1109.12"/>
      <point x="632.88" y="1109.12" type="qcurve" smooth="yes"/>
      <point x="751.24" y="1109.12"/>
      <point x="902.92" y="1027.76"/>
      <point x="941.72" y="960.32" type="qcurve"/>
      <point x="1048.72" y="1536.0" type="line"/>
      <point x="1241.04" y="1536.0" type="line"/>
      <point x="970.04" y="0.0" type="line"/>
      <point x="794.56" y="0.0" type="line"/>
      <point x="811.0799999999999" y="141.8" type="line"/>
      <point x="805.88" y="141.8" type="line"/>
      <point x="751.8" y="74.64"/>
      <point x="558.08" y="-20.0"/>
      <point x="440.88" y="-20.0" type="qcurve" smooth="yes"/>
      <point x="230.95999999999998" y="-20.0"/>
      <point x="32.0" y="290.5056603773585"/>
    </contour>
    <contour>
      <point x="269.8" y="528.56" type="line" smooth="yes"/>
      <point x="240.8" y="366.70391534391536"/>
      <point x="352.08" y="146.16000000000003"/>
      <point x="511.31999999999994" y="146.16000000000003" type="qcurve" smooth="yes"/>
      <point x="618.08" y="146.16000000000003"/>
      <point x="787.68" y="258.88"/>
      <point x="832.72" y="330.96000000000004" type="qcurve"/>
      <point x="907.72" y="758.16" type="line"/>
      <point x="887.84" y="830.24"/>
      <point x="757.08" y="942.96"/>
      <point x="650.3199999999999" y="942.96" type="qcurve" smooth="yes"/>
      <point x="491.08" y="942.96"/>
      <point x="303.8" y="722.3876923076923"/>
      <point x="274.8" y="560.56" type="qcurve" smooth="yes"/>
    </contour>
  </outline>
</glyph>
<glyph name="e" format="2">
  <advance width="1107"/>
  <unicode hex="0065"/>
  <outline>
    <contour>
      <point x="72.0" y="528.56" type="qcurve" smooth="yes"/>
      <point x="78.0" y="560.56" type="line" smooth="yes"/>
      <point x="120.0" y="806.7034146341464"/>
      <point x="447.68" y="1119.12"/>
      <point x="674.36" y="1119.12" type="qcurve" smooth="yes"/>
      <point x="901.6" y="1119.12"/>
      <point x="1096.12" y="826.9963636363636"/>
      <point x="1054.12" y="578.56" type="qcurve" smooth="yes"/>
      <point x="1040.12" y="495.12" type="line"/>
      <point x="186.96" y="495.12" type="line"/>
      <point x="212.96" y="654.16" type="line"/>
      <point x="870.92" y="654.16" type="line"/>
      <point x="874.92" y="650.56" type="line" smooth="yes"/>
      <point x="894.92" y="781.5400966183574"/>
      <point x="797.8939428571429" y="955.36"/>
      <point x="647.36" y="955.36" type="qcurve" smooth="yes"/>
      <point x="497.65511568123395" y="955.36"/>
      <point x="302.2" y="726.5130158730159"/>
      <point x="273.2" y="560.56" type="qcurve" smooth="yes"/>
      <point x="268.2" y="528.56" type="line" smooth="yes"/>
      <point x="239.2" y="362.68288659793814"/>
      <point x="363.8641860465116" y="133.76000000000002"/>
      <point x="536.12" y="133.76000000000002" type="qcurve" smooth="yes"/>
      <point x="641.8762340966921" y="133.76000000000002"/>
      <point x="810.28" y="222.08"/>
      <point x="867.4" y="282.8" type="qcurve"/>
      <point x="975.24" y="175.0" type="line"/>
      <point x="909.96" y="99.28"/>
      <point x="666.28" y="-30.0"/>
      <point x="509.12" y="-30.0" type="qcurve" smooth="yes"/>
      <point x="251.27999999999997" y="-30.0"/>
      <point x="30.0" y="282.37985185185187"/>
    </contour>
  </outline>
</glyph>
<glyph name="f" format="2">
  <advance width="628"/>
  <unicode hex="0066"/>
  <outline>
    <contour>
      <point x="105.19999999999999" y="0.0" type="line"/>
      <point x="317.2" y="1181.6" type="line" smooth="yes"/>
      <point x="347.2" y="1364.6080898876405"/>
      <point x="578.8879002079002" y="1556.0"/>
      <point x="750.56" y="1556.0" type="qcurve" smooth="yes"/>
      <point x="783.48" y="1556.0"/>
      <point x="850.16" y="1548.0"/>
      <point x="878.92" y="1540.0" type="qcurve"/>
      <point x="842.28" y="1377.52" type="line"/>
      <point x="820.16" y="1381.52"/>
      <point x="770.28" y="1387.52"/>
      <point x="743.68" y="1387.52" type="qcurve" smooth="yes"/>
      <point x="647.9573333333333" y="1387.52"/>
      <point x="527.52" y="1284.56"/>
      <point x="509.52" y="1181.6" type="qcurve" smooth="yes"/>
      <point x="472.52" y="1022.04" type="line"/>
      <point x="469.52" y="1000.04" type="line"/>
      <point x="298.52" y="0.0" type="line"/>
    </contour>
    <contour>
      <point x="85.0" y="932.96" type="line"/>
      <point x="110.0" y="1089.12" type="line"/>
      <point x="363.44" y="1089.12" type="line"/>
      <point x="410.64" y="1089.12" type="line"/>
      <point x="723.08" y="1089.12" type="line"/>
      <point x="698.08" y="932.96" type="line"/>
    </contour>
  </outline>
</glyph>
<glyph name="g" format="2">
  <advance width="1214"/>
  <unicode hex="0067"/>
  <outline>
    <contour>
      <point x="-24.560000000000002" y="-284.0" type="qcurve"/>
      <point x="111.28" y="-132.0" type="line"/>
      <point x="150.56" y="-183.92"/>
      <point x="310.6" y="-262.24"/>
      <point x="418.96000000000004" y="-262.24" type="qcurve" smooth="yes"/>
      <point x="563.0064810126582" y="-262.24"/>
      <point x="756.72" y="-109.32"/>
      <point x="780.72" y="29.60000000000001" type="qcurve" smooth="yes"/>
      <point x="799.72" y="128.8" type="line"/>
      <point x="738.92" y="61.36"/>
      <point x="558.24" y="-20.0"/>
      <point x="440.88" y="-20.0" type="qcurve" smooth="yes"/>
      <point x="230.95999999999998" y="-20.0"/>
      <point x="32.0" y="290.5056603773585"/>
      <point x="72.0" y="528.56" type="qcurve" smooth="yes"/>
      <point x="78.0" y="560.56" type="line" smooth="yes"/>
      <point x="119.0" y="798.5154179566564"/>
      <point x="422.96" y="1109.12"/>
      <point x="632.88" y="1109.12" type="qcurve" smooth="yes"/>
      <point x="751.08" y="1109.12"/>
      <point x="911.8" y="1014.48"/>
      <point x="942.88" y="947.32" type="qcurve"/>
      <point x="948.0799999999999" y="947.32" type="line"/>
      <point x="980.56" y="1089.12" type="line"/>
      <point x="1156.04" y="1089.12" type="line"/>
      <point x="974.04" y="29.60000000000001" type="line" smooth="yes"/>
      <point x="935.04" y="-195.07999999999998"/>
      <point x="617.12" y="-436.0"/>
      <point x="396.52" y="-436.0" type="qcurve" smooth="yes"/>
      <point x="259.96" y="-436.0"/>
      <point x="42.879999999999995" y="-349.76"/>
    </contour>
    <contour>
      <point x="269.8" y="528.56" type="line" smooth="yes"/>
      <point x="240.8" y="366.70391534391536"/>
      <point x="352.08" y="146.16000000000003"/>
      <point x="511.31999999999994" y="146.16000000000003" type="qcurve" smooth="yes"/>
      <point x="618.08" y="146.16000000000003"/>
      <point x="787.84" y="258.88"/>
      <point x="832.72" y="330.96000000000004" type="qcurve"/>
      <point x="907.72" y="758.16" type="line"/>
      <point x="887.68" y="830.24"/>
      <point x="757.08" y="942.96"/>
      <point x="650.3199999999999" y="942.96" type="qcurve" smooth="yes"/>
      <point x="491.08" y="942.96"/>
      <point x="303.8" y="722.3876923076923"/>
      <point x="274.8" y="560.56" type="qcurve" smooth="yes"/>
    </contour>
  </outline>
</glyph>
<glyph name="h" format="2">
  <advance width="1178"/>
  <unicode hex="0068"/>
  <outline>
    <contour>
      <point x="44.0" y="0.0" type="line"/>
      <point x="314.0" y="1536.0" type="line"/>
      <point x="507.32" y="1536.0" type="line"/>
      <point x="399.32" y="948.12" type="line"/>
      <point x="472.36" y="1024.16"/>
      <point x="658.4" y="1109.12"/>
      <point x="765.48" y="1109.12" type="qcurve" smooth="yes"/>
      <point x="933.92" y="1109.12"/>
      <point x="1100.76" y="914.52"/>
      <point x="1063.76" y="686.44" type="qcurve" smooth="yes"/>
      <point x="943.76" y="0.0" type="line"/>
      <point x="751.4399999999999" y="0.0" type="line"/>
      <point x="871.4399999999999" y="688.44" type="line" smooth="yes"/>
      <point x="893.4399999999999" y="823.08"/>
      <point x="790.28" y="939.4399999999999"/>
      <point x="679.24" y="939.4399999999999" type="qcurve" smooth="yes"/>
      <point x="583.44" y="939.4399999999999"/>
      <point x="422.28000000000003" y="837.84"/>
      <point x="367.32" y="757.84" type="qcurve"/>
      <point x="236.32" y="0.0" type="line"/>
    </contour>
  </outline>
</glyph>
<glyph name="i" format="2">
  <advance width="497"/>
  <unicode hex="0069"/>
  <outline>
    <contour>
      <point x="52.0" y="0.0" type="line"/>
      <point x="238.0" y="1089.12" type="line"/>
      <point x="430.32" y="1089.12" type="line"/>
      <point x="245.32" y="0.0" type="line"/>
    </contour>
    <contour>
      <point x="276.08" y="1398.72" type="qcurve" smooth="yes"/>
      <point x="284.08" y="1447.32"/>
      <point x="354.24" y="1513.12"/>
      <point x="410.16" y="1513.12" type="qcurve" smooth="yes"/>
      <point x="465.08" y="1513.12"/>
      <point x="513.24" y="1447.32"/>
      <point x="505.24" y="1398.72" type="qcurve" smooth="yes"/>
      <point x="496.24" y="1350.12"/>
      <point x="426.08" y="1284.32"/>
      <point x="370.16" y="1284.32" type="qcurve" smooth="yes"/>
      <point x="315.24" y="1284.32"/>
      <point x="267.08" y="1350.12"/>
    </contour>
  </outline>
</glyph>
<glyph name="j" format="2">
  <advance width="497"/>
  <unicode hex="006A"/>
  <outline>
    <contour>
      <point x="-282.68" y="-410.0" type="qcurve"/>
      <point x="-256.68" y="-247.51999999999998" type="line"/>
      <point x="-237.56" y="-253.51999999999998"/>
      <point x="-163.23999999999998" y="-267.52"/>
      <point x="-132.48" y="-267.52" type="qcurve" smooth="yes"/>
      <point x="-68.56" y="-267.52"/>
      <point x="15.0" y="-197.51999999999998"/>
      <point x="29.0" y="-117.51999999999998" type="qcurve" smooth="yes"/>
      <point x="238.0" y="1089.12" type="line"/>
      <point x="430.32" y="1089.12" type="line"/>
      <point x="229.32" y="-90.0" type="line" smooth="yes"/>
      <point x="197.32" y="-270.0"/>
      <point x="20.21311475409837" y="-436.0"/>
      <point x="-122.44" y="-436.0" type="qcurve" smooth="yes"/>
      <point x="-164.390243902439" y="-436.0"/>
      <point x="-259.7031905522824" y="-418.9372072527178"/>
    </contour>
    <contour>
      <point x="276.0" y="1399" type="qcurve" smooth="yes"/>
      <point x="279" y="1447"/>
      <point x="342" y="1513"/>
      <point x="398" y="1513" type="qcurve" smooth="yes"/>
      <point x="453" y="1513"/>
      <point x="508" y="1447"/>
      <point x="505.0" y="1399" type="qcurve" smooth="yes"/>
      <point x="501" y="1350"/>
      <point x="438" y="1284"/>
      <point x="382" y="1284" type="qcurve" smooth="yes"/>
      <point x="327" y="1284"/>
      <point x="272" y="1350"/>
    </contour>
  </outline>
</glyph>
<glyph name="k" format="2">
  <advance width="1069"/>
  <unicode hex="006B"/>
  <outline>
    <contour>
      <point x="44.0" y="0.0" type="line"/>
      <point x="314.0" y="1536.0" type="line"/>
      <point x="507.0" y="1536.0" type="line"/>
      <point x="338.0" y="604.0" type="line"/>
      <point x="874.0" y="1089.0" type="line"/>
      <point x="1115.0" y="1089.0" type="line"/>
      <point x="296.0" y="367.0" type="line"/>
      <point x="236.0" y="0.0" type="line"/>
    </contour>
    <contour>
      <point x="765.0" y="0.0" type="line"/>
      <point x="439.0" y="561.0" type="line"/>
      <point x="566" y="705" type="line"/>
      <point x="980.0" y="0.0" type="line"/>
    </contour>
  </outline>
</glyph>
<glyph name="l" format="2">
  <advance width="496"/>
  <unicode hex="006C"/>
  <outline>
    <contour>
      <point x="51.0" y="0.0" type="line"/>
      <point x="322.0" y="1536.0" type="line"/>
      <point x="515.3199999999999" y="1536.0" type="line"/>
      <point x="244.32" y="0.0" type="line"/>
    </contour>
  </outline>
</glyph>
<glyph name="m" format="2">
  <advance width="1847"/>
  <unicode hex="006D"/>
  <outline>
    <contour>
      <point x="44.0" y="0.0" type="line"/>
      <point x="229.0" y="1089.12" type="line"/>
      <point x="404.48" y="1089.12" type="line"/>
      <point x="388.96000000000004" y="944.52" type="line"/>
      <point x="394.16" y="944.52" type="line"/>
      <point x="468.12" y="1022.56"/>
      <point x="652.4" y="1109.12"/>
      <point x="756.48" y="1109.12" type="qcurve" smooth="yes"/>
      <point x="868.28" y="1109.12"/>
      <point x="1015.24" y="1020.08"/>
      <point x="1040.12" y="922.64" type="qcurve"/>
      <point x="1045.32" y="922.64" type="line"/>
      <point x="1132.781775493821" y="1021.7038013017359"/>
      <point x="1322.5955555555556" y="1109.12"/>
      <point x="1434.12" y="1109.12" type="qcurve" smooth="yes"/>
      <point x="1605.6220689655172" y="1109.12"/>
      <point x="1769.2" y="914.4"/>
      <point x="1732.2" y="686.44" type="qcurve" smooth="yes"/>
      <point x="1612.2" y="0.0" type="line"/>
      <point x="1419.8799999999999" y="0.0" type="line"/>
      <point x="1539.8799999999999" y="688.44" type="line" smooth="yes"/>
      <point x="1561.4" y="823.08"/>
      <point x="1464.72" y="939.4399999999999"/>
      <point x="1357.68" y="939.4399999999999" type="qcurve" smooth="yes"/>
      <point x="1264.88" y="939.4399999999999"/>
      <point x="1110.56" y="837.68"/>
      <point x="1055.76" y="757.84" type="qcurve"/>
      <point x="924.76" y="0.0" type="line"/>
      <point x="731.4399999999999" y="0.0" type="line"/>
      <point x="851.4399999999999" y="688.44" type="line" smooth="yes"/>
      <point x="872.96" y="823.08"/>
      <point x="776.28" y="939.4399999999999"/>
      <point x="669.24" y="939.4399999999999" type="qcurve" smooth="yes"/>
      <point x="576.44" y="939.4399999999999"/>
      <point x="422.12" y="837.68"/>
      <point x="367.32" y="757.84" type="qcurve"/>
      <point x="236.32" y="0.0" type="line"/>
    </contour>
  </outline>
</glyph>
<glyph name="n" format="2">
  <advance width="1178"/>
  <unicode hex="006E"/>
  <outline>
    <contour>
      <point x="44.0" y="0.0" type="line"/>
      <point x="229.0" y="1089.12" type="line"/>
      <point x="404.48" y="1089.12" type="line"/>
      <point x="388.96000000000004" y="944.52" type="line"/>
      <point x="394.16" y="944.52" type="line"/>
      <point x="469.12" y="1023.56"/>
      <point x="658.4237986270023" y="1109.12"/>
      <point x="765.48" y="1109.12" type="qcurve" smooth="yes"/>
      <point x="933.92" y="1109.12"/>
      <point x="1100.76" y="914.5110432569975"/>
      <point x="1063.76" y="686.44" type="qcurve" smooth="yes"/>
      <point x="943.76" y="0.0" type="line"/>
      <point x="751.4399999999999" y="0.0" type="line"/>
      <point x="871.4399999999999" y="688.44" type="line" smooth="yes"/>
      <point x="893.4399999999999" y="823.0187234042553"/>
      <point x="790.2837966101695" y="939.4399999999999"/>
      <point x="679.24" y="939.4399999999999" type="qcurve" smooth="yes"/>
      <point x="583.4967597765364" y="939.4399999999999"/>
      <point x="422.23401587143604" y="837.8711870106604"/>
      <point x="367.32" y="757.84" type="qcurve"/>
      <point x="236.32" y="0.0" type="line"/>
    </contour>
  </outline>
</glyph>
<glyph name="o" format="2">
  <advance width="1210"/>
  <unicode hex="006F"/>
  <outline>
    <contour>
      <point x="72.0" y="528.56" type="qcurve" smooth="yes"/>
      <point x="78.0" y="560.56" type="line" smooth="yes"/>
      <point x="120.0" y="806.7034146341464"/>
      <point x="457.64" y="1119.12"/>
      <point x="695.44" y="1119.12" type="qcurve" smooth="yes"/>
      <point x="934.24" y="1119.12"/>
      <point x="1164.88" y="806.7034146341464"/>
      <point x="1122.88" y="560.56" type="qcurve" smooth="yes"/>
      <point x="1117.88" y="528.56" type="line" smooth="yes"/>
      <point x="1075.88" y="282.37985185185187"/>
      <point x="738.24" y="-30.0"/>
      <point x="499.44000000000005" y="-30.0" type="qcurve" smooth="yes"/>
      <point x="261.64" y="-30.0"/>
      <point x="30.0" y="282.37985185185187"/>
    </contour>
    <contour>
      <point x="274.8" y="560.56" type="qcurve" smooth="yes"/>
      <point x="269.8" y="528.56" type="line" smooth="yes"/>
      <point x="240.8" y="363.7628865979382"/>
      <point x="365.36" y="136.16000000000003"/>
      <point x="526.44" y="136.16000000000003" type="qcurve" smooth="yes"/>
      <point x="688.52" y="136.16000000000003"/>
      <point x="892.0799999999999" y="363.7628865979382"/>
      <point x="920.0799999999999" y="528.56" type="qcurve" smooth="yes"/>
      <point x="926.0799999999999" y="560.56" type="line" smooth="yes"/>
      <point x="955.0799999999999" y="725.4330158730158"/>
      <point x="830.52" y="952.96"/>
      <point x="669.44" y="952.96" type="qcurve" smooth="yes"/>
      <point x="507.36" y="952.96"/>
      <point x="303.8" y="725.4330158730158"/>
    </contour>
  </outline>
</glyph>
<glyph name="p" format="2">
  <advance width="1214"/>
  <unicode hex="0070"/>
  <outline>
    <contour>
      <point x="-30.0" y="-416.0" type="line"/>
      <point x="229.0" y="1089.12" type="line"/>
      <point x="404.48" y="1089.12" type="line"/>
      <point x="388.96000000000004" y="947.32" type="line"/>
      <point x="393.16" y="947.32" type="line"/>
      <point x="448.24" y="1014.48"/>
      <point x="640.96" y="1109.12"/>
      <point x="759.16" y="1109.12" type="qcurve" smooth="yes"/>
      <point x="969.08" y="1109.12"/>
      <point x="1168.04" y="798.5154179566564"/>
      <point x="1127.04" y="560.56" type="qcurve" smooth="yes"/>
      <point x="1121.04" y="528.56" type="line" smooth="yes"/>
      <point x="1081.04" y="290.5056603773585"/>
      <point x="776.08" y="-20.0"/>
      <point x="566.16" y="-20.0" type="qcurve" smooth="yes"/>
      <point x="447.79999999999995" y="-20.0"/>
      <point x="296.12" y="61.36"/>
      <point x="258.32" y="128.8" type="qcurve"/>
      <point x="163.32" y="-416.0" type="line"/>
    </contour>
    <contour>
      <point x="291.32" y="330.96000000000004" type="line"/>
      <point x="312.2" y="258.88"/>
      <point x="441.96000000000004" y="146.16000000000003"/>
      <point x="548.72" y="146.16000000000003" type="qcurve" smooth="yes"/>
      <point x="708.96" y="146.16000000000003"/>
      <point x="896.24" y="366.70391534391536"/>
      <point x="924.24" y="528.56" type="qcurve" smooth="yes"/>
      <point x="930.24" y="560.56" type="line" smooth="yes"/>
      <point x="958.24" y="722.3876923076923"/>
      <point x="847.96" y="942.96"/>
      <point x="687.72" y="942.96" type="qcurve" smooth="yes"/>
      <point x="580.96" y="942.96"/>
      <point x="412.36" y="830.24"/>
      <point x="366.32" y="758.16" type="qcurve"/>
    </contour>
  </outline>
</glyph>
<glyph name="q" format="2">
  <advance width="1214"/>
  <unicode hex="0071"/>
  <outline>
    <contour>
      <point x="72.0" y="529.0" type="qcurve" smooth="yes"/>
      <point x="78.0" y="561.0" type="line" smooth="yes"/>
      <point x="119.0" y="799.0"/>
      <point x="423.0" y="1109.0"/>
      <point x="633.0" y="1109.0" type="qcurve" smooth="yes"/>
      <point x="751.0" y="1109.0"/>
      <point x="912.0" y="1014.0"/>
      <point x="943.0" y="947.0" type="qcurve"/>
      <point x="948.0" y="947.0" type="line"/>
      <point x="981.0" y="1089.0" type="line"/>
      <point x="1156.0" y="1089.0" type="line"/>
      <point x="897.0" y="-416.0" type="line"/>
      <point x="705.0" y="-416.0" type="line"/>
      <point x="800.0" y="129.0" type="line"/>
      <point x="800.0" y="129.0" type="line"/>
      <point x="739.0" y="61.0"/>
      <point x="558.0" y="-20.0"/>
      <point x="441.0" y="-20.0" type="qcurve" smooth="yes"/>
      <point x="231.0" y="-20.0"/>
      <point x="32.0" y="291.0"/>
    </contour>
    <contour>
      <point x="269.8" y="528.56" type="line" smooth="yes"/>
      <point x="240.8" y="366.70391534391536"/>
      <point x="352.08" y="146.16000000000003"/>
      <point x="511.31999999999994" y="146.16000000000003" type="qcurve" smooth="yes"/>
      <point x="618.08" y="146.16000000000003"/>
      <point x="787.84" y="258.88"/>
      <point x="832.72" y="330.96000000000004" type="qcurve"/>
      <point x="907.72" y="758.16" type="line"/>
      <point x="887.68" y="830.24"/>
      <point x="757.08" y="942.96"/>
      <point x="650.3199999999999" y="942.96" type="qcurve" smooth="yes"/>
      <point x="491.08" y="942.96"/>
      <point x="303.8" y="722.3876923076923"/>
      <point x="274.8" y="560.56" type="qcurve" smooth="yes"/>
    </contour>
  </outline>
</glyph>
<glyph name="r" format="2">
  <advance width="721"/>
  <unicode hex="0072"/>
  <outline>
    <contour>
      <point x="44.0" y="0.0" type="line"/>
      <point x="229.0" y="1089.12" type="line"/>
      <point x="404.48" y="1089.12" type="line"/>
      <point x="388.96000000000004" y="947.72" type="line"/>
      <point x="394.16" y="947.72" type="line"/>
      <point x="448.3894498383317" y="1016.1719127331302"/>
      <point x="604.9350708215297" y="1119.12"/>
      <point x="700.76" y="1119.12" type="qcurve" smooth="yes"/>
      <point x="723.04" y="1119.12"/>
      <point x="770.76" y="1109.12"/>
      <point x="780.4" y="1105.12" type="qcurve"/>
      <point x="750.4" y="916.08" type="line"/>
      <point x="730.28" y="920.08"/>
      <point x="685.72" y="924.08"/>
      <point x="659.28" y="924.08" type="qcurve" smooth="yes"/>
      <point x="563.064" y="924.08"/>
      <point x="411.6545667948112" y="826.4790219259542"/>
      <point x="366.32" y="753.68" type="qcurve"/>
      <point x="236.32" y="0.0" type="line"/>
    </contour>
  </outline>
</glyph>
<glyph name="s" format="2">
  <advance width="1054"/>
  <unicode hex="0073"/>
  <outline>
    <contour>
      <point x="32.0" y="320.0" type="line"/>
      <point x="225.0" y="320.0" type="line"/>
      <point x="224.0" y="315.0" type="line" smooth="yes"/>
      <point x="208.0" y="224.0"/>
      <point x="336.0" y="129.0"/>
      <point x="453.0" y="129.0" type="qcurve" smooth="yes"/>
      <point x="571.0" y="129.0"/>
      <point x="714.0" y="199.0"/>
      <point x="726.0" y="269.0" type="qcurve" smooth="yes"/>
      <point x="738.0" y="341.0"/>
      <point x="655" y="433"/>
      <point x="477.0" y="481.0" type="qcurve" smooth="yes"/>
      <point x="304.0" y="528.0"/>
      <point x="136.0" y="696.0"/>
      <point x="157.0" y="826.0" type="qcurve" smooth="yes"/>
      <point x="179" y="961"/>
      <point x="432.0" y="1119.0"/>
      <point x="623.0" y="1119.0" type="qcurve" smooth="yes"/>
      <point x="817.0" y="1119.0"/>
      <point x="1016.0" y="936.0"/>
      <point x="990.0" y="787.0" type="qcurve" smooth="yes"/>
      <point x="989.0" y="782.0" type="line"/>
      <point x="798.0" y="782.0" type="line"/>
      <point x="799.0" y="787.0" type="line" smooth="yes"/>
      <point x="812.0" y="867.0"/>
      <point x="715.0" y="961.0"/>
      <point x="596.0" y="961.0" type="qcurve" smooth="yes"/>
      <point x="477.0" y="961.0"/>
      <point x="361.0" y="897.0"/>
      <point x="351.0" y="837.0" type="qcurve" smooth="yes"/>
      <point x="340.0" y="775.0"/>
      <point x="434.0" y="688.0"/>
      <point x="608.0" y="641.0" type="qcurve" smooth="yes"/>
      <point x="785" y="593"/>
      <point x="945.0" y="420.0"/>
      <point x="921.0" y="280.0" type="qcurve" smooth="yes"/>
      <point x="896" y="135"/>
      <point x="648.0" y="-30.0"/>
      <point x="426.0" y="-30.0" type="qcurve" smooth="yes"/>
      <point x="205.0" y="-30.0"/>
      <point x="5.0" y="159.0"/>
      <point x="31.0" y="315.0" type="qcurve" smooth="yes"/>
    </contour>
  </outline>
</glyph>
<glyph name="t" format="2">
  <advance width="678"/>
  <unicode hex="0074"/>
  <outline>
    <contour>
      <point x="60.0" y="932.96" type="line"/>
      <point x="85.0" y="1089.12" type="line"/>
      <point x="713.88" y="1089.12" type="line"/>
      <point x="688.88" y="932.96" type="line"/>
    </contour>
    <contour>
      <point x="142.72" y="272.0" type="qcurve" smooth="yes"/>
      <point x="267.72" y="996.04" type="line"/>
      <point x="272.72" y="1026.04" type="line"/>
      <point x="328.72" y="1312.0" type="line"/>
      <point x="521.04" y="1312.0" type="line"/>
      <point x="336.04" y="272.0" type="line" smooth="yes"/>
      <point x="323.04" y="202.0"/>
      <point x="371.04" y="142.0"/>
      <point x="433.20000000000005" y="142.0" type="qcurve" smooth="yes"/>
      <point x="461.79999999999995" y="142.0"/>
      <point x="520.0" y="154.0"/>
      <point x="550.6" y="164.0" type="qcurve"/>
      <point x="523.6" y="0.0" type="line"/>
      <point x="495.3898603287239" y="-11.921190744437501"/>
      <point x="406.3009174311926" y="-30.0"/>
      <point x="355.92" y="-30.0" type="qcurve" smooth="yes"/>
      <point x="235.1901754385965" y="-30.0"/>
      <point x="116.72" y="115.76"/>
    </contour>
  </outline>
</glyph>
<glyph name="u" format="2">
  <advance width="1178"/>
  <unicode hex="0075"/>
  <outline>
    <contour>
      <point x="100.0" y="402.68" type="qcurve" smooth="yes"/>
      <point x="219.0" y="1089.12" type="line"/>
      <point x="412.32" y="1089.12" type="line"/>
      <point x="292.32" y="400.68" type="line" smooth="yes"/>
      <point x="269.32" y="266.04"/>
      <point x="372.48" y="149.68"/>
      <point x="484.52" y="149.68" type="qcurve" smooth="yes"/>
      <point x="579.3199999999999" y="149.68"/>
      <point x="740.48" y="251.28"/>
      <point x="795.4399999999999" y="331.28000000000003" type="qcurve"/>
      <point x="926.4399999999999" y="1089.12" type="line"/>
      <point x="1119.76" y="1089.12" type="line"/>
      <point x="933.76" y="0.0" type="line"/>
      <point x="758.28" y="0.0" type="line"/>
      <point x="773.8" y="144.6" type="line"/>
      <point x="769.6" y="144.6" type="line"/>
      <point x="694.64" y="65.56"/>
      <point x="504.36" y="-20.0"/>
      <point x="397.28" y="-20.0" type="qcurve" smooth="yes"/>
      <point x="229.83999999999997" y="-20.0"/>
      <point x="62.0" y="174.6"/>
    </contour>
  </outline>
</glyph>
<glyph name="v" format="2">
  <advance width="986"/>
  <unicode hex="0076"/>
  <outline>
    <contour>
      <point x="85.0" y="1089.12" type="line"/>
      <point x="277.6" y="1089.12" type="line"/>
      <point x="414.0" y="372.0" type="line" smooth="yes"/>
      <point x="421.0" y="331.0"/>
      <point x="430.0" y="262.0"/>
      <point x="434.0" y="222.0" type="qcurve"/>
      <point x="439.0" y="222.0" type="line"/>
      <point x="450.0" y="262.0"/>
      <point x="485.0" y="331.0"/>
      <point x="506.0" y="372.0" type="qcurve" smooth="yes"/>
      <point x="888.0" y="1089.0" type="line"/>
      <point x="1071.0" y="1089.0" type="line"/>
      <point x="472.24" y="0.0" type="line"/>
      <point x="314.24" y="0.0" type="line"/>
    </contour>
  </outline>
</glyph>
<glyph name="w" format="2">
  <advance width="1617"/>
  <unicode hex="0077"/>
  <outline>
    <contour>
      <point x="110.0" y="1089" type="line"/>
      <point x="296" y="1089" type="line"/>
      <point x="372.0" y="390.0" type="line" smooth="yes"/>
      <point x="376" y="350"/>
      <point x="389.0" y="270.0"/>
      <point x="387.0" y="230.0" type="qcurve"/>
      <point x="392.0" y="230.0" type="line"/>
      <point x="405.0" y="270.0"/>
      <point x="434" y="350"/>
      <point x="454.0" y="390.0" type="qcurve" smooth="yes"/>
      <point x="810" y="1089" type="line"/>
      <point x="984.0" y="1089" type="line"/>
      <point x="1096.0" y="390.0" type="line" smooth="yes"/>
      <point x="1102" y="350"/>
      <point x="1113.0" y="270.0"/>
      <point x="1112.0" y="230.0" type="qcurve"/>
      <point x="1118.0" y="230.0" type="line"/>
      <point x="1129.0" y="270.0"/>
      <point x="1161" y="350"/>
      <point x="1179.0" y="390.0" type="qcurve" smooth="yes"/>
      <point x="1498" y="1089" type="line"/>
      <point x="1679" y="1089" type="line"/>
      <point x="1159" y="0.0" type="line"/>
      <point x="996" y="0.0" type="line"/>
      <point x="881.0" y="717.0" type="line" smooth="yes"/>
      <point x="875.0" y="757.0"/>
      <point x="864.0" y="837.0"/>
      <point x="861.0" y="877.0" type="qcurve"/>
      <point x="855.0" y="877.0" type="line"/>
      <point x="837.0" y="837.0"/>
      <point x="799.0" y="757.0"/>
      <point x="778.0" y="717.0" type="qcurve" smooth="yes"/>
      <point x="422" y="0.0" type="line"/>
      <point x="259" y="0.0" type="line"/>
    </contour>
  </outline>
</glyph>
<glyph name="x" format="2">
  <advance width="1016"/>
  <unicode hex="0078"/>
  <outline>
    <contour>
      <point x="-81.0" y="0.0" type="line"/>
      <point x="433.36" y="600.56" type="line"/>
      <point x="452.2" y="600.56" type="line"/>
      <point x="843.2" y="1089.12" type="line"/>
      <point x="1060.6" y="1089.12" type="line"/>
      <point x="568.28" y="502.56" type="line"/>
      <point x="549.44" y="502.56" type="line"/>
      <point x="137.56" y="0.0" type="line"/>
    </contour>
    <contour>
      <point x="125.28" y="1089.12" type="line"/>
      <point x="352.6" y="1089.12" type="line"/>
      <point x="576.0" y="600.56" type="line"/>
      <point x="587.52" y="600.56" type="line"/>
      <point x="895.8800000000001" y="0.0" type="line"/>
      <point x="669.56" y="0.0" type="line"/>
      <point x="430.12" y="502.56" type="line"/>
      <point x="418.59999999999997" y="502.56" type="line"/>
    </contour>
  </outline>
</glyph>
<glyph name="y" format="2">
  <advance width="985"/>
  <unicode hex="0079"/>
  <outline>
    <contour>
      <point x="-118.0" y="-416.0" type="qcurve"/>
      <point x="-90.0" y="-246.0" type="line"/>
      <point x="-64.0" y="-254.0"/>
      <point x="0.0" y="-264.0"/>
      <point x="31.0" y="-264.0" type="qcurve" smooth="yes"/>
      <point x="105.0" y="-264.0"/>
      <point x="220.0" y="-188.0"/>
      <point x="319.0" y="9.0" type="qcurve"/>
      <point x="319.0" y="10.0" type="line"/>
      <point x="95.0" y="1089.0" type="line"/>
      <point x="288.0" y="1089.0" type="line"/>
      <point x="424.0" y="382.0" type="line" smooth="yes"/>
      <point x="432.0" y="341.0"/>
      <point x="445.0" y="262.0"/>
      <point x="446.0" y="222.0" type="qcurve"/>
      <point x="452.0" y="222.0" type="line"/>
      <point x="464.0" y="262.0"/>
      <point x="503.0" y="341.0"/>
      <point x="524.0" y="382.0" type="qcurve" smooth="yes"/>
      <point x="890.0" y="1089.0" type="line"/>
      <point x="1072.0" y="1089.0" type="line"/>
      <point x="416.0" y="-140.0" type="line" smooth="yes"/>
      <point x="339.0" y="-280.0"/>
      <point x="139.0" y="-436.0"/>
      <point x="14.0" y="-436.0" type="qcurve" smooth="yes"/>
      <point x="-28.0" y="-436.0"/>
      <point x="-90.0" y="-426.0"/>
    </contour>
  </outline>
</glyph>
<glyph name="z" format="2">
  <advance width="1029"/>
  <unicode hex="007A"/>
  <outline>
    <contour>
      <point x="-32.0" y="0.0" type="line"/>
      <point x="-8.0" y="149.68" type="line"/>
      <point x="751.04" y="922.96" type="line"/>
      <point x="134.48000000000002" y="922.96" type="line"/>
      <point x="161.48000000000002" y="1089.12" type="line"/>
      <point x="1022.6" y="1089.12" type="line"/>
      <point x="998.6" y="942.08" type="line"/>
      <point x="236.40000000000003" y="166.16000000000003" type="line"/>
      <point x="894.36" y="166.16000000000003" type="line"/>
      <point x="867.36" y="0.0" type="line"/>
    </contour>
  </outline>
</glyph>
<glyph name="braceleft" format="2">
  <advance width="689"/>
  <unicode hex="007B"/>
  <outline>
    <contour>
      <point x="520.44" y="-312.0" type="line"/>
      <point x="280.96" y="-312.0"/>
      <point x="70.96000000000001" y="-33.92"/>
      <point x="138.44" y="129.4" type="qcurve" smooth="yes"/>
      <point x="224.60000000000002" y="329.2" type="line" smooth="yes"/>
      <point x="268.56" y="436.08"/>
      <point x="154.72" y="503.2"/>
      <point x="43.52" y="503.2" type="qcurve"/>
      <point x="66.52000000000001" y="644.8" type="line"/>
      <point x="178.72" y="644.8"/>
      <point x="315.56" y="711.92"/>
      <point x="308.6" y="818.8" type="qcurve" smooth="yes"/>
      <point x="297.44" y="1018.6" type="line" smooth="yes"/>
      <point x="283.96000000000004" y="1181.92"/>
      <point x="592.96" y="1460.0"/>
      <point x="832.44" y="1460.0" type="qcurve"/>
      <point x="807.44" y="1302.72" type="line"/>
      <point x="648.72" y="1302.72"/>
      <point x="480.72" y="1137.56"/>
      <point x="489.6" y="1013.8" type="qcurve" smooth="yes"/>
      <point x="501.76" y="814.0" type="line" smooth="yes"/>
      <point x="506.88" y="730.2"/>
      <point x="413.72" y="598.4"/>
      <point x="315.2" y="574.0" type="qcurve"/>
      <point x="404.72" y="549.6"/>
      <point x="451.56" y="417.96"/>
      <point x="416.76" y="334.0" type="qcurve" smooth="yes"/>
      <point x="330.6" y="134.2" type="line" smooth="yes"/>
      <point x="278.72" y="10.440000000000007"/>
      <point x="387.72" y="-154.72"/>
      <point x="546.44" y="-154.72" type="qcurve"/>
    </contour>
  </outline>
</glyph>
<glyph name="bar" format="2">
  <advance width="583"/>
  <unicode hex="007C"/>
  <outline>
    <contour>
      <point x="30.0" y="-416.0" type="line"/>
      <point x="375.0" y="1456.0" type="line"/>
      <point x="549.64" y="1456.0" type="line"/>
      <point x="205.64" y="-416.0" type="line"/>
    </contour>
  </outline>
</glyph>
<glyph name="braceright" format="2">
  <advance width="689"/>
  <unicode hex="007D"/>
  <outline>
    <contour>
      <point x="-141.68" y="-312.0" type="qcurve"/>
      <point x="-115.67999999999999" y="-154.72" type="line"/>
      <point x="42.03999999999999" y="-154.72"/>
      <point x="211.04000000000002" y="10.440000000000007"/>
      <point x="201.16000000000003" y="134.2" type="qcurve" smooth="yes"/>
      <point x="190.0" y="334.0" type="line" smooth="yes"/>
      <point x="184.2" y="417.96"/>
      <point x="277.04" y="549.6"/>
      <point x="376.56" y="574.0" type="qcurve"/>
      <point x="286.04" y="598.4"/>
      <point x="239.2" y="730.04"/>
      <point x="274.0" y="814.0" type="qcurve" smooth="yes"/>
      <point x="360.16" y="1013.8" type="line" smooth="yes"/>
      <point x="413.04" y="1137.56"/>
      <point x="303.03999999999996" y="1302.72"/>
      <point x="145.32" y="1302.72" type="qcurve"/>
      <point x="171.32" y="1460.0" type="line"/>
      <point x="410.8" y="1460.0"/>
      <point x="620.8" y="1181.92"/>
      <point x="553.3199999999999" y="1018.6" type="qcurve" smooth="yes"/>
      <point x="467.16" y="818.8" type="line" smooth="yes"/>
      <point x="423.2" y="711.92"/>
      <point x="536.04" y="644.8"/>
      <point x="648.24" y="644.8" type="qcurve"/>
      <point x="624.24" y="503.2" type="line"/>
      <point x="513.04" y="503.2"/>
      <point x="376.2" y="436.08"/>
      <point x="382.16" y="329.2" type="qcurve" smooth="yes"/>
      <point x="393.32" y="129.4" type="line" smooth="yes"/>
      <point x="406.79999999999995" y="-33.92"/>
      <point x="97.80000000000001" y="-312.0"/>
    </contour>
  </outline>
</glyph>
<glyph name="asciitilde" format="2">
  <advance width="1198"/>
  <unicode hex="007E"/>
  <outline>
    <contour>
      <point x="93.0" y="517.0" type="qcurve"/>
      <point x="129.0" y="739.0" type="line"/>
      <point x="189.0" y="795.0"/>
      <point x="340.0" y="858.0"/>
      <point x="410.0" y="859.0" type="qcurve" smooth="yes"/>
      <point x="464.0" y="860.0"/>
      <point x="588.0" y="808.0"/>
      <point x="649.0" y="778.0" type="qcurve" smooth="yes"/>
      <point x="706.0" y="750.0"/>
      <point x="820.0" y="703.0"/>
      <point x="868.0" y="703.0" type="qcurve" smooth="yes"/>
      <point x="937.0" y="703.0"/>
      <point x="1084.0" y="778.0"/>
      <point x="1145.0" y="844.0" type="qcurve"/>
      <point x="1109.0" y="621.0" type="line"/>
      <point x="1049.0" y="564.0"/>
      <point x="907.0" y="501.0"/>
      <point x="837.0" y="501.0" type="qcurve" smooth="yes"/>
      <point x="786.0" y="501.0"/>
      <point x="668.0" y="550.0"/>
      <point x="609.0" y="579.0" type="qcurve" smooth="yes"/>
      <point x="550.0" y="608.0"/>
      <point x="430.0" y="657.0"/>
      <point x="378.0" y="657.0" type="qcurve" smooth="yes"/>
      <point x="307.0" y="657.0"/>
      <point x="155.0" y="583.0"/>
    </contour>
  </outline>
</glyph>
<glyph name="cent" format="2">
  <advance width="1100"/>
  <unicode hex="00A2"/>
  <outline>
    <contour>
      <point x="582.0" y="292.0" type="qcurve" smooth="yes"/>
      <point x="689.0" y="292.0"/>
      <point x="847.0" y="415.0"/>
      <point x="855.0" y="510.0" type="qcurve"/>
      <point x="1045.0" y="510.0" type="line"/>
      <point x="1035.0" y="360.0"/>
      <point x="765.0" y="135.0"/>
      <point x="582.0" y="135.0" type="qcurve" smooth="yes"/>
      <point x="321.0" y="135.0"/>
      <point x="65.0" y="470.0"/>
      <point x="65.0" y="694.0" type="qcurve" smooth="yes"/>
      <point x="65.0" y="737.0" type="line" smooth="yes"/>
      <point x="65.0" y="961.0"/>
      <point x="321.0" y="1297.0"/>
      <point x="582.0" y="1297.0" type="qcurve" smooth="yes"/>
      <point x="784.0" y="1297.0"/>
      <point x="1036.0" y="1063.0"/>
      <point x="1045.0" y="891.0" type="qcurve"/>
      <point x="855.0" y="891.0" type="line"/>
      <point x="847.0" y="993.0"/>
      <point x="700.0" y="1139.0"/>
      <point x="582.0" y="1139.0" type="qcurve" smooth="yes"/>
      <point x="399.0" y="1139.0"/>
      <point x="265.0" y="882.0"/>
      <point x="265.0" y="737.0" type="qcurve" smooth="yes"/>
      <point x="265.0" y="694.0" type="line" smooth="yes"/>
      <point x="265.0" y="547.0"/>
      <point x="397.0" y="292.0"/>
    </contour>
    <contour>
      <point x="497.0" y="0.0" type="line"/>
      <point x="497.0" y="245.0" type="line"/>
      <point x="504.0" y="260.0" type="line"/>
      <point x="504.0" y="733.0" type="line"/>
      <point x="654.0" y="733.0" type="line"/>
      <point x="654.0" y="259.0" type="line"/>
      <point x="659.0" y="249.0" type="line"/>
      <point x="659.0" y="0.0" type="line"/>
    </contour>
    <contour>
      <point x="504.0" y="733.0" type="line"/>
      <point x="504.0" y="1224.0" type="line"/>
      <point x="497.0" y="1235.0" type="line"/>
      <point x="497.0" y="1452.0" type="line"/>
      <point x="659.0" y="1452.0" type="line"/>
      <point x="659.0" y="1235.0" type="line"/>
      <point x="654.0" y="1221.0" type="line"/>
      <point x="654.0" y="733.0" type="line"/>
    </contour>
  </outline>
</glyph>
<glyph name="currency" format="2">
  <advance width="1222"/>
  <unicode hex="00A4"/>
  <guideline x="0" y="901.0" angle="0" identifier="bRYxxRaQQf"/>
  <guideline x="0" y="555.0" angle="0" identifier="917FhrihjR"/>
  <outline>
    <contour>
      <point x="275.0" y="744.0" type="qcurve"/>
      <point x="275.0" y="591.0"/>
      <point x="470.0" y="386.0"/>
      <point x="608.0" y="386.0" type="qcurve" smooth="yes"/>
      <point x="745.0" y="386.0"/>
      <point x="939.0" y="591.0"/>
      <point x="939.0" y="744.0" type="qcurve" smooth="yes"/>
      <point x="939.0" y="895.0"/>
      <point x="745.0" y="1100.0"/>
      <point x="608.0" y="1100.0" type="qcurve" smooth="yes"/>
      <point x="470.0" y="1100.0"/>
      <point x="275.0" y="895.0"/>
    </contour>
    <contour>
      <point x="82.0" y="750.0" type="qcurve"/>
      <point x="82.0" y="977.0"/>
      <point x="395.0" y="1286.0"/>
      <point x="607.0" y="1286.0" type="qcurve" smooth="yes"/>
      <point x="819.0" y="1286.0"/>
      <point x="1132.0" y="977.0"/>
      <point x="1132.0" y="750.0" type="qcurve" smooth="yes"/>
      <point x="1132.0" y="524.0"/>
      <point x="819.0" y="212.0"/>
      <point x="607.0" y="212.0" type="qcurve" smooth="yes"/>
      <point x="395.0" y="212.0"/>
      <point x="82.0" y="524.0"/>
    </contour>
    <contour>
      <point x="1182.0" y="1234.0" type="line"/>
      <point x="968.0" y="1017.0" type="line"/>
      <point x="839.0" y="1151.0" type="line"/>
      <point x="1053.0" y="1368.0" type="line"/>
    </contour>
    <contour>
      <point x="353.0" y="366.0" type="line"/>
      <point x="140.0" y="148.0" type="line"/>
      <point x="12.0" y="281.0" type="line"/>
      <point x="225.0" y="498.0" type="line"/>
    </contour>
    <contour>
      <point x="1080.0" y="155.0" type="line"/>
      <point x="867.0" y="373.0" type="line"/>
      <point x="997.0" y="506.0" type="line"/>
      <point x="1210.0" y="290.0" type="line"/>
    </contour>
    <contour>
      <point x="243.0" y="1031.0" type="line"/>
      <point x="30.0" y="1249.0" type="line"/>
      <point x="158.0" y="1382.0" type="line"/>
      <point x="371.0" y="1164.0" type="line"/>
    </contour>
  </outline>
</glyph>
<glyph name="yen" format="2">
  <advance width="1203"/>
  <unicode hex="00A5"/>
  <outline>
    <contour>
      <point x="85.0" y="311.0" type="line"/>
      <point x="85.0" y="470.0" type="line"/>
      <point x="1127.0" y="470.0" type="line"/>
      <point x="1127.0" y="311.0" type="line"/>
    </contour>
    <contour>
      <point x="85.0" y="621.0" type="line"/>
      <point x="85.0" y="775.0" type="line"/>
      <point x="488.0" y="775.0" type="line"/>
      <point x="546.0" y="669.0" type="line"/>
      <point x="667.0" y="669.0" type="line"/>
      <point x="719.0" y="775.0" type="line"/>
      <point x="1127.0" y="775.0" type="line"/>
      <point x="1127.0" y="621.0" type="line"/>
    </contour>
    <contour>
      <point x="500.0" y="0.0" type="line"/>
      <point x="500.0" y="548.0" type="line"/>
      <point x="-1.0" y="1456.0" type="line"/>
      <point x="229.0" y="1456.0" type="line"/>
      <point x="533.0" y="849.0" type="line" smooth="yes"/>
      <point x="549.0" y="819.0"/>
      <point x="585.0" y="716.0"/>
      <point x="593.0" y="679.0" type="qcurve"/>
      <point x="615.0" y="679.0" type="line"/>
      <point x="625.0" y="735.0"/>
      <point x="659.0" y="819.0"/>
      <point x="674.0" y="849.0" type="qcurve" smooth="yes"/>
      <point x="983.0" y="1456.0" type="line"/>
      <point x="1204.0" y="1456.0" type="line"/>
      <point x="703.0" y="548.0" type="line"/>
      <point x="703.0" y="0.0" type="line"/>
    </contour>
  </outline>
</glyph>
<glyph name="dieresis" format="2">
  <advance width="1024"/>
  <unicode hex="00A8"/>
  <outline>
    <contour>
      <point x="171.0" y="1316.0" type="qcurve" smooth="yes"/>
      <point x="171.0" y="1364.0"/>
      <point x="230.0" y="1429.0"/>
      <point x="285.0" y="1429.0" type="qcurve" smooth="yes"/>
      <point x="342.0" y="1429.0"/>
      <point x="401.0" y="1364.0"/>
      <point x="401.0" y="1316.0" type="qcurve" smooth="yes"/>
      <point x="401.0" y="1271.0"/>
      <point x="342.0" y="1207.0"/>
      <point x="285.0" y="1207.0" type="qcurve" smooth="yes"/>
      <point x="230.0" y="1207.0"/>
      <point x="171.0" y="1271.0"/>
    </contour>
    <contour>
      <point x="623.0" y="1314.0" type="qcurve" smooth="yes"/>
      <point x="623.0" y="1361.0"/>
      <point x="681.0" y="1427.0"/>
      <point x="738.0" y="1427.0" type="qcurve" smooth="yes"/>
      <point x="793.0" y="1427.0"/>
      <point x="853.0" y="1361.0"/>
      <point x="853.0" y="1314.0" type="qcurve" smooth="yes"/>
      <point x="853.0" y="1269.0"/>
      <point x="793.0" y="1205.0"/>
      <point x="738.0" y="1205.0" type="qcurve" smooth="yes"/>
      <point x="681.0" y="1205.0"/>
      <point x="623.0" y="1269.0"/>
    </contour>
  </outline>
</glyph>
<glyph name="guillemotleft" format="2">
  <advance width="1322"/>
  <unicode hex="00AB"/>
  <guideline x="0" y="901.0" angle="0" identifier="ZftBQarVKw"/>
  <guideline x="0" y="555.0" angle="0" identifier="MVJpdoVRVd"/>
  <outline>
    <contour>
      <point x="119.0" y="508.0" type="line"/>
      <point x="119.0" y="580.0" type="line"/>
      <point x="481.0" y="1030.0" type="line"/>
      <point x="679.0" y="1030.0" type="line"/>
      <point x="363.0" y="543.0" type="line"/>
      <point x="679.0" y="57.0" type="line"/>
      <point x="481.0" y="57.0" type="line"/>
    </contour>
    <contour>
      <point x="659.0" y="508.0" type="line"/>
      <point x="659.0" y="580.0" type="line"/>
      <point x="1021.0" y="1030.0" type="line"/>
      <point x="1219.0" y="1030.0" type="line"/>
      <point x="902.0" y="543.0" type="line"/>
      <point x="1219.0" y="57.0" type="line"/>
      <point x="1021.0" y="57.0" type="line"/>
    </contour>
  </outline>
</glyph>
<glyph name="logicalnot" format="2">
  <advance width="1160"/>
  <unicode hex="00AC"/>
  <outline>
    <contour>
      <point x="1015.0" y="843.0" type="line"/>
      <point x="1015.0" y="376.0" type="line"/>
      <point x="811.0" y="376.0" type="line"/>
      <point x="811.0" y="663.0" type="line"/>
      <point x="58.0" y="663.0" type="line"/>
      <point x="58.0" y="843.0" type="line"/>
    </contour>
  </outline>
</glyph>
<glyph name="degree" format="2">
  <advance width="917"/>
  <unicode hex="00B0"/>
  <outline>
    <contour>
      <point x="150.0" y="1160.0" type="qcurve"/>
      <point x="150.0" y="1289.0"/>
      <point x="334.0" y="1477.0"/>
      <point x="461.0" y="1477.0" type="qcurve" smooth="yes"/>
      <point x="586.0" y="1477.0"/>
      <point x="767.0" y="1289.0"/>
      <point x="767.0" y="1160.0" type="qcurve" smooth="yes"/>
      <point x="767.0" y="1030.0"/>
      <point x="586.0" y="847.0"/>
      <point x="461.0" y="847.0" type="qcurve" smooth="yes"/>
      <point x="334.0" y="847.0"/>
      <point x="150.0" y="1030.0"/>
    </contour>
    <contour>
      <point x="301.0" y="1160.0" type="qcurve"/>
      <point x="301.0" y="1093.0"/>
      <point x="395.0" y="1003.0"/>
      <point x="461.0" y="1003.0" type="qcurve" smooth="yes"/>
      <point x="526.0" y="1003.0"/>
      <point x="616.0" y="1093.0"/>
      <point x="616.0" y="1160.0" type="qcurve" smooth="yes"/>
      <point x="616.0" y="1228.0"/>
      <point x="526.0" y="1321.0"/>
      <point x="461.0" y="1321.0" type="qcurve" smooth="yes"/>
      <point x="395.0" y="1321.0"/>
      <point x="301.0" y="1228.0"/>
    </contour>
  </outline>
</glyph>
<glyph name="twosuperior" format="2">
  <advance width="836"/>
  <unicode hex="00B2"/>
  <outline>
    <contour>
      <point x="100.0" y="620.0" type="line"/>
      <point x="100.0" y="739.0" type="line"/>
      <point x="416.0" y="1025.0" type="line" smooth="yes"/>
      <point x="490.0" y="1092.0"/>
      <point x="534.0" y="1190.0"/>
      <point x="534.0" y="1226.0" type="qcurve" smooth="yes"/>
      <point x="534.0" y="1279.0"/>
      <point x="477.0" y="1333.0"/>
      <point x="412.0" y="1333.0" type="qcurve" smooth="yes"/>
      <point x="341.0" y="1333.0"/>
      <point x="263.0" y="1252.0"/>
      <point x="264.0" y="1170.0" type="qcurve"/>
      <point x="80.0" y="1170.0" type="line"/>
      <point x="79.0" y="1314.0"/>
      <point x="252.0" y="1487.0"/>
      <point x="408.0" y="1487.0" type="qcurve" smooth="yes"/>
      <point x="555.0" y="1487.0"/>
      <point x="722.0" y="1347.0"/>
      <point x="722.0" y="1228.0" type="qcurve" smooth="yes"/>
      <point x="722.0" y="1140.0"/>
      <point x="617.0" y="1005.0"/>
      <point x="520.0" y="921.0" type="qcurve" smooth="yes"/>
      <point x="361.0" y="783.0" type="line"/>
      <point x="756.0" y="783.0" type="line"/>
      <point x="756.0" y="620.0" type="line"/>
    </contour>
  </outline>
</glyph>
<glyph name="threesuperior" format="2">
  <advance width="782"/>
  <unicode hex="00B3"/>
  <outline>
    <contour>
      <point x="60.0" y="865.0" type="qcurve"/>
      <point x="232.0" y="865.0" type="line"/>
      <point x="232.0" y="816.0"/>
      <point x="320.0" y="760.0"/>
      <point x="392.0" y="760.0" type="qcurve" smooth="yes"/>
      <point x="468.0" y="760.0"/>
      <point x="538.0" y="817.0"/>
      <point x="538.0" y="871.0" type="qcurve" smooth="yes"/>
      <point x="538.0" y="929.0"/>
      <point x="455.0" y="984.0"/>
      <point x="375.0" y="985.0" type="qcurve" smooth="yes"/>
      <point x="282.0" y="985.0" type="line"/>
      <point x="282.0" y="1118.0" type="line"/>
      <point x="375.0" y="1118.0" type="line" smooth="yes"/>
      <point x="454.0" y="1118.0"/>
      <point x="524.0" y="1180.0"/>
      <point x="524.0" y="1233.0" type="qcurve" smooth="yes"/>
      <point x="524.0" y="1281.0"/>
      <point x="464.0" y="1336.0"/>
      <point x="389.0" y="1336.0" type="qcurve" smooth="yes"/>
      <point x="326.0" y="1336.0"/>
      <point x="244.0" y="1281.0"/>
      <point x="244.0" y="1234.0" type="qcurve"/>
      <point x="72.0" y="1234.0" type="line"/>
      <point x="72.0" y="1344.0"/>
      <point x="255.0" y="1487.0"/>
      <point x="386.0" y="1487.0" type="qcurve" smooth="yes"/>
      <point x="528.0" y="1487.0"/>
      <point x="710.0" y="1361.0"/>
      <point x="710.0" y="1241.0" type="qcurve" smooth="yes"/>
      <point x="710.0" y="1185.0"/>
      <point x="641.0" y="1084.0"/>
      <point x="575.0" y="1060.0" type="qcurve"/>
      <point x="650.0" y="1035.0"/>
      <point x="722.0" y="934.0"/>
      <point x="722.0" y="862.0" type="qcurve" smooth="yes"/>
      <point x="722.0" y="741.0"/>
      <point x="529.0" y="608.0"/>
      <point x="387.0" y="608.0" type="qcurve" smooth="yes"/>
      <point x="241.0" y="608.0"/>
      <point x="60.0" y="736.0"/>
    </contour>
  </outline>
</glyph>
<glyph name="micro" format="2">
  <advance width="1293"/>
  <unicode hex="00B5"/>
  <outline>
    <contour>
      <point x="273.0" y="1089.0" type="line"/>
      <point x="471.0" y="1089.0" type="line"/>
      <point x="335.0" y="391.0" type="line" smooth="yes"/>
      <point x="310.0" y="262.0"/>
      <point x="424.0" y="150.0"/>
      <point x="531.0" y="150.0" type="qcurve" smooth="yes"/>
      <point x="622.0" y="150.0"/>
      <point x="800.0" y="249.0"/>
      <point x="854.0" y="327.0" type="qcurve"/>
      <point x="1001.0" y="1089.0" type="line"/>
      <point x="1199.0" y="1089.0" type="line"/>
      <point x="990.0" y="10.0" type="line"/>
      <point x="811.0" y="10.0" type="line"/>
      <point x="829.0" y="149.0" type="line"/>
      <point x="823.0" y="149.0" type="line"/>
      <point x="750.0" y="75.0"/>
      <point x="546.0" y="-10.0"/>
      <point x="443.0" y="-10.0" type="qcurve" smooth="yes"/>
      <point x="396.0" y="-10.0"/>
      <point x="299.0" y="26.0"/>
      <point x="270.0" y="53.0" type="qcurve"/>
      <point x="180.0" y="-416.0" type="line"/>
      <point x="-18.0" y="-416.0" type="line"/>
    </contour>
  </outline>
</glyph>
<glyph name="paragraph" format="2">
  <advance width="1323"/>
  <unicode hex="00B6"/>
  <guideline x="0" y="901.0" angle="0" identifier="27539Lsr1A"/>
  <guideline x="0" y="555.0" angle="0" identifier="e34wUdCmXR"/>
  <outline>
    <contour>
      <point x="816.0" y="-198.0" type="line"/>
      <point x="614.0" y="-198.0" type="line"/>
      <point x="614.0" y="671.0" type="line"/>
      <point x="519.0" y="671.0" type="line" smooth="yes"/>
      <point x="307.0" y="671.0"/>
      <point x="80.0" y="894.0"/>
      <point x="80.0" y="1064.0" type="qcurve" smooth="yes"/>
      <point x="80.0" y="1231.0"/>
      <point x="307.0" y="1456.0"/>
      <point x="519.0" y="1456.0" type="qcurve" smooth="yes"/>
      <point x="816.0" y="1456.0" type="line"/>
    </contour>
    <contour>
      <point x="971.0" y="1459.0" type="line"/>
      <point x="1173.0" y="1459.0" type="line"/>
      <point x="1173.0" y="-198.0" type="line"/>
      <point x="971.0" y="-198.0" type="line"/>
    </contour>
  </outline>
</glyph>
<glyph name="cedilla" format="2">
  <advance width="1024"/>
  <unicode hex="00B8"/>
  <outline>
    <contour>
      <point x="435.0" y="42.0" type="line"/>
      <point x="571.0" y="42.0" type="line"/>
      <point x="541.0" y="-58.0" type="line"/>
      <point x="601.0" y="-68.0"/>
      <point x="734.0" y="-148.0"/>
      <point x="734.0" y="-239.0" type="qcurve" smooth="yes"/>
      <point x="734.0" y="-337.0"/>
      <point x="551.0" y="-459.0"/>
      <point x="339.0" y="-459.0" type="qcurve"/>
      <point x="331.0" y="-347.0" type="line"/>
      <point x="460.0" y="-347.0"/>
      <point x="542.0" y="-297.0"/>
      <point x="542.0" y="-241.0" type="qcurve" smooth="yes"/>
      <point x="542.0" y="-190.0"/>
      <point x="481.0" y="-151.0"/>
      <point x="392.0" y="-144.0" type="qcurve"/>
    </contour>
  </outline>
</glyph>
<glyph name="ordmasculine" format="2">
  <advance width="1073"/>
  <unicode hex="00BA"/>
  <guideline x="0" y="1975.0" angle="0" identifier="Jnt0R9CyOf"/>
  <outline>
    <contour>
      <point x="150.0" y="1043.0" type="qcurve"/>
      <point x="150.0" y="1124.0" type="line"/>
      <point x="150.0" y="1278.0"/>
      <point x="359.0" y="1477.0"/>
      <point x="536.0" y="1477.0" type="qcurve" smooth="yes"/>
      <point x="715.0" y="1477.0"/>
      <point x="923.0" y="1278.0"/>
      <point x="923.0" y="1124.0" type="qcurve"/>
      <point x="923.0" y="1043.0" type="line"/>
      <point x="923.0" y="889.0"/>
      <point x="716.0" y="691.0"/>
      <point x="539.0" y="691.0" type="qcurve" smooth="yes"/>
      <point x="360.0" y="691.0"/>
      <point x="150.0" y="889.0"/>
    </contour>
    <contour>
      <point x="334.0" y="1124.0" type="qcurve"/>
      <point x="334.0" y="1043.0" type="line"/>
      <point x="334.0" y="952.0"/>
      <point x="435.0" y="830.0"/>
      <point x="539.0" y="830.0" type="qcurve" smooth="yes"/>
      <point x="639.0" y="830.0"/>
      <point x="740.0" y="952.0"/>
      <point x="740.0" y="1043.0" type="qcurve"/>
      <point x="740.0" y="1124.0" type="line"/>
      <point x="740.0" y="1213.0"/>
      <point x="639.0" y="1336.0"/>
      <point x="536.0" y="1336.0" type="qcurve" smooth="yes"/>
      <point x="434.0" y="1336.0"/>
      <point x="334.0" y="1213.0"/>
    </contour>
  </outline>
</glyph>
<glyph name="guillemotright" format="2">
  <advance width="1322"/>
  <unicode hex="00BB"/>
  <guideline x="0" y="98.0" angle="0" identifier="MTEldNnfdj"/>
  <guideline x="0" y="443.0" angle="0" identifier="G9bQni2n1K"/>
  <outline>
    <contour>
      <point x="103.0" y="57.0" type="line"/>
      <point x="420.0" y="544.0" type="line"/>
      <point x="103.0" y="1030.0" type="line"/>
      <point x="301.0" y="1030.0" type="line"/>
      <point x="663.0" y="579.0" type="line"/>
      <point x="663.0" y="507.0" type="line"/>
      <point x="301.0" y="57.0" type="line"/>
    </contour>
    <contour>
      <point x="643.0" y="57.0" type="line"/>
      <point x="959.0" y="544.0" type="line"/>
      <point x="643.0" y="1030.0" type="line"/>
      <point x="841.0" y="1030.0" type="line"/>
      <point x="1203.0" y="579.0" type="line"/>
      <point x="1203.0" y="507.0" type="line"/>
      <point x="841.0" y="57.0" type="line"/>
    </contour>
  </outline>
</glyph>
<glyph name="questiondown" format="2">
  <advance width="996"/>
  <unicode hex="00BF"/>
  <guideline x="0" y="-181.0" angle="0" identifier="apukwP5ffL"/>
  <guideline x="0" y="921.0" angle="0" identifier="5ZPZZL8Rim"/>
  <outline>
    <contour>
      <point x="670.0" y="1042.0" type="qcurve" smooth="yes"/>
      <point x="670.0" y="990.0"/>
      <point x="602.0" y="915.0"/>
      <point x="539.0" y="915.0" type="qcurve" smooth="yes"/>
      <point x="476.0" y="915.0"/>
      <point x="408.0" y="990.0"/>
      <point x="408.0" y="1042.0" type="qcurve" smooth="yes"/>
      <point x="408.0" y="1095.0"/>
      <point x="476.0" y="1170.0"/>
      <point x="539.0" y="1170.0" type="qcurve" smooth="yes"/>
      <point x="602.0" y="1170.0"/>
      <point x="670.0" y="1095.0"/>
    </contour>
    <contour>
      <point x="951.0" y="62.0" type="line"/>
      <point x="951.0" y="40.0" type="line" smooth="yes"/>
      <point x="951.0" y="-126.0"/>
      <point x="715.0" y="-328.0"/>
      <point x="511.0" y="-328.0" type="qcurve" smooth="yes"/>
      <point x="307.0" y="-328.0"/>
      <point x="77.0" y="-116.0"/>
      <point x="77.0" y="54.0" type="qcurve" smooth="yes"/>
      <point x="77.0" y="187.0"/>
      <point x="228.0" y="391.0"/>
      <point x="306.0" y="455.0" type="qcurve" smooth="yes"/>
      <point x="399.0" y="532.0"/>
      <point x="448.0" y="654.0"/>
      <point x="448.0" y="723.0" type="qcurve" smooth="yes"/>
      <point x="448.0" y="733.0" type="line"/>
      <point x="648.0" y="733.0" type="line"/>
      <point x="648.0" y="723.0" type="line" smooth="yes"/>
      <point x="648.0" y="598.0"/>
      <point x="575.0" y="450.0"/>
      <point x="474.0" y="362.0" type="qcurve" smooth="yes"/>
      <point x="386.0" y="282.0"/>
      <point x="277.0" y="151.0"/>
      <point x="277.0" y="54.0" type="qcurve" smooth="yes"/>
      <point x="277.0" y="-42.0"/>
      <point x="393.0" y="-154.0"/>
      <point x="511.0" y="-154.0" type="qcurve" smooth="yes"/>
      <point x="629.0" y="-154.0"/>
      <point x="752.0" y="-51.0"/>
      <point x="752.0" y="40.0" type="qcurve" smooth="yes"/>
      <point x="752.0" y="62.0" type="line"/>
    </contour>
  </outline>
</glyph>
<glyph name="ae" format="2">
  <advance width="1895"/>
  <unicode hex="00E6"/>
  <outline>
    <contour>
      <point x="293.0" y="332.0" type="qcurve" smooth="yes"/>
      <point x="293.0" y="239.0"/>
      <point x="407.0" y="133.0"/>
      <point x="527.0" y="133.0" type="qcurve" smooth="yes"/>
      <point x="648.0" y="133.0"/>
      <point x="842.0" y="290.0"/>
      <point x="842.0" y="378.0" type="qcurve"/>
      <point x="842.0" y="534.0" type="line"/>
      <point x="604.0" y="534.0" type="line" smooth="yes"/>
      <point x="451.0" y="534.0"/>
      <point x="293.0" y="425.0"/>
    </contour>
    <contour>
      <point x="90.0" y="311.0" type="qcurve" smooth="yes"/>
      <point x="90.0" y="487.0"/>
      <point x="368.0" y="671.0"/>
      <point x="582.0" y="671.0" type="qcurve" smooth="yes"/>
      <point x="842.0" y="671.0" type="line"/>
      <point x="842.0" y="745.0" type="line" smooth="yes"/>
      <point x="842.0" y="844.0"/>
      <point x="735.0" y="967.0"/>
      <point x="604.0" y="967.0" type="qcurve" smooth="yes"/>
      <point x="473.0" y="967.0"/>
      <point x="360.0" y="864.0"/>
      <point x="360.0" y="797.0" type="qcurve" smooth="yes"/>
      <point x="360.0" y="792.0" type="line"/>
      <point x="158.0" y="792.0" type="line"/>
      <point x="158.0" y="797.0" type="line" smooth="yes"/>
      <point x="158.0" y="926.0"/>
      <point x="402.0" y="1120.0"/>
      <point x="609.0" y="1120.0" type="qcurve" smooth="yes"/>
      <point x="789.0" y="1120.0"/>
      <point x="977.0" y="982.0"/>
      <point x="988.0" y="902.0" type="qcurve"/>
      <point x="1009.0" y="983.0"/>
      <point x="1193.0" y="1120.0"/>
      <point x="1353.0" y="1120.0" type="qcurve" smooth="yes"/>
      <point x="1588.0" y="1120.0"/>
      <point x="1841.0" y="828.0"/>
      <point x="1841.0" y="580.0" type="qcurve" smooth="yes"/>
      <point x="1841.0" y="501.0" type="line"/>
      <point x="957.0" y="501.0" type="line"/>
      <point x="957.0" y="654.0" type="line"/>
      <point x="1636.0" y="654.0" type="line"/>
      <point x="1637.0" y="679.0" type="line"/>
      <point x="1636.0" y="797.0"/>
      <point x="1495.0" y="962.0"/>
      <point x="1349.0" y="962.0" type="qcurve" smooth="yes"/>
      <point x="1200.0" y="962.0"/>
      <point x="1040.0" y="730.0"/>
      <point x="1040.0" y="561.0" type="qcurve" smooth="yes"/>
      <point x="1040.0" y="528.0" type="line" smooth="yes"/>
      <point x="1040.0" y="360.0"/>
      <point x="1208.0" y="127.0"/>
      <point x="1386.0" y="127.0" type="qcurve" smooth="yes"/>
      <point x="1495.0" y="127.0"/>
      <point x="1652.0" y="218.0"/>
      <point x="1701.0" y="280.0" type="qcurve"/>
      <point x="1833.0" y="182.0" type="line"/>
      <point x="1778.0" y="104.0"/>
      <point x="1550.0" y="-30.0"/>
      <point x="1386.0" y="-30.0" type="qcurve" smooth="yes"/>
      <point x="1226.0" y="-30.0"/>
      <point x="972.0" y="94.0"/>
      <point x="913.0" y="221.0" type="qcurve"/>
      <point x="868.0" y="103.0"/>
      <point x="650.0" y="-20.0"/>
      <point x="484.0" y="-20.0" type="qcurve" smooth="yes"/>
      <point x="320.0" y="-20.0"/>
      <point x="90.0" y="156.0"/>
    </contour>
  </outline>
</glyph>
<glyph name="eth" format="2">
  <advance width="1245"/>
  <unicode hex="00F0"/>
  <outline>
    <contour>
      <point x="232.0" y="1421.0" type="qcurve"/>
      <point x="297.0" y="1581.0" type="line"/>
      <point x="680.0" y="1506.0"/>
      <point x="1160.0" y="1008.0"/>
      <point x="1160.0" y="633.0" type="qcurve"/>
      <point x="1160.0" y="535.0" type="line"/>
      <point x="1160.0" y="289.0"/>
      <point x="857.0" y="-20.0"/>
      <point x="627.0" y="-20.0" type="qcurve" smooth="yes"/>
      <point x="388.0" y="-20.0"/>
      <point x="85.0" y="265.0"/>
      <point x="85.0" y="468.0" type="qcurve" smooth="yes"/>
      <point x="85.0" y="698.0"/>
      <point x="375.0" y="978.0"/>
      <point x="595.0" y="978.0" type="qcurve" smooth="yes"/>
      <point x="788.0" y="978.0"/>
      <point x="1051.0" y="748.0"/>
      <point x="1051.0" y="613.0" type="qcurve"/>
      <point x="972.0" y="614.0" type="line"/>
      <point x="972.0" y="680.0"/>
      <point x="808.0" y="826.0"/>
      <point x="645.0" y="826.0" type="qcurve" smooth="yes"/>
      <point x="479.0" y="826.0"/>
      <point x="297.0" y="632.0"/>
      <point x="297.0" y="468.0" type="qcurve" smooth="yes"/>
      <point x="297.0" y="345.0"/>
      <point x="471.0" y="132.0"/>
      <point x="632.0" y="132.0" type="qcurve" smooth="yes"/>
      <point x="777.0" y="132.0"/>
      <point x="948.0" y="363.0"/>
      <point x="948.0" y="535.0" type="qcurve" smooth="yes"/>
      <point x="948.0" y="635.0" type="line" smooth="yes"/>
      <point x="948.0" y="984.0"/>
      <point x="521.0" y="1355.0"/>
    </contour>
    <contour>
      <point x="1055.0" y="1427.0" type="line"/>
      <point x="444.0" y="1061.0" type="line"/>
      <point x="349.0" y="1181.0" type="line"/>
      <point x="961.0" y="1546.0" type="line"/>
    </contour>
  </outline>
</glyph>
<glyph name="thorn" format="2">
  <advance width="1249"/>
  <unicode hex="00FE"/>
  <outline>
    <contour>
      <point x="148.0" y="-416.0" type="line"/>
      <point x="148.0" y="1536.0" type="line"/>
      <point x="337.0" y="1536.0" type="line"/>
      <point x="337.0" y="947.0" type="line"/>
      <point x="386.0" y="1014.0"/>
      <point x="568.0" y="1109.0"/>
      <point x="689.0" y="1109.0" type="qcurve" smooth="yes"/>
      <point x="905.0" y="1109.0"/>
      <point x="1164.0" y="799.0"/>
      <point x="1164.0" y="561.0" type="qcurve" smooth="yes"/>
      <point x="1164.0" y="529.0" type="line" smooth="yes"/>
      <point x="1164.0" y="291.0"/>
      <point x="905.0" y="-20.0"/>
      <point x="689.0" y="-20.0" type="qcurve" smooth="yes"/>
      <point x="568.0" y="-20.0"/>
      <point x="397.0" y="61.0"/>
      <point x="351.0" y="129.0" type="qcurve"/>
      <point x="346.0" y="129.0" type="line"/>
      <point x="346.0" y="-416.0" type="line"/>
    </contour>
    <contour>
      <point x="346.0" y="331.0" type="line"/>
      <point x="380.0" y="259.0"/>
      <point x="534.0" y="146.0"/>
      <point x="644.0" y="146.0" type="qcurve" smooth="yes"/>
      <point x="808.0" y="146.0"/>
      <point x="961.0" y="367.0"/>
      <point x="961.0" y="529.0" type="qcurve" smooth="yes"/>
      <point x="961.0" y="561.0" type="line" smooth="yes"/>
      <point x="961.0" y="722.0"/>
      <point x="808.0" y="943.0"/>
      <point x="644.0" y="943.0" type="qcurve" smooth="yes"/>
      <point x="534.0" y="943.0"/>
      <point x="380.0" y="830.0"/>
      <point x="346.0" y="758.0" type="qcurve"/>
    </contour>
  </outline>
</glyph>
<glyph name="florin" format="2">
  <advance width="1085"/>
  <unicode hex="0192"/>
  <outline>
    <contour>
      <point x="930.0" y="892.0" type="line"/>
      <point x="930.0" y="730.0" type="line"/>
      <point x="595.0" y="730.0" type="line"/>
      <point x="595.0" y="111.0" type="line" smooth="yes"/>
      <point x="595.0" y="-173.0"/>
      <point x="374.0" y="-437.0"/>
      <point x="111.0" y="-437.0" type="qcurve" smooth="yes"/>
      <point x="78.0" y="-437.0"/>
      <point x="21.0" y="-430.0"/>
      <point x="-9.0" y="-420.0" type="qcurve"/>
      <point x="6.0" y="-271.0" type="line"/>
      <point x="22.0" y="-277.0"/>
      <point x="96.0" y="-284.0"/>
      <point x="111.0" y="-284.0" type="qcurve" smooth="yes"/>
      <point x="241.0" y="-284.0"/>
      <point x="397.0" y="-122.0"/>
      <point x="397.0" y="111.0" type="qcurve" smooth="yes"/>
      <point x="397.0" y="730.0" type="line"/>
      <point x="139.0" y="730.0" type="line"/>
      <point x="139.0" y="892.0" type="line"/>
      <point x="397.0" y="892.0" type="line"/>
      <point x="397.0" y="1126.0" type="line" smooth="yes"/>
      <point x="397.0" y="1301.0"/>
      <point x="591.0" y="1487.0"/>
      <point x="759.0" y="1487.0" type="qcurve" smooth="yes"/>
      <point x="851.0" y="1487.0"/>
      <point x="989.0" y="1434.0"/>
      <point x="1032.0" y="1404.0" type="qcurve"/>
      <point x="945.0" y="1259.0" type="line"/>
      <point x="903.0" y="1290.0"/>
      <point x="813.0" y="1320.0"/>
      <point x="763.0" y="1320.0" type="qcurve" smooth="yes"/>
      <point x="688.0" y="1320.0"/>
      <point x="595.0" y="1224.0"/>
      <point x="595.0" y="1126.0" type="qcurve" smooth="yes"/>
      <point x="595.0" y="892.0" type="line"/>
    </contour>
  </outline>
</glyph>
<glyph name="schwa" format="2">
  <advance width="1139"/>
  <unicode hex="0259"/>
  <outline>
    <contour>
      <point x="1054.0" y="560.0" type="qcurve" smooth="yes"/>
      <point x="1054.0" y="528.0" type="line" smooth="yes"/>
      <point x="1054.0" y="282.0"/>
      <point x="771.0" y="-30.0"/>
      <point x="539.0" y="-30.0" type="qcurve" smooth="yes"/>
      <point x="305.0" y="-30.0"/>
      <point x="54.0" y="262.0"/>
      <point x="54.0" y="510.0" type="qcurve" smooth="yes"/>
      <point x="54.0" y="594.0" type="line"/>
      <point x="931.0" y="594.0" type="line"/>
      <point x="931.0" y="435.0" type="line"/>
      <point x="255.0" y="435.0" type="line"/>
      <point x="255.0" y="438.0" type="line"/>
      <point x="255.0" y="307.0"/>
      <point x="384.0" y="134.0"/>
      <point x="539.0" y="134.0" type="qcurve" smooth="yes"/>
      <point x="692.0" y="134.0"/>
      <point x="853.0" y="362.0"/>
      <point x="853.0" y="528.0" type="qcurve" smooth="yes"/>
      <point x="853.0" y="560.0" type="line" smooth="yes"/>
      <point x="853.0" y="726.0"/>
      <point x="684.0" y="955.0"/>
      <point x="507.0" y="955.0" type="qcurve" smooth="yes"/>
      <point x="398.0" y="955.0"/>
      <point x="241.0" y="867.0"/>
      <point x="193.0" y="806.0" type="qcurve"/>
      <point x="65.0" y="914.0" type="line"/>
      <point x="118.0" y="990.0"/>
      <point x="345.0" y="1119.0"/>
      <point x="507.0" y="1119.0" type="qcurve" smooth="yes"/>
      <point x="772.0" y="1119.0"/>
      <point x="1054.0" y="807.0"/>
    </contour>
  </outline>
</glyph>
<glyph name="primemod" format="2">
  <advance width="642"/>
  <unicode hex="02B9"/>
  <outline>
    <contour>
      <point x="239.0" y="1502.0" type="line"/>
      <point x="482.0" y="1502.0" type="line"/>
      <point x="329.0" y="845.0" type="line"/>
      <point x="172.0" y="851.0" type="line"/>
    </contour>
  </outline>
</glyph>
<glyph name="circumflex" format="2">
  <advance width="1024"/>
  <unicode hex="02C6"/>
  <outline>
    <contour>
      <point x="574.0" y="1548.0" type="line"/>
      <point x="847.0" y="1203.0" type="line"/>
      <point x="677.0" y="1203.0" type="line"/>
      <point x="512.0" y="1378.0" type="line"/>
      <point x="347.0" y="1203.0" type="line"/>
      <point x="180.0" y="1203.0" type="line"/>
      <point x="450.0" y="1548.0" type="line"/>
    </contour>
  </outline>
</glyph>
<glyph name="caron" format="2">
  <advance width="1024"/>
  <unicode hex="02C7"/>
  <outline>
    <contour>
      <point x="453.0" y="1183.0" type="line"/>
      <point x="180.0" y="1528.0" type="line"/>
      <point x="350.0" y="1528.0" type="line"/>
      <point x="515.0" y="1353.0" type="line"/>
      <point x="680.0" y="1528.0" type="line"/>
      <point x="847.0" y="1528.0" type="line"/>
      <point x="577.0" y="1183.0" type="line"/>
    </contour>
  </outline>
</glyph>
<glyph name="ogonek" format="2">
  <advance width="1024"/>
  <unicode hex="02DB"/>
  <outline>
    <contour>
      <point x="537.0" y="57.0" type="qcurve"/>
      <point x="615.0" y="-3.0" type="line"/>
      <point x="548.0" y="-53.0"/>
      <point x="435.0" y="-168.0"/>
      <point x="435.0" y="-236.0" type="qcurve" smooth="yes"/>
      <point x="435.0" y="-271.0"/>
      <point x="472.0" y="-313.0"/>
      <point x="517.0" y="-313.0" type="qcurve" smooth="yes"/>
      <point x="552.0" y="-313.0"/>
      <point x="606.0" y="-293.0"/>
      <point x="622.0" y="-284.0" type="qcurve"/>
      <point x="637.0" y="-412.0" type="line"/>
      <point x="611.0" y="-428.0"/>
      <point x="530.0" y="-459.0"/>
      <point x="468.0" y="-459.0" type="qcurve" smooth="yes"/>
      <point x="383.0" y="-459.0"/>
      <point x="266.0" y="-356.0"/>
      <point x="266.0" y="-258.0" type="qcurve" smooth="yes"/>
      <point x="266.0" y="-174.0"/>
      <point x="394.0" y="-9.0"/>
    </contour>
  </outline>
</glyph>
<glyph name="tilde" format="2">
  <advance width="1024"/>
  <unicode hex="02DC"/>
  <outline>
    <contour>
      <point x="137.0" y="1301.0" type="line"/>
      <point x="172.0" y="1367.0"/>
      <point x="317.0" y="1470.0"/>
      <point x="387.0" y="1470.0" type="qcurve" smooth="yes"/>
      <point x="430.0" y="1470.0"/>
      <point x="509.0" y="1444.0"/>
      <point x="548.0" y="1419.0" type="qcurve" smooth="yes"/>
      <point x="583.0" y="1396.0"/>
      <point x="665.0" y="1350.0"/>
      <point x="705.0" y="1350.0" type="qcurve" smooth="yes"/>
      <point x="747.0" y="1350.0"/>
      <point x="821.0" y="1405.0"/>
      <point x="845.0" y="1443.0" type="qcurve"/>
      <point x="930.0" y="1340.0" type="line"/>
      <point x="890.0" y="1266.0"/>
      <point x="750.0" y="1190.0"/>
      <point x="690.0" y="1190.0" type="qcurve" smooth="yes"/>
      <point x="639.0" y="1190.0"/>
      <point x="540.0" y="1235.0"/>
      <point x="508.0" y="1253.0" type="qcurve" smooth="yes"/>
      <point x="472.0" y="1273.0"/>
      <point x="401.0" y="1309.0"/>
      <point x="370.0" y="1309.0" type="qcurve" smooth="yes"/>
      <point x="321.0" y="1309.0"/>
      <point x="236.0" y="1233.0"/>
      <point x="217.0" y="1205.0" type="qcurve"/>
    </contour>
  </outline>
</glyph>
<glyph name="Germandbls" format="2">
  <advance width="1575"/>
  <unicode hex="1E9E"/>
  <outline>
    <contour>
      <point x="220.0" y="1084.0" type="line" smooth="yes"/>
      <point x="220.0" y="1289.0"/>
      <point x="454.0" y="1536.0"/>
      <point x="682.0" y="1536.0" type="qcurve" smooth="yes"/>
      <point x="923.0" y="1536.0"/>
      <point x="1113.0" y="1370.0"/>
      <point x="1113.0" y="1265.0" type="qcurve" smooth="yes"/>
      <point x="1113.0" y="1162.0"/>
      <point x="1008.0" y="1028.0"/>
      <point x="944.0" y="983.0" type="qcurve" smooth="yes"/>
      <point x="890.0" y="945.0"/>
      <point x="831.0" y="896.0"/>
      <point x="831.0" y="876.0" type="qcurve" smooth="yes"/>
      <point x="831.0" y="856.0"/>
      <point x="901.0" y="819.0"/>
      <point x="1105.0" y="749.0" type="qcurve" smooth="yes"/>
      <point x="1312.0" y="678.0"/>
      <point x="1486.0" y="495.0"/>
      <point x="1486.0" y="342.0" type="qcurve" smooth="yes"/>
      <point x="1486.0" y="194.0"/>
      <point x="1234.0" y="-30.0"/>
      <point x="1035.0" y="-30.0" type="qcurve" smooth="yes"/>
      <point x="776.0" y="-30.0"/>
      <point x="525.0" y="155.0"/>
      <point x="525.0" y="344.0" type="qcurve" smooth="yes"/>
      <point x="525.0" y="356.0" type="line"/>
      <point x="743.0" y="356.0" type="line"/>
      <point x="743.0" y="344.0" type="line" smooth="yes"/>
      <point x="743.0" y="243.0"/>
      <point x="877.0" y="138.0"/>
      <point x="1022.0" y="138.0" type="qcurve" smooth="yes"/>
      <point x="1135.0" y="138.0"/>
      <point x="1283.0" y="246.0"/>
      <point x="1283.0" y="336.0" type="qcurve" smooth="yes"/>
      <point x="1283.0" y="435.0"/>
      <point x="1142.0" y="530.0"/>
      <point x="958.0" y="594.0" type="qcurve" smooth="yes"/>
      <point x="714.0" y="680.0"/>
      <point x="588.0" y="773.0"/>
      <point x="588.0" y="845.0" type="qcurve" smooth="yes"/>
      <point x="588.0" y="920.0"/>
      <point x="667.0" y="1006.0"/>
      <point x="768.0" y="1074.0" type="qcurve" smooth="yes"/>
      <point x="843.0" y="1125.0"/>
      <point x="910.0" y="1192.0"/>
      <point x="910.0" y="1250.0" type="qcurve" smooth="yes"/>
      <point x="910.0" y="1306.0"/>
      <point x="801.0" y="1371.0"/>
      <point x="688.0" y="1371.0" type="qcurve" smooth="yes"/>
      <point x="558.0" y="1371.0"/>
      <point x="423.0" y="1219.0"/>
      <point x="423.0" y="1054.0" type="qcurve" smooth="yes"/>
      <point x="423.0" y="361.0" type="line" smooth="yes"/>
      <point x="423.0" y="188.0"/>
      <point x="244.0" y="-16.0"/>
      <point x="99.0" y="-16.0" type="qcurve" smooth="yes"/>
      <point x="85.0" y="-16.0"/>
      <point x="56.0" y="-14.0"/>
      <point x="42.0" y="-12.0" type="qcurve"/>
      <point x="40.0" y="175.0" type="line"/>
      <point x="50.0" y="172.0"/>
      <point x="70.0" y="170.0"/>
      <point x="80.0" y="170.0" type="qcurve" smooth="yes"/>
      <point x="144.0" y="170.0"/>
      <point x="220.0" y="269.0"/>
      <point x="220.0" y="361.0" type="qcurve" smooth="yes"/>
    </contour>
  </outline>
</glyph>
<glyph name="horizontalbar" format="2">
  <advance width="745"/>
  <unicode hex="2015"/>
  <outline>
    <contour>
      <point x="20.0" y="617.0" type="line"/>
      <point x="20.0" y="799.0" type="line"/>
      <point x="725.0" y="799.0" type="line"/>
      <point x="725.0" y="617.0" type="line"/>
    </contour>
  </outline>
</glyph>
<glyph name="quoteright" format="2">
  <advance width="410"/>
  <unicode hex="2019"/>
  <outline>
    <contour>
      <point x="318.0" y="1458.0" type="line"/>
      <point x="318.0" y="1352.0" type="line" smooth="yes"/>
      <point x="318.0" y="1237.0"/>
      <point x="227.0" y="1045.0"/>
      <point x="145.0" y="975.0" type="qcurve"/>
      <point x="34.0" y="1055.0" type="line"/>
      <point x="83.0" y="1121.0"/>
      <point x="127.0" y="1259.0"/>
      <point x="128.0" y="1352.0" type="qcurve" smooth="yes"/>
      <point x="128.0" y="1458.0" type="line"/>
    </contour>
  </outline>
</glyph>
<glyph name="quotedblbase" format="2">
  <advance width="836"/>
  <unicode hex="201E"/>
  <outline>
    <contour>
      <point x="324.0" y="220.0" type="line"/>
      <point x="324.0" y="114.0" type="line" smooth="yes"/>
      <point x="324.0" y="-1.0"/>
      <point x="233.0" y="-193.0"/>
      <point x="151.0" y="-263.0" type="qcurve"/>
      <point x="40.0" y="-183.0" type="line"/>
      <point x="89.0" y="-117.0"/>
      <point x="133.0" y="21.0"/>
      <point x="134.0" y="114.0" type="qcurve" smooth="yes"/>
      <point x="134.0" y="220.0" type="line"/>
    </contour>
    <contour>
      <point x="744.0" y="220.0" type="line"/>
      <point x="744.0" y="114.0" type="line" smooth="yes"/>
      <point x="744.0" y="-1.0"/>
      <point x="653.0" y="-193.0"/>
      <point x="571.0" y="-263.0" type="qcurve"/>
      <point x="460.0" y="-183.0" type="line"/>
      <point x="509.0" y="-117.0"/>
      <point x="553.0" y="21.0"/>
      <point x="554.0" y="114.0" type="qcurve" smooth="yes"/>
      <point x="554.0" y="220.0" type="line"/>
    </contour>
  </outline>
</glyph>
<glyph name="dagger" format="2">
  <advance width="1230"/>
  <unicode hex="2020"/>
  <outline>
    <contour>
      <point x="507.0" y="-272.0" type="qcurve"/>
      <point x="503.0" y="14.0" type="line"/>
      <point x="526.0" y="763.0" type="line"/>
      <point x="526.0" y="869.0" type="line"/>
      <point x="130.0" y="869.0" type="line"/>
      <point x="130.0" y="1044.0" type="line"/>
      <point x="522.0" y="1044.0" type="line"/>
      <point x="507.0" y="1533.0" type="line"/>
      <point x="723.0" y="1533.0" type="line"/>
      <point x="708.0" y="1044.0" type="line"/>
      <point x="1100.0" y="1044.0" type="line"/>
      <point x="1100.0" y="869.0" type="line"/>
      <point x="704.0" y="869.0" type="line"/>
      <point x="704.0" y="763.0" type="line"/>
      <point x="727.0" y="14.0" type="line"/>
      <point x="723.0" y="-272.0" type="line"/>
      <point x="640.0" y="-415.0"/>
      <point x="591.0" y="-416.0"/>
    </contour>
  </outline>
</glyph>
<glyph name="minute" format="2">
  <advance width="714"/>
  <unicode hex="2032"/>
  <outline>
    <contour>
      <point x="100.0" y="908.0" type="line"/>
      <point x="423.0" y="1559.0" type="line"/>
      <point x="634.0" y="1442.0" type="line"/>
      <point x="243.0" y="820.0" type="line"/>
    </contour>
  </outline>
</glyph>
<glyph name="second" format="2">
  <advance width="1214"/>
  <unicode hex="2033"/>
  <outline>
    <contour>
      <point x="100.0" y="908.0" type="line"/>
      <point x="423.0" y="1559.0" type="line"/>
      <point x="634.0" y="1442.0" type="line"/>
      <point x="243.0" y="820.0" type="line"/>
    </contour>
    <contour>
      <point x="600.0" y="908.0" type="line"/>
      <point x="923.0" y="1559.0" type="line"/>
      <point x="1134.0" y="1442.0" type="line"/>
      <point x="743.0" y="820.0" type="line"/>
    </contour>
  </outline>
</glyph>
<glyph name="lira" format="2">
  <advance width="1115"/>
  <unicode hex="20A4"/>
  <outline>
    <contour>
      <point x="1115.0" y="0.0" type="line"/>
      <point x="36.0" y="0.0" type="line"/>
      <point x="36.0" y="162.0" type="line"/>
      <point x="97.0" y="162.0" type="line" smooth="yes"/>
      <point x="197.0" y="162.0"/>
      <point x="284.0" y="327.0"/>
      <point x="269.0" y="471.0" type="qcurve" smooth="yes"/>
      <point x="209.0" y="1049.0" type="line" smooth="yes"/>
      <point x="189.0" y="1240.0"/>
      <point x="410.0" y="1490.0"/>
      <point x="629.0" y="1490.0" type="qcurve" smooth="yes"/>
      <point x="836.0" y="1490.0"/>
      <point x="1068.0" y="1282.0"/>
      <point x="1068.0" y="1114.0" type="qcurve" smooth="yes"/>
      <point x="1068.0" y="1097.0" type="line"/>
      <point x="858.0" y="1097.0" type="line"/>
      <point x="858.0" y="1114.0" type="line" smooth="yes"/>
      <point x="851.0" y="1230.0"/>
      <point x="731.0" y="1322.0"/>
      <point x="631.0" y="1322.0" type="qcurve" smooth="yes"/>
      <point x="526.0" y="1322.0"/>
      <point x="398.0" y="1196.0"/>
      <point x="413.0" y="1049.0" type="qcurve" smooth="yes"/>
      <point x="469.0" y="513.0" type="line" smooth="yes"/>
      <point x="483.0" y="376.0"/>
      <point x="424.0" y="209.0"/>
      <point x="347.0" y="168.0" type="qcurve"/>
      <point x="1115.0" y="168.0" type="line"/>
    </contour>
    <contour>
      <point x="893.0" y="759.0" type="line"/>
      <point x="53.0" y="759.0" type="line"/>
      <point x="53.0" y="915.0" type="line"/>
      <point x="893.0" y="915.0" type="line"/>
    </contour>
    <contour>
      <point x="893.0" y="430.0" type="line"/>
      <point x="53.0" y="430.0" type="line"/>
      <point x="53.0" y="586.0" type="line"/>
      <point x="893.0" y="586.0" type="line"/>
    </contour>
  </outline>
</glyph>
<glyph name="naira" format="2">
  <advance width="1131"/>
  <unicode hex="20A6"/>
  <outline>
    <contour>
      <point x="0.0" y="850.0" type="line"/>
      <point x="0.0" y="987.0" type="line"/>
      <point x="227.0" y="987.0" type="line"/>
      <point x="227.0" y="977.0" type="line"/>
      <point x="939.0" y="977.0" type="line"/>
      <point x="939.0" y="987.0" type="line"/>
      <point x="1131.0" y="989.0" type="line"/>
      <point x="1131.0" y="852.0" type="line"/>
      <point x="939.0" y="850.0" type="line"/>
      <point x="939.0" y="855.0" type="line"/>
      <point x="227.0" y="855.0" type="line"/>
      <point x="227.0" y="850.0" type="line"/>
    </contour>
    <contour>
      <point x="0.0" y="540.0" type="line"/>
      <point x="0.0" y="677.0" type="line"/>
      <point x="227.0" y="677.0" type="line"/>
      <point x="227.0" y="672.0" type="line"/>
      <point x="939.0" y="672.0" type="line"/>
      <point x="939.0" y="677.0" type="line"/>
      <point x="1131.0" y="679.0" type="line"/>
      <point x="1131.0" y="542.0" type="line"/>
      <point x="939.0" y="540.0" type="line"/>
      <point x="939.0" y="550.0" type="line"/>
      <point x="227.0" y="550.0" type="line"/>
      <point x="227.0" y="540.0" type="line"/>
    </contour>
    <contour>
      <point x="1018.0" y="1456.0" type="line"/>
      <point x="1018.0" y="0.0" type="line"/>
      <point x="791.0" y="0.0" type="line"/>
      <point x="320.0" y="1082.0" type="line"/>
      <point x="298.0" y="1193.0" type="line"/>
      <point x="286.0" y="1193.0" type="line"/>
      <point x="299.0" y="1065.0" type="line"/>
      <point x="299.0" y="0.0" type="line"/>
      <point x="104.0" y="0.0" type="line"/>
      <point x="104.0" y="1456.0" type="line"/>
      <point x="335.0" y="1456.0" type="line"/>
      <point x="789.0" y="407.0" type="line"/>
      <point x="818.0" y="287.0" type="line"/>
      <point x="832.0" y="290.0" type="line"/>
      <point x="822.0" y="411.0" type="line"/>
      <point x="822.0" y="1456.0" type="line"/>
    </contour>
  </outline>
</glyph>
<glyph name="peseta" format="2">
  <advance width="1897"/>
  <unicode hex="20A7"/>
  <outline>
    <contour>
      <point x="684.0" y="558.0" type="qcurve"/>
      <point x="273.0" y="558.0" type="line"/>
      <point x="273.0" y="729.0" type="line"/>
      <point x="684.0" y="729.0" type="line"/>
      <point x="865.0" y="729.0"/>
      <point x="1010.0" y="892.0"/>
      <point x="1010.0" y="1009.0" type="qcurve"/>
      <point x="1010.0" y="1126.0"/>
      <point x="865.0" y="1285.0"/>
      <point x="684.0" y="1285.0" type="qcurve"/>
      <point x="375.0" y="1285.0" type="line"/>
      <point x="375.0" y="0.0" type="line"/>
      <point x="170.0" y="0.0" type="line"/>
      <point x="170.0" y="1456.0" type="line"/>
      <point x="684.0" y="1456.0" type="line"/>
      <point x="940.0" y="1456.0"/>
      <point x="1214.0" y="1212.0"/>
      <point x="1214.0" y="1009.0" type="qcurve"/>
      <point x="1214.0" y="806.0"/>
      <point x="940.0" y="558.0"/>
    </contour>
    <contour>
      <point x="1847.0" y="1089.0" type="line"/>
      <point x="1847.0" y="933.0" type="line"/>
      <point x="1110.0" y="933.0" type="line"/>
      <point x="1110.0" y="1089.0" type="line"/>
    </contour>
    <contour>
      <point x="1403.0" y="1345.0" type="line"/>
      <point x="1601.0" y="1345.0" type="line"/>
      <point x="1601.0" y="272.0" type="line"/>
      <point x="1601.0" y="202.0"/>
      <point x="1661.0" y="142.0"/>
      <point x="1725.0" y="142.0" type="qcurve" smooth="yes"/>
      <point x="1755.0" y="142.0"/>
      <point x="1812.0" y="154.0"/>
      <point x="1842.0" y="164.0" type="qcurve"/>
      <point x="1842.0" y="0.0" type="line"/>
      <point x="1814.0" y="-12.0"/>
      <point x="1726.0" y="-30.0"/>
      <point x="1674.0" y="-30.0" type="qcurve" smooth="yes"/>
      <point x="1550.0" y="-30.0"/>
      <point x="1403.0" y="116.0"/>
      <point x="1403.0" y="272.0" type="qcurve"/>
    </contour>
  </outline>
</glyph>
<glyph name="won" format="2">
  <advance width="1861"/>
  <unicode hex="20A9"/>
  <outline>
    <contour>
      <point x="48.0" y="880.0" type="line"/>
      <point x="48.0" y="1017.0" type="line"/>
      <point x="336.0" y="1017.0" type="line"/>
      <point x="336.0" y="1007.0" type="line"/>
      <point x="1632.0" y="1007.0" type="line"/>
      <point x="1632.0" y="1017.0" type="line"/>
      <point x="1813.0" y="1019.0" type="line"/>
      <point x="1813.0" y="882.0" type="line"/>
      <point x="1632.0" y="880.0" type="line"/>
      <point x="1632.0" y="885.0" type="line"/>
      <point x="336.0" y="885.0" type="line"/>
      <point x="336.0" y="880.0" type="line"/>
    </contour>
    <contour>
      <point x="79.0" y="520.0" type="line"/>
      <point x="79.0" y="657.0" type="line"/>
      <point x="427.0" y="657.0" type="line"/>
      <point x="427.0" y="652.0" type="line"/>
      <point x="1553.0" y="652.0" type="line"/>
      <point x="1553.0" y="657.0" type="line"/>
      <point x="1774.0" y="659.0" type="line"/>
      <point x="1774.0" y="522.0" type="line"/>
      <point x="1553.0" y="520.0" type="line"/>
      <point x="1553.0" y="530.0" type="line"/>
      <point x="427.0" y="530.0" type="line"/>
      <point x="427.0" y="520.0" type="line"/>
    </contour>
    <contour>
      <point x="416.0" y="-9.0" type="line"/>
      <point x="50.0" y="1456.0" type="line"/>
      <point x="253.0" y="1456.0" type="line"/>
      <point x="504.0" y="375.0" type="line"/>
      <point x="527.0" y="257.0" type="line"/>
      <point x="540.0" y="257.0" type="line"/>
      <point x="562.0" y="375.0" type="line" smooth="yes"/>
      <point x="826.0" y="1456.0" type="line"/>
      <point x="1039.0" y="1456.0" type="line"/>
      <point x="1314.0" y="375.0" type="line"/>
      <point x="1337.0" y="257.0" type="line"/>
      <point x="1350.0" y="257.0" type="line"/>
      <point x="1372.0" y="375.0" type="line" smooth="yes"/>
      <point x="1616.0" y="1456.0" type="line"/>
      <point x="1811.0" y="1456.0" type="line"/>
      <point x="1445.0" y="-9.0" type="line"/>
      <point x="1242.0" y="-9.0" type="line"/>
      <point x="966.0" y="1066.0" type="line"/>
      <point x="938.0" y="1194.0" type="line"/>
      <point x="925.0" y="1194.0" type="line"/>
      <point x="898.0" y="1068.0" type="line" smooth="yes"/>
      <point x="618.0" y="-7.0" type="line"/>
    </contour>
  </outline>
</glyph>
<glyph name="Euro" format="2">
  <advance width="1187"/>
  <unicode hex="20AC"/>
  <outline>
    <contour>
      <point x="895.0" y="987.0" type="line"/>
      <point x="899.0" y="827.0" type="line"/>
      <point x="22.0" y="827.0" type="line"/>
      <point x="22.0" y="987.0" type="line"/>
    </contour>
    <contour>
      <point x="899.0" y="661.0" type="line"/>
      <point x="899.0" y="502.0" type="line"/>
      <point x="22.0" y="502.0" type="line"/>
      <point x="22.0" y="661.0" type="line"/>
    </contour>
    <contour>
      <point x="203.0" y="544.0" type="qcurve" smooth="yes"/>
      <point x="203.0" y="903.0" type="line" smooth="yes"/>
      <point x="203.0" y="1183.0"/>
      <point x="472.0" y="1484.0"/>
      <point x="723.0" y="1484.0" type="qcurve" smooth="yes"/>
      <point x="852.0" y="1484.0"/>
      <point x="1069.0" y="1408.0"/>
      <point x="1142.0" y="1337.0" type="qcurve"/>
      <point x="1007.0" y="1206.0" type="line"/>
      <point x="956.0" y="1254.0"/>
      <point x="817.0" y="1306.0"/>
      <point x="739.0" y="1306.0" type="qcurve" smooth="yes"/>
      <point x="580.0" y="1306.0"/>
      <point x="409.0" y="1099.0"/>
      <point x="409.0" y="906.0" type="qcurve" smooth="yes"/>
      <point x="409.0" y="541.0" type="line" smooth="yes"/>
      <point x="409.0" y="350.0"/>
      <point x="592.0" y="145.0"/>
      <point x="763.0" y="145.0" type="qcurve" smooth="yes"/>
      <point x="838.0" y="145.0"/>
      <point x="980.0" y="195.0"/>
      <point x="1038.0" y="242.0" type="qcurve"/>
      <point x="1157.0" y="126.0" type="line"/>
      <point x="1087.0" y="51.0"/>
      <point x="863.0" y="-30.0"/>
      <point x="725.0" y="-30.0" type="qcurve" smooth="yes"/>
      <point x="473.0" y="-30.0"/>
      <point x="203.0" y="267.0"/>
    </contour>
  </outline>
</glyph>
<glyph name="uni20B1" format="2">
  <advance width="1113"/>
  <unicode hex="20B1"/>
  <outline>
    <contour>
      <point x="546.0" y="407.0" type="qcurve" smooth="yes"/>
      <point x="213.0" y="407.0" type="line"/>
      <point x="213.0" y="578.0" type="line"/>
      <point x="546.0" y="578.0" type="line" smooth="yes"/>
      <point x="670.0" y="578.0"/>
      <point x="768.0" y="785.0"/>
      <point x="768.0" y="934.0" type="qcurve" smooth="yes"/>
      <point x="768.0" y="1084.0"/>
      <point x="670.0" y="1285.0"/>
      <point x="546.0" y="1285.0" type="qcurve" smooth="yes"/>
      <point x="335.0" y="1285.0" type="line"/>
      <point x="335.0" y="0.0" type="line"/>
      <point x="130.0" y="0.0" type="line"/>
      <point x="130.0" y="1456.0" type="line"/>
      <point x="546.0" y="1456.0" type="line" smooth="yes"/>
      <point x="753.0" y="1456.0"/>
      <point x="975.0" y="1171.0"/>
      <point x="975.0" y="934.0" type="qcurve" smooth="yes"/>
      <point x="975.0" y="697.0"/>
      <point x="753.0" y="407.0"/>
    </contour>
    <contour>
      <point x="-1.0" y="980.0" type="line"/>
      <point x="-1.0" y="1137.0" type="line"/>
      <point x="241.0" y="1137.0" type="line"/>
      <point x="241.0" y="1112.0" type="line"/>
      <point x="827.0" y="1112.0" type="line"/>
      <point x="827.0" y="1137.0" type="line"/>
      <point x="1099.0" y="1139.0" type="line"/>
      <point x="1099.0" y="982.0" type="line"/>
      <point x="847.0" y="980.0" type="line"/>
      <point x="847.0" y="995.0" type="line"/>
      <point x="241.0" y="995.0" type="line"/>
      <point x="241.0" y="980.0" type="line"/>
    </contour>
    <contour>
      <point x="-1.0" y="710.0" type="line"/>
      <point x="-1.0" y="867.0" type="line"/>
      <point x="241.0" y="867.0" type="line"/>
      <point x="241.0" y="852.0" type="line"/>
      <point x="847.0" y="852.0" type="line"/>
      <point x="847.0" y="867.0" type="line"/>
      <point x="1099.0" y="869.0" type="line"/>
      <point x="1099.0" y="712.0" type="line"/>
      <point x="807.0" y="710.0" type="line"/>
      <point x="807.0" y="713.0" type="line"/>
      <point x="241.0" y="713.0" type="line"/>
      <point x="241.0" y="710.0" type="line"/>
    </contour>
  </outline>
</glyph>
<glyph name="uni20B2" format="2">
  <advance width="1061"/>
  <unicode hex="20B2"/>
  <outline>
    <contour>
      <point x="497.0" y="-190.0" type="line"/>
      <point x="497.0" y="57.0" type="line"/>
      <point x="517.0" y="71.0" type="line"/>
      <point x="517.0" y="708.0" type="line"/>
      <point x="652.0" y="708.0" type="line"/>
      <point x="652.0" y="70.0" type="line"/>
      <point x="675.0" y="60.0" type="line"/>
      <point x="675.0" y="-190.0" type="line"/>
    </contour>
    <contour>
      <point x="517.0" y="708.0" type="line"/>
      <point x="517.0" y="1342.0" type="line"/>
      <point x="500.0" y="1352.0" type="line"/>
      <point x="500.0" y="1582.0" type="line"/>
      <point x="668.0" y="1582.0" type="line"/>
      <point x="668.0" y="1352.0" type="line"/>
      <point x="652.0" y="1339.0" type="line"/>
      <point x="652.0" y="708.0" type="line"/>
    </contour>
    <contour>
      <point x="1037.0" y="735.0" type="line"/>
      <point x="1037.0" y="452.0" type="line" smooth="yes"/>
      <point x="1037.0" y="259.0"/>
      <point x="785.0" y="-5.0"/>
      <point x="594.0" y="-5.0" type="qcurve" smooth="yes"/>
      <point x="362.0" y="-5.0"/>
      <point x="94.0" y="288.0"/>
      <point x="94.0" y="542.0" type="qcurve" smooth="yes"/>
      <point x="94.0" y="897.0" type="line" smooth="yes"/>
      <point x="94.0" y="1196.0"/>
      <point x="362.0" y="1485.0"/>
      <point x="571.0" y="1485.0" type="qcurve" smooth="yes"/>
      <point x="757.0" y="1485.0"/>
      <point x="981.0" y="1340.0"/>
      <point x="1032.0" y="1265.0" type="qcurve"/>
      <point x="909.0" y="1131.0" type="line"/>
      <point x="852.0" y="1204.0"/>
      <point x="701.0" y="1299.0"/>
      <point x="579.0" y="1299.0" type="qcurve" smooth="yes"/>
      <point x="440.0" y="1299.0"/>
      <point x="297.0" y="1112.0"/>
      <point x="297.0" y="899.0" type="qcurve" smooth="yes"/>
      <point x="297.0" y="544.0" type="line" smooth="yes"/>
      <point x="297.0" y="359.0"/>
      <point x="451.0" y="152.0"/>
      <point x="608.0" y="152.0" type="qcurve" smooth="yes"/>
      <point x="700.0" y="152.0"/>
      <point x="858.0" y="299.0"/>
      <point x="858.0" y="433.0" type="qcurve" smooth="yes"/>
      <point x="858.0" y="569.0" type="line"/>
      <point x="724.0" y="569.0" type="line"/>
      <point x="724.0" y="735.0" type="line"/>
    </contour>
  </outline>
</glyph>
<glyph name="rupeeIndian" format="2">
  <advance width="1024"/>
  <unicode hex="20B9"/>
  <outline>
    <contour>
      <point x="19.0" y="934.0" type="line"/>
      <point x="19.0" y="1089.0" type="line"/>
      <point x="1070.0" y="1089.0" type="line"/>
      <point x="1070.0" y="934.0" type="line"/>
    </contour>
    <contour>
      <point x="871.0" y="0.0" type="line"/>
      <point x="713.0" y="267.0" type="line" smooth="yes"/>
      <point x="611.0" y="439.0"/>
      <point x="347.0" y="556.0"/>
      <point x="141.0" y="564.0" type="qcurve" smooth="yes"/>
      <point x="19.0" y="569.0" type="line"/>
      <point x="19.0" y="732.0" type="line"/>
      <point x="331.0" y="732.0" type="line" smooth="yes"/>
      <point x="537.0" y="732.0"/>
      <point x="705.0" y="885.0"/>
      <point x="705.0" y="1019.0" type="qcurve" smooth="yes"/>
      <point x="705.0" y="1145.0"/>
      <point x="531.0" y="1283.0"/>
      <point x="346.0" y="1289.0" type="qcurve" smooth="yes"/>
      <point x="19.0" y="1289.0" type="line"/>
      <point x="19.0" y="1456.0" type="line"/>
      <point x="1079.0" y="1456.0" type="line"/>
      <point x="1079.0" y="1290.0" type="line"/>
      <point x="825.0" y="1290.0" type="line"/>
      <point x="742.0" y="1298.0" type="line"/>
      <point x="744.0" y="1290.0" type="line"/>
      <point x="806.0" y="1262.0"/>
      <point x="905.0" y="1112.0"/>
      <point x="905.0" y="1019.0" type="qcurve" smooth="yes"/>
      <point x="905.0" y="831.0"/>
      <point x="714.0" y="663.0"/>
      <point x="512.0" y="642.0" type="qcurve"/>
      <point x="614.0" y="619.0"/>
      <point x="823.0" y="461.0"/>
      <point x="906.0" y="317.0" type="qcurve" smooth="yes"/>
      <point x="1090.0" y="0.0" type="line"/>
    </contour>
  </outline>
</glyph>
<glyph name="numero" format="2">
  <advance width="2468"/>
  <unicode hex="2116"/>
  <outline>
    <contour>
      <point x="170.0" y="0.0" type="line"/>
      <point x="170.0" y="1456.0" type="line"/>
      <point x="385.0" y="1456.0" type="line"/>
      <point x="1081.0" y="434.0" type="line" smooth="yes"/>
      <point x="1101.0" y="404.0"/>
      <point x="1141.0" y="329.0"/>
      <point x="1153.0" y="304.0" type="qcurve"/>
      <point x="1163.0" y="304.0" type="line"/>
      <point x="1161.0" y="334.0"/>
      <point x="1157.0" y="439.0"/>
      <point x="1157.0" y="469.0" type="qcurve" smooth="yes"/>
      <point x="1157.0" y="1456.0" type="line"/>
      <point x="1353.0" y="1456.0" type="line"/>
      <point x="1353.0" y="0.0" type="line"/>
      <point x="1137.0" y="0.0" type="line"/>
      <point x="437.0" y="1029.0" type="line" smooth="yes"/>
      <point x="416.0" y="1059.0"/>
      <point x="381.0" y="1119.0"/>
      <point x="369.0" y="1144.0" type="qcurve"/>
      <point x="359.0" y="1144.0" type="line"/>
      <point x="361.0" y="1114.0"/>
      <point x="365.0" y="1039.0"/>
      <point x="365.0" y="1009.0" type="qcurve" smooth="yes"/>
      <point x="365.0" y="0.0" type="line"/>
    </contour>
    <contour>
      <point x="1483.0" y="974.0" type="qcurve" smooth="yes"/>
      <point x="1483.0" y="1002.0" type="line" smooth="yes"/>
      <point x="1483.0" y="1210.0"/>
      <point x="1732.0" y="1473.0"/>
      <point x="1935.0" y="1473.0" type="qcurve" smooth="yes"/>
      <point x="2138.0" y="1473.0"/>
      <point x="2388.0" y="1210.0"/>
      <point x="2388.0" y="1002.0" type="qcurve" smooth="yes"/>
      <point x="2388.0" y="974.0" type="line" smooth="yes"/>
      <point x="2388.0" y="767.0"/>
      <point x="2151.0" y="505.0"/>
      <point x="1935.0" y="505.0" type="qcurve" smooth="yes"/>
      <point x="1719.0" y="505.0"/>
      <point x="1483.0" y="767.0"/>
    </contour>
    <contour>
      <point x="1686.0" y="999.0" type="qcurve" smooth="yes"/>
      <point x="1686.0" y="973.0" type="line" smooth="yes"/>
      <point x="1686.0" y="842.0"/>
      <point x="1810.0" y="671.0"/>
      <point x="1935.0" y="671.0" type="qcurve" smooth="yes"/>
      <point x="2060.0" y="671.0"/>
      <point x="2185.0" y="842.0"/>
      <point x="2185.0" y="973.0" type="qcurve" smooth="yes"/>
      <point x="2185.0" y="999.0" type="line" smooth="yes"/>
      <point x="2185.0" y="1131.0"/>
      <point x="2059.0" y="1302.0"/>
      <point x="1935.0" y="1302.0" type="qcurve" smooth="yes"/>
      <point x="1811.0" y="1302.0"/>
      <point x="1686.0" y="1131.0"/>
    </contour>
    <contour>
      <point x="1524.0" y="187.0" type="line"/>
      <point x="1524.0" y="375.0" type="line"/>
      <point x="2346.0" y="375.0" type="line"/>
      <point x="2346.0" y="187.0" type="line"/>
    </contour>
  </outline>
</glyph>
<glyph name="trademark" format="2">
  <advance width="1881"/>
  <unicode hex="2122"/>
  <outline>
    <contour>
      <point x="24.0" y="1312.0" type="line"/>
      <point x="24.0" y="1476.0" type="line"/>
      <point x="760.0" y="1476.0" type="line"/>
      <point x="760.0" y="1312.0" type="line"/>
      <point x="482.0" y="1312.0" type="line"/>
      <point x="482.0" y="690.0" type="line"/>
      <point x="303.0" y="690.0" type="line"/>
      <point x="303.0" y="1312.0" type="line"/>
    </contour>
    <contour>
      <point x="883.0" y="690.0" type="line"/>
      <point x="883.0" y="1476.0" type="line"/>
      <point x="1061.0" y="1476.0" type="line"/>
      <point x="1327.0" y="873.0" type="line"/>
      <point x="1335.0" y="873.0" type="line"/>
      <point x="1606.0" y="1476.0" type="line"/>
      <point x="1783.0" y="1476.0" type="line"/>
      <point x="1783.0" y="690.0" type="line"/>
      <point x="1629.0" y="690.0" type="line"/>
      <point x="1629.0" y="1184.0" type="line"/>
      <point x="1616.0" y="1184.0" type="line"/>
      <point x="1402.0" y="690.0" type="line"/>
      <point x="1260.0" y="690.0" type="line"/>
      <point x="1057.0" y="1184.0" type="line"/>
      <point x="1044.0" y="1184.0" type="line"/>
      <point x="1044.0" y="690.0" type="line"/>
    </contour>
  </outline>
</glyph>
<glyph name="bulletoperator" format="2">
  <advance width="1024"/>
  <unicode hex="2219"/>
  <outline>
    <contour>
      <point x="304.0" y="674.0" type="qcurve" smooth="yes"/>
      <point x="304.0" y="758.0"/>
      <point x="421.0" y="882.0"/>
      <point x="512.0" y="882.0" type="qcurve" smooth="yes"/>
      <point x="603.0" y="882.0"/>
      <point x="720.0" y="758.0"/>
      <point x="720.0" y="674.0" type="qcurve" smooth="yes"/>
      <point x="720.0" y="591.0"/>
      <point x="603.0" y="467.0"/>
      <point x="512.0" y="467.0" type="qcurve" smooth="yes"/>
      <point x="421.0" y="467.0"/>
      <point x="304.0" y="591.0"/>
    </contour>
  </outline>
</glyph>
<glyph name="greaterequal" format="2">
  <advance width="1203"/>
  <unicode hex="2265"/>
  <outline>
    <contour>
      <point x="177.0" y="211.0" type="line"/>
      <point x="177.0" y="420.0" type="line"/>
      <point x="800.0" y="674.0" type="line"/>
      <point x="177.0" y="928.0" type="line"/>
      <point x="177.0" y="1137.0" type="line"/>
      <point x="1034.0" y="754.0" type="line"/>
      <point x="1034.0" y="594.0" type="line"/>
    </contour>
    <contour>
      <point x="1081.0" y="1.0" type="line"/>
      <point x="141.0" y="1.0" type="line"/>
      <point x="141.0" y="170.0" type="line"/>
      <point x="1081.0" y="170.0" type="line"/>
    </contour>
  </outline>
</glyph>
<glyph name="leftanglebracket" format="2">
  <advance width="794"/>
  <unicode hex="27E8"/>
  <outline>
    <contour>
      <point x="-16.0" y="546.0" type="line"/>
      <point x="-16.0" y="677.0" type="line"/>
      <point x="665.0" y="1521.0" type="line"/>
      <point x="793.0" y="1434.0" type="line"/>
      <point x="200.0" y="615.0" type="line"/>
      <point x="792.0" y="-218.0" type="line"/>
      <point x="665.0" y="-304.0" type="line"/>
    </contour>
  </outline>
</glyph>
<glyph name="rightanglebracket" format="2">
  <advance width="792"/>
  <unicode hex="27E9"/>
  <outline>
    <contour>
      <point x="-1.0" y="-217.0" type="line"/>
      <point x="592.0" y="602.0" type="line"/>
      <point x="0.0" y="1435.0" type="line"/>
      <point x="127.0" y="1521.0" type="line"/>
      <point x="808.0" y="671.0" type="line"/>
      <point x="808.0" y="540.0" type="line"/>
      <point x="127.0" y="-304.0" type="line"/>
    </contour>
  </outline>
</glyph>
<glyph name="acutecomb.case" format="2">
  <advance width="1024"/>
  <outline>
    <contour>
      <point x="398.0" y="1628.0" type="line"/>
      <point x="608.0" y="1981.0" type="line"/>
      <point x="784.0" y="1895.0" type="line"/>
      <point x="520.0" y="1570.0" type="line"/>
    </contour>
  </outline>
</glyph>
<glyph name="caroncomb.case" format="2">
  <advance width="1024"/>
  <outline>
    <contour>
      <point x="434.0" y="1633.0" type="line"/>
      <point x="155.0" y="1990.0" type="line"/>
      <point x="331.0" y="1992.0" type="line"/>
      <point x="505.0" y="1799.0" type="line"/>
      <point x="673.0" y="1990.0" type="line"/>
      <point x="855.0" y="1990.0" type="line"/>
      <point x="585.0" y="1633.0" type="line"/>
    </contour>
  </outline>
</glyph>
<glyph name="cedillacomb.case" format="2">
  <advance width="1024"/>
  <outline>
    <contour>
      <point x="425.0" y="32.0" type="line"/>
      <point x="571.0" y="32.0" type="line"/>
      <point x="542.0" y="-99.0" type="line"/>
      <point x="625.0" y="-114.0"/>
      <point x="755.0" y="-211.0"/>
      <point x="755.0" y="-291.0" type="qcurve" smooth="yes"/>
      <point x="755.0" y="-400.0"/>
      <point x="520.0" y="-532.0"/>
      <point x="308.0" y="-532.0" type="qcurve"/>
      <point x="300.0" y="-389.0" type="line"/>
      <point x="414.0" y="-390.0"/>
      <point x="543.0" y="-349.0"/>
      <point x="543.0" y="-294.0" type="qcurve" smooth="yes"/>
      <point x="543.0" y="-242.0"/>
      <point x="470.0" y="-203.0"/>
      <point x="382.0" y="-196.0" type="qcurve"/>
    </contour>
  </outline>
</glyph>
<glyph name="circumflexcomb.case" format="2">
  <advance width="1024"/>
  <outline>
    <contour>
      <point x="576.0" y="1992.0" type="line"/>
      <point x="855.0" y="1635.0" type="line"/>
      <point x="679.0" y="1633.0" type="line"/>
      <point x="505.0" y="1826.0" type="line"/>
      <point x="337.0" y="1635.0" type="line"/>
      <point x="155.0" y="1635.0" type="line"/>
      <point x="425.0" y="1992.0" type="line"/>
    </contour>
  </outline>
</glyph>
<glyph name="dotaccentcomb.case" format="2">
  <advance width="1024"/>
  <outline>
    <contour>
      <point x="385.0" y="1798.0" type="qcurve" smooth="yes"/>
      <point x="385.0" y="1858.0"/>
      <point x="450.0" y="1922.0"/>
      <point x="512.0" y="1922.0" type="qcurve" smooth="yes"/>
      <point x="570.0" y="1922.0"/>
      <point x="639.0" y="1854.0"/>
      <point x="639.0" y="1798.0" type="qcurve" smooth="yes"/>
      <point x="639.0" y="1738.0"/>
      <point x="574.0" y="1674.0"/>
      <point x="512.0" y="1674.0" type="qcurve" smooth="yes"/>
      <point x="454.0" y="1674.0"/>
      <point x="385.0" y="1742.0"/>
    </contour>
  </outline>
</glyph>
<glyph name="gravecomb.case" format="2">
  <advance width="1024"/>
  <outline>
    <contour>
      <point x="469.0" y="1580.0" type="line"/>
      <point x="205.0" y="1905.0" type="line"/>
      <point x="381.0" y="1991.0" type="line"/>
      <point x="591.0" y="1638.0" type="line"/>
    </contour>
  </outline>
</glyph>
<glyph name="ogonekcomb.case" format="2">
  <advance width="1024"/>
  <outline>
    <contour>
      <point x="206.0" y="-324.0" type="qcurve" smooth="yes"/>
      <point x="206.0" y="-230.0"/>
      <point x="341.0" y="-46.0"/>
      <point x="466.0" y="51.0" type="qcurve"/>
      <point x="566.0" y="-3.0" type="line"/>
      <point x="455.0" y="-113.0"/>
      <point x="387.0" y="-212.0"/>
      <point x="387.0" y="-259.0" type="qcurve" smooth="yes"/>
      <point x="387.0" y="-309.0"/>
      <point x="450.0" y="-367.0"/>
      <point x="505.0" y="-367.0" type="qcurve" smooth="yes"/>
      <point x="554.0" y="-367.0"/>
      <point x="693.0" y="-319.0"/>
      <point x="758.0" y="-269.0" type="qcurve"/>
      <point x="818.0" y="-377.0" type="line"/>
      <point x="770.0" y="-441.0"/>
      <point x="586.0" y="-524.0"/>
      <point x="476.0" y="-524.0" type="qcurve" smooth="yes"/>
      <point x="366.0" y="-524.0"/>
      <point x="206.0" y="-406.0"/>
    </contour>
  </outline>
</glyph>
<glyph name="ringcomb.case" format="2">
  <advance width="1024"/>
  <outline>
    <contour>
      <point x="261.0" y="1833.0" type="qcurve" smooth="yes"/>
      <point x="261.0" y="1938.0"/>
      <point x="403.0" y="2074.0"/>
      <point x="512.0" y="2074.0" type="qcurve" smooth="yes"/>
      <point x="621.0" y="2074.0"/>
      <point x="763.0" y="1938.0"/>
      <point x="763.0" y="1833.0" type="qcurve" smooth="yes"/>
      <point x="763.0" y="1728.0"/>
      <point x="621.0" y="1593.0"/>
      <point x="512.0" y="1593.0" type="qcurve"/>
      <point x="403.0" y="1593.0"/>
      <point x="261.0" y="1728.0"/>
    </contour>
    <contour>
      <point x="393.0" y="1833.0" type="qcurve" smooth="yes"/>
      <point x="393.0" y="1780.0"/>
      <point x="457.0" y="1715.0"/>
      <point x="512.0" y="1715.0" type="qcurve" smooth="yes"/>
      <point x="570.0" y="1715.0"/>
      <point x="631.0" y="1776.0"/>
      <point x="631.0" y="1833.0" type="qcurve" smooth="yes"/>
      <point x="631.0" y="1887.0"/>
      <point x="567.0" y="1952.0"/>
      <point x="512.0" y="1952.0" type="qcurve" smooth="yes"/>
      <point x="454.0" y="1952.0"/>
      <point x="393.0" y="1891.0"/>
    </contour>
  </outline>
</glyph>
<glyph name="tildecomb.case" format="2">
  <advance width="1024"/>
  <outline>
    <contour>
      <point x="84.0" y="1768.0" type="line"/>
      <point x="123.0" y="1840.0"/>
      <point x="282.0" y="1959.0"/>
      <point x="362.0" y="1959.0" type="qcurve" smooth="yes"/>
      <point x="411.0" y="1959.0"/>
      <point x="497.0" y="1927.0"/>
      <point x="541.0" y="1898.0" type="qcurve" smooth="yes"/>
      <point x="572.0" y="1879.0"/>
      <point x="674.0" y="1820.0"/>
      <point x="724.0" y="1820.0" type="qcurve" smooth="yes"/>
      <point x="772.0" y="1820.0"/>
      <point x="861.0" y="1880.0"/>
      <point x="888.0" y="1921.0" type="qcurve"/>
      <point x="960.0" y="1832.0" type="line"/>
      <point x="916.0" y="1745.0"/>
      <point x="770.0" y="1652.0"/>
      <point x="704.0" y="1652.0" type="qcurve" smooth="yes"/>
      <point x="648.0" y="1652.0"/>
      <point x="536.0" y="1703.0"/>
      <point x="502.0" y="1727.0" type="qcurve" smooth="yes"/>
      <point x="464.0" y="1753.0"/>
      <point x="377.0" y="1793.0"/>
      <point x="342.0" y="1793.0" type="qcurve" smooth="yes"/>
      <point x="287.0" y="1793.0"/>
      <point x="184.0" y="1710.0"/>
      <point x="163.0" y="1678.0" type="qcurve"/>
    </contour>
  </outline>
</glyph>
<glyph name="tildecombstack.case" format="2">
  <advance width="1024"/>
  <outline>
    <contour>
      <point x="155.0" y="1782.0" type="line"/>
      <point x="197.0" y="1858.0"/>
      <point x="328.0" y="1935.0"/>
      <point x="398.0" y="1935.0" type="qcurve" smooth="yes"/>
      <point x="435.0" y="1935.0"/>
      <point x="511.0" y="1912.0"/>
      <point x="549.0" y="1885.0" type="qcurve" smooth="yes"/>
      <point x="581.0" y="1862.0"/>
      <point x="650.0" y="1825.0"/>
      <point x="684.0" y="1825.0" type="qcurve" smooth="yes"/>
      <point x="726.0" y="1825.0"/>
      <point x="775.0" y="1867.0"/>
      <point x="797.0" y="1908.0" type="qcurve"/>
      <point x="896.0" y="1812.0" type="line"/>
      <point x="862.0" y="1735.0"/>
      <point x="742.0" y="1657.0"/>
      <point x="674.0" y="1657.0" type="qcurve" smooth="yes"/>
      <point x="623.0" y="1657.0"/>
      <point x="537.0" y="1694.0"/>
      <point x="505.0" y="1715.0" type="qcurve" smooth="yes"/>
      <point x="472.0" y="1737.0"/>
      <point x="405.0" y="1776.0"/>
      <point x="380.0" y="1776.0" type="qcurve" smooth="yes"/>
      <point x="342.0" y="1776.0"/>
      <point x="278.0" y="1718.0"/>
      <point x="258.0" y="1686.0" type="qcurve"/>
    </contour>
  </outline>
</glyph>
<glyph name="zerosuperior" format="2">
  <advance width="836"/>
  <outline>
    <contour>
      <point x="60.0" y="1037.0" type="qcurve" smooth="yes"/>
      <point x="75.0" y="1141.0" type="line" smooth="yes"/>
      <point x="99.0" y="1301.0"/>
      <point x="310.0" y="1497.0"/>
      <point x="479.0" y="1497.0" type="qcurve" smooth="yes"/>
      <point x="650.0" y="1496.0"/>
      <point x="800.0" y="1299.0"/>
      <point x="776.0" y="1139.0" type="qcurve" smooth="yes"/>
      <point x="761.0" y="1035.0" type="line" smooth="yes"/>
      <point x="737.0" y="875.0"/>
      <point x="527.0" y="679.0"/>
      <point x="357.0" y="679.0" type="qcurve" smooth="yes"/>
      <point x="187.0" y="680.0"/>
      <point x="36.0" y="877.0"/>
    </contour>
    <contour>
      <point x="237.0" y="1036.0" type="line" smooth="yes"/>
      <point x="224.0" y="949.0"/>
      <point x="282.0" y="837.0"/>
      <point x="379.0" y="837.0" type="qcurve" smooth="yes"/>
      <point x="477.0" y="836.0"/>
      <point x="569.0" y="948.0"/>
      <point x="583.0" y="1036.0" type="qcurve" smooth="yes"/>
      <point x="599.0" y="1140.0" type="line" smooth="yes"/>
      <point x="612.0" y="1227.0"/>
      <point x="555.0" y="1339.0"/>
      <point x="457.0" y="1339.0" type="qcurve" smooth="yes"/>
      <point x="360.0" y="1340.0"/>
      <point x="267.0" y="1228.0"/>
      <point x="253.0" y="1140.0" type="qcurve" smooth="yes"/>
    </contour>
  </outline>
</glyph>
